SplineFontDB: 3.0
FontName: CinzelDecorative-Bold
FullName: Cinzel Decorative Bold
FamilyName: Cinzel Decorative
Weight: Bold
Copyright: Copyright (c) 2012 Natanael Gama (info@ndiscovered.com), with Reserved Font Name 'Cinzel'
Version: 1.001;PS 001.001;hotconv 1.0.56;makeotf.lib2.0.21325
ItalicAngle: 0
UnderlinePosition: -50
UnderlineWidth: 50
Ascent: 800
Descent: 200
sfntRevision: 0x00010041
LayerCount: 2
Layer: 0 1 "Back"  1
Layer: 1 1 "Fore"  0
XUID: [1021 686 386323527 1381250]
FSType: 0
OS2Version: 3
OS2_WeightWidthSlopeOnly: 0
OS2_UseTypoMetrics: 1
CreationTime: 1336740768
ModificationTime: 1349490216
PfmFamily: 81
TTFWeight: 700
TTFWidth: 5
LineGap: 0
VLineGap: 0
Panose: 0 0 8 0 0 0 0 0 0 0
OS2TypoAscent: 976
OS2TypoAOffset: 0
OS2TypoDescent: -372
OS2TypoDOffset: 0
OS2TypoLinegap: 0
OS2WinAscent: 976
OS2WinAOffset: 0
OS2WinDescent: 372
OS2WinDOffset: 0
HheadAscent: 976
HheadAOffset: 0
HheadDescent: -372
HheadDOffset: 0
OS2SubXSize: 650
OS2SubYSize: 600
OS2SubXOff: 0
OS2SubYOff: 75
OS2SupXSize: 650
OS2SupYSize: 600
OS2SupXOff: 0
OS2SupYOff: 350
OS2StrikeYSize: 50
OS2StrikeYPos: 300
OS2Vendor: 'UKWN'
OS2CodePages: 20000093.00000000
OS2UnicodeRanges: 00000007.00000000.00000000.00000000
Lookup: 258 0 0 "'kern' Horizontal Kerning lookup 0"  {"'kern' Horizontal Kerning lookup 0 per glyph data 0"  "'kern' Horizontal Kerning lookup 0 kerning class 1"  } ['kern' ('DFLT' <'dflt' > 'grek' <'dflt' > 'latn' <'dflt' > ) ]
DEI: 91125
KernClass2: 64+ 47 "'kern' Horizontal Kerning lookup 0 kerning class 1" 
 28 Tcedilla Tcaron Tbar uni021A
 73 U Ugrave Uacute Ucircumflex Udieresis Umacron Uring Uhungarumlaut Uogonek
 1 V
 4 nine
 37 W Wcircumflex Wgrave Wacute Wdieresis
 1 X
 37 Y Yacute Ycircumflex Ydieresis Ygrave
 49 comma period quotesinglbase quotedblbase ellipsis
 26 Z Zacute Zdotaccent Zcaron
 5 seven
 73 a agrave aacute acircumflex atilde adieresis aring amacron abreve aogonek
 1 b
 35 c ccedilla cacute cdotaccent ccaron
 4 five
 31 hyphen softhyphen endash emdash

StartChar: exclam
Encoding: 33 33 4
Width: 269
GlyphClass: 2
Flags: W
LayerCount: 2
Fore
SplineSet
193 379 m 1,0,-1
 157 206 l 1,1,-1
 111 206 l 1,2,-1
 76 379 l 1,3,-1
 57 702 l 1,4,-1
 211 702 l 1,5,-1
 193 379 l 1,0,-1
133 -10 m 128,-1,7
 103 -10 103 -10 82 11 c 128,-1,8
 61 32 61 32 61 62 c 128,-1,9
 61 92 61 92 82 113.5 c 128,-1,10
 103 135 103 135 133 135 c 128,-1,11
 163 135 163 135 184.5 113.5 c 128,-1,12
 206 92 206 92 206 62 c 128,-1,13
 206 32 206 32 184.5 11 c 128,-1,6
 163 -10 163 -10 133 -10 c 128,-1,7
EndSplineSet
EndChar

StartChar: quotedbl
Encoding: 34 34 5
Width: 362
GlyphClass: 2
Flags: W
LayerCount: 2
Fore
SplineSet
38 505 m 1,0,1
 66 590 66 590 66 629.5 c 128,-1,2
 66 669 66 669 62 700 c 1,3,-1
 169 714 l 1,4,5
 169 710 169 710 169 698.5 c 128,-1,6
 169 687 169 687 164.5 660.5 c 128,-1,7
 160 634 160 634 148 601.5 c 128,-1,8
 136 569 136 569 110.5 540.5 c 128,-1,9
 85 512 85 512 52 500 c 1,10,-1
 38 505 l 1,0,1
194 505 m 1,11,12
 222 590 222 590 222 629.5 c 128,-1,13
 222 669 222 669 218 700 c 1,14,-1
 325 714 l 1,15,16
 326 710 326 710 326 698.5 c 128,-1,17
 326 687 326 687 321 660.5 c 128,-1,18
 316 634 316 634 304 601.5 c 128,-1,19
 292 569 292 569 267 540.5 c 128,-1,20
 242 512 242 512 208 500 c 1,21,-1
 194 505 l 1,11,12
EndSplineSet
EndChar

StartChar: numbersign
Encoding: 35 35 6
Width: 574
GlyphClass: 2
Flags: W
LayerCount: 2
Fore
SplineSet
534 449 m 1,0,-1
 418 449 l 1,1,-1
 386 265 l 1,2,-1
 490 265 l 1,3,-1
 490 217 l 1,4,-1
 378 217 l 1,5,-1
 339 0 l 1,6,-1
 289 0 l 1,7,-1
 327 217 l 1,8,-1
 178 217 l 1,9,-1
 139 0 l 1,10,-1
 89 0 l 1,11,-1
 127 217 l 1,12,-1
 20 217 l 1,13,-1
 20 265 l 1,14,-1
 136 265 l 1,15,-1
 168 449 l 1,16,-1
 64 449 l 1,17,-1
 64 497 l 1,18,-1
 177 497 l 1,19,-1
 212 700 l 1,20,-1
 263 700 l 1,21,-1
 227 497 l 1,22,-1
 377 497 l 1,23,-1
 412 700 l 1,24,-1
 463 700 l 1,25,-1
 427 497 l 1,26,-1
 534 497 l 1,27,-1
 534 449 l 1,0,-1
336 265 m 1,28,-1
 368 449 l 1,29,-1
 218 449 l 1,30,-1
 186 265 l 1,31,-1
 336 265 l 1,28,-1
EndSplineSet
EndChar

StartChar: dollar
Encoding: 36 36 7
Width: 557
GlyphClass: 2
Flags: W
LayerCount: 2
Fore
SplineSet
43 93 m 0,0,1
 43 165 43 165 74 216 c 1,2,-1
 82 216 l 1,3,4
 82 209 82 209 82 201 c 0,5,6
 82 137 82 137 123.5 87.5 c 128,-1,7
 165 38 165 38 243 30 c 1,8,-1
 262 288 l 1,9,-1
 155 359 l 1,10,11
 102 389 102 389 80 431.5 c 128,-1,12
 58 474 58 474 58 518 c 0,13,14
 58 529 58 529 59 539 c 0,15,16
 66 619 66 619 121.5 666 c 128,-1,17
 177 713 177 713 263 713 c 0,18,19
 264 713 264 713 265 713 c 2,20,-1
 295 713 l 1,21,-1
 300 788 l 1,22,-1
 342 787 l 1,23,-1
 336 711 l 1,24,25
 373 708 373 708 406 704 c 1,26,-1
 469 704 l 1,27,-1
 456 557 l 1,28,-1
 446 557 l 1,29,30
 446 603 446 603 416 633 c 128,-1,31
 386 663 386 663 333 670 c 1,32,-1
 315 437 l 1,33,-1
 435 359 l 1,34,35
 525 307 525 307 525 207 c 0,36,37
 525 103 525 103 458 47 c 128,-1,38
 391 -9 391 -9 280 -14 c 1,39,-1
 274 -102 l 1,40,-1
 233 -99 l 1,41,-1
 239 -14 l 1,42,43
 175 -11 175 -11 125 5 c 128,-1,44
 75 21 75 21 50 47 c 1,45,46
 43 66 43 66 43 93 c 0,0,1
292 671 m 1,47,48
 241 668 241 668 207.5 640.5 c 128,-1,49
 174 613 174 613 174 568.5 c 128,-1,50
 174 524 174 524 244 483 c 1,51,-1
 276 462 l 1,52,-1
 292 671 l 1,47,48
302 262 m 1,53,-1
 284 29 l 1,54,55
 342 33 342 33 375.5 64 c 128,-1,56
 409 95 409 95 409 140 c 0,57,58
 409 200 409 200 329 244 c 1,59,-1
 302 262 l 1,53,-1
EndSplineSet
EndChar

StartChar: percent
Encoding: 37 37 8
Width: 740
GlyphClass: 2
Flags: W
LayerCount: 2
Fore
SplineSet
343 648 m 1,0,1
 358 617 358 617 358 587 c 0,2,3
 358 467 358 467 292 408 c 0,4,5
 240 361 240 361 164.5 361 c 128,-1,6
 89 361 89 361 54 409 c 1,7,8
 30 444 30 444 30 498 c 0,9,10
 30 608 30 608 97 668 c 0,11,12
 148 714 148 714 226 714 c 0,13,14
 264 714 264 714 294 702 c 128,-1,15
 324 690 324 690 348 677 c 0,16,17
 377 662 377 662 399 662 c 128,-1,18
 421 662 421 662 440.5 666.5 c 128,-1,19
 460 671 460 671 473.5 677.5 c 128,-1,20
 487 684 487 684 508 695 c 128,-1,21
 529 706 529 706 534 709 c 1,22,-1
 567 695 l 1,23,-1
 194 -16 l 1,24,-1
 157 0 l 1,25,-1
 507 662 l 1,26,27
 458 633 458 633 419 633 c 128,-1,28
 380 633 380 633 343 648 c 1,0,1
132 474 m 0,29,30
 132 393 132 393 173 393 c 0,31,32
 203 393 203 393 225 431.5 c 128,-1,33
 247 470 247 470 254.5 520 c 128,-1,34
 262 570 262 570 262 597 c 0,35,36
 262 682 262 682 220 682 c 0,37,38
 192 682 192 682 170.5 643.5 c 128,-1,39
 149 605 149 605 140.5 553 c 128,-1,40
 132 501 132 501 132 474 c 0,29,30
440 294 m 0,41,42
 491 339 491 339 564.5 339 c 128,-1,43
 638 339 638 339 673 292 c 0,44,45
 700 255 700 255 700 197 c 0,46,47
 700 91 700 91 636 33 c 0,48,49
 584 -14 584 -14 507.5 -14 c 128,-1,50
 431 -14 431 -14 397 35 c 1,51,52
 372 69 372 69 372 123 c 0,53,54
 372 233 372 233 440 294 c 0,41,42
471 99 m 0,55,56
 471 18 471 18 511 18 c 0,57,58
 541 18 541 18 563.5 56 c 128,-1,59
 586 94 586 94 593 144.5 c 128,-1,60
 600 195 600 195 600 222 c 0,61,62
 600 307 600 307 559 307 c 0,63,64
 531 307 531 307 509 268.5 c 128,-1,65
 487 230 487 230 479 178 c 128,-1,66
 471 126 471 126 471 99 c 0,55,56
EndSplineSet
EndChar

StartChar: ampersand
Encoding: 38 38 9
Width: 878
GlyphClass: 2
Flags: W
LayerCount: 2
Fore
SplineSet
1189 -106 m 1,0,1
 1099 -157 1099 -157 991 -157 c 0,2,3
 829 -157 829 -157 687 -47 c 0,4,5
 658 -24 658 -24 585 34 c 1,6,7
 495 -11 495 -11 387 -11 c 0,8,9
 308 -11 308 -11 243 9.5 c 128,-1,10
 178 30 178 30 136.5 55 c 128,-1,11
 95 80 95 80 67.5 121.5 c 128,-1,12
 40 163 40 163 40 216 c 0,13,14
 40 298 40 298 105 352 c 0,15,16
 140 381 140 381 185 397 c 1,17,18
 139 468 139 468 139 531 c 128,-1,19
 139 594 139 594 173 635 c 0,20,21
 237 714 237 714 377 714 c 0,22,23
 466 714 466 714 529 682 c 0,24,25
 561 666 561 666 577 643 c 1,26,-1
 543 500 l 1,27,-1
 534 500 l 1,28,29
 531 601 531 601 478 647 c 0,30,31
 449 672 449 672 402 672 c 128,-1,32
 355 672 355 672 324 639.5 c 128,-1,33
 293 607 293 607 293 554 c 128,-1,34
 293 501 293 501 334 449.5 c 128,-1,35
 375 398 375 398 458.5 326.5 c 128,-1,36
 542 255 542 255 666 152 c 1,37,38
 786 275 786 275 786 436 c 0,39,40
 786 555 786 555 710 656 c 0,41,42
 658 725 658 725 574 781 c 1,43,-1
 580 787 l 1,44,45
 669 736 669 736 726 667.5 c 128,-1,46
 783 599 783 599 802 534.5 c 128,-1,47
 821 470 821 470 821 410 c 0,48,49
 821 246 821 246 702 122 c 1,50,-1
 733 96 l 2,51,52
 780 56 780 56 812.5 31 c 128,-1,53
 845 6 845 6 893 -24.5 c 128,-1,54
 941 -55 941 -55 983 -70 c 1,55,56
 1058 -99 1058 -99 1139 -99 c 0,57,58
 1163 -99 1163 -99 1187 -96 c 1,59,-1
 1189 -106 l 1,0,1
198 250 m 0,60,61
 198 145 198 145 272 87 c 0,62,63
 335 38 335 38 418 38 c 0,64,65
 483 38 483 38 545 66 c 1,66,67
 386 194 386 194 351 224 c 0,68,69
 269 292 269 292 223 346 c 1,70,71
 198 305 198 305 198 250 c 0,60,61
EndSplineSet
EndChar

StartChar: quotesingle
Encoding: 39 39 10
Width: 200
GlyphClass: 2
Flags: W
LayerCount: 2
Fore
SplineSet
32 505 m 1,0,1
 60 590 60 590 60 629.5 c 128,-1,2
 60 669 60 669 56 700 c 1,3,-1
 163 714 l 1,4,5
 163 710 163 710 163 698.5 c 128,-1,6
 163 687 163 687 158.5 660.5 c 128,-1,7
 154 634 154 634 142 601.5 c 128,-1,8
 130 569 130 569 104.5 540.5 c 128,-1,9
 79 512 79 512 46 500 c 1,10,-1
 32 505 l 1,0,1
EndSplineSet
EndChar

StartChar: parenleft
Encoding: 40 40 11
Width: 423
GlyphClass: 2
Flags: W
LayerCount: 2
Fore
SplineSet
281 70.5 m 128,-1,1
 323 -43 323 -43 392 -91 c 1,2,-1
 386 -100 l 1,3,4
 292 -71 292 -71 224 -5 c 0,5,6
 90 127 90 127 90 336 c 0,7,8
 90 548 90 548 224 660 c 0,9,10
 292 716 292 716 388 732 c 1,11,-1
 394 724 l 1,12,13
 320 689 320 689 279.5 589 c 128,-1,14
 239 489 239 489 239 336.5 c 128,-1,0
 239 184 239 184 281 70.5 c 128,-1,1
EndSplineSet
EndChar

StartChar: parenright
Encoding: 41 41 12
Width: 423
GlyphClass: 2
Flags: W
LayerCount: 2
Fore
SplineSet
144 589 m 128,-1,1
 103 689 103 689 30 724 c 1,2,-1
 36 732 l 1,3,4
 179 709 179 709 256.5 600 c 128,-1,5
 334 491 334 491 334 336 c 0,6,7
 334 127 334 127 199 -5 c 0,8,9
 131 -71 131 -71 38 -100 c 1,10,-1
 32 -91 l 1,11,12
 99 -44 99 -44 140 64 c 0,13,14
 185 182 185 182 185 335.5 c 128,-1,0
 185 489 185 489 144 589 c 128,-1,1
EndSplineSet
EndChar

StartChar: asterisk
Encoding: 42 42 13
Width: 388
GlyphClass: 2
Flags: W
LayerCount: 2
Fore
SplineSet
202 605 m 1,0,-1
 257 576 l 1,1,-1
 321 512 l 1,2,-1
 292 474 l 1,3,-1
 248 459 l 1,4,-1
 205 538 l 1,5,-1
 195 600 l 1,6,-1
 184 538 l 1,7,-1
 143 458 l 1,8,-1
 98 474 l 1,9,-1
 70 511 l 1,10,-1
 132 576 l 1,11,-1
 188 605 l 1,12,-1
 126 596 l 1,13,-1
 37 611 l 1,14,-1
 37 658 l 1,15,-1
 65 697 l 1,16,-1
 146 657 l 1,17,-1
 191 613 l 1,18,-1
 163 670 l 1,19,-1
 149 759 l 1,20,-1
 194 773 l 1,21,-1
 240 759 l 1,22,-1
 227 670 l 1,23,-1
 199 613 l 1,24,-1
 244 657 l 1,25,-1
 325 698 l 1,26,-1
 353 659 l 1,27,-1
 353 612 l 1,28,-1
 264 596 l 1,29,-1
 202 605 l 1,0,-1
EndSplineSet
EndChar

StartChar: plus
Encoding: 43 43 14
Width: 481
GlyphClass: 2
Flags: W
LayerCount: 2
Fore
SplineSet
442 338 m 1,0,-1
 442 281 l 1,1,-1
 269 281 l 1,2,-1
 269 109 l 1,3,-1
 212 109 l 1,4,-1
 212 281 l 1,5,-1
 40 281 l 1,6,-1
 40 338 l 1,7,-1
 212 338 l 1,8,-1
 212 511 l 1,9,-1
 269 511 l 1,10,-1
 269 338 l 1,11,-1
 442 338 l 1,0,-1
EndSplineSet
EndChar

StartChar: comma
Encoding: 44 44 15
Width: 230
GlyphClass: 2
Flags: W
LayerCount: 2
Fore
SplineSet
42 -102 m 1,0,1
 88 -85 88 -85 88 -41 c 0,2,3
 88 -16 88 -16 66 9.5 c 128,-1,4
 44 35 44 35 44 66 c 128,-1,5
 44 97 44 97 62.5 115.5 c 128,-1,6
 81 134 81 134 106 134 c 0,7,8
 159 134 159 134 179 87 c 1,9,10
 193 59 193 59 193 40 c 0,11,12
 193 -15 193 -15 170 -50 c 0,13,14
 128 -114 128 -114 62 -114 c 0,15,16
 54 -114 54 -114 46 -113 c 1,17,-1
 42 -102 l 1,0,1
EndSplineSet
EndChar

StartChar: hyphen
Encoding: 45 45 16
Width: 380
GlyphClass: 2
Flags: W
LayerCount: 2
Fore
SplineSet
32 292 m 1,0,-1
 40 325 l 1,1,-1
 340 325 l 1,2,-1
 348 292 l 1,3,-1
 340 258 l 1,4,-1
 40 258 l 1,5,-1
 32 292 l 1,0,-1
EndSplineSet
EndChar

StartChar: period
Encoding: 46 46 17
Width: 222
GlyphClass: 2
Flags: W
LayerCount: 2
Fore
SplineSet
111 -10 m 128,-1,1
 81 -10 81 -10 60 11 c 128,-1,2
 39 32 39 32 39 62 c 128,-1,3
 39 92 39 92 60 113.5 c 128,-1,4
 81 135 81 135 111 135 c 128,-1,5
 141 135 141 135 162.5 113.5 c 128,-1,6
 184 92 184 92 184 62 c 128,-1,7
 184 32 184 32 162.5 11 c 128,-1,0
 141 -10 141 -10 111 -10 c 128,-1,1
EndSplineSet
EndChar

StartChar: slash
Encoding: 47 47 18
Width: 426
GlyphClass: 2
Flags: W
LayerCount: 2
Fore
SplineSet
9 11 m 1,0,-1
 369 719 l 1,1,-1
 417 696 l 1,2,-1
 56 -14 l 1,3,-1
 9 11 l 1,0,-1
EndSplineSet
EndChar

StartChar: zero
Encoding: 48 48 19
Width: 688
GlyphClass: 2
Flags: W
LayerCount: 2
Fore
SplineSet
344 614 m 128,-1,1
 483 614 483 614 563.5 529.5 c 128,-1,2
 644 445 644 445 644 300 c 128,-1,3
 644 155 644 155 563.5 70.5 c 128,-1,4
 483 -14 483 -14 344 -14 c 0,5,6
 252 -14 252 -14 184 24 c 128,-1,7
 116 62 116 62 80 133 c 128,-1,8
 44 204 44 204 44 300 c 0,9,10
 44 445 44 445 124.5 529.5 c 128,-1,0
 205 614 205 614 344 614 c 128,-1,1
344 572 m 128,-1,12
 300 572 300 572 267 539 c 0,13,14
 199 471 199 471 199 300 c 0,15,16
 199 174 199 174 238 101 c 128,-1,17
 277 28 277 28 344 28 c 128,-1,18
 411 28 411 28 450.5 101 c 128,-1,19
 490 174 490 174 490 300 c 0,20,21
 490 471 490 471 421 539 c 0,22,11
 388 572 388 572 344 572 c 128,-1,12
EndSplineSet
EndChar

StartChar: one
Encoding: 49 49 20
Width: 381
GlyphClass: 2
Flags: W
LayerCount: 2
Fore
SplineSet
118 64 m 2,0,-1
 118 537 l 2,1,2
 118 567 118 567 90 583 c 0,3,4
 77 590 77 590 62 590 c 2,5,-1
 42 590 l 1,6,-1
 41 600 l 1,7,-1
 343 600 l 1,8,-1
 343 590 l 1,9,-1
 322 590 l 2,10,11
 291 590 291 590 275 564 c 0,12,13
 267 551 267 551 267 537 c 2,14,-1
 267 64 l 2,15,16
 267 33 267 33 295 17 c 0,17,18
 307 10 307 10 322 10 c 2,19,-1
 343 10 l 1,20,-1
 343 0 l 1,21,-1
 42 0 l 1,22,-1
 42 10 l 1,23,-1
 63 10 l 2,24,25
 85 10 85 10 101.5 26 c 128,-1,26
 118 42 118 42 118 64 c 2,0,-1
EndSplineSet
EndChar

StartChar: two
Encoding: 50 50 21
Width: 616
GlyphClass: 2
Flags: W
LayerCount: 2
Fore
SplineSet
276 626 m 0,0,1
 392 626 392 626 464.5 578.5 c 128,-1,2
 537 531 537 531 537 448 c 0,3,4
 537 384 537 384 490 326 c 0,5,6
 455 283 455 283 427.5 260.5 c 128,-1,7
 400 238 400 238 385.5 226.5 c 128,-1,8
 371 215 371 215 344.5 197.5 c 128,-1,9
 318 180 318 180 306.5 172.5 c 128,-1,10
 295 165 295 165 269 149 c 128,-1,11
 243 133 243 133 237 129 c 1,12,-1
 444 129 l 2,13,14
 488 129 488 129 517.5 149.5 c 128,-1,15
 547 170 547 170 574 217 c 1,16,-1
 584 217 l 1,17,-1
 524 0 l 1,18,-1
 44 0 l 1,19,-1
 44 9 l 1,20,21
 69 35 69 35 114.5 80.5 c 128,-1,22
 160 126 160 126 190.5 157 c 128,-1,23
 221 188 221 188 259.5 232 c 128,-1,24
 298 276 298 276 321 311 c 0,25,26
 377 395 377 395 377 458.5 c 128,-1,27
 377 522 377 522 342.5 554.5 c 128,-1,28
 308 587 308 587 253 587 c 0,29,30
 179 587 179 587 141.5 541.5 c 128,-1,31
 104 496 104 496 104 417 c 1,32,-1
 94 417 l 1,33,-1
 47 561 l 1,34,35
 84 591 84 591 147.5 608.5 c 128,-1,36
 211 626 211 626 276 626 c 0,0,1
EndSplineSet
EndChar

StartChar: three
Encoding: 51 51 22
Width: 563
GlyphClass: 2
Flags: W
LayerCount: 2
Fore
SplineSet
42 541 m 1,0,1
 120 612 120 612 263 612 c 0,2,3
 364 612 364 612 425 568.5 c 128,-1,4
 486 525 486 525 486 449 c 0,5,6
 486 406 486 406 465.5 371 c 128,-1,7
 445 336 445 336 414.5 317 c 128,-1,8
 384 298 384 298 349 296 c 1,9,10
 412 284 412 284 459 241 c 0,11,12
 511 193 511 193 512 106 c 0,13,14
 512 47 512 47 484 -4 c 0,15,16
 432 -98 432 -98 303 -139 c 0,17,18
 249 -156 249 -156 188 -156 c 0,19,20
 115 -156 115 -156 47 -132 c 1,21,-1
 49 -122 l 1,22,23
 54 -122 54 -122 59 -122 c 0,24,25
 134 -122 134 -122 201 -94 c 128,-1,26
 268 -66 268 -66 309.5 -10 c 128,-1,27
 351 46 351 46 351 117 c 0,28,29
 351 216 351 216 269 259 c 0,30,31
 222 284 222 284 158 284 c 1,32,-1
 160 294 l 1,33,34
 163 294 163 294 165 294 c 0,35,36
 233 294 233 294 282.5 340 c 128,-1,37
 332 386 332 386 332 451 c 0,38,39
 332 512 332 512 298 541 c 128,-1,40
 264 570 264 570 218 570 c 0,41,42
 94 570 94 570 94 414 c 0,43,44
 94 407 94 407 94 399 c 1,45,-1
 84 399 l 1,46,-1
 42 541 l 1,0,1
EndSplineSet
EndChar

StartChar: four
Encoding: 52 52 23
Width: 619
GlyphClass: 2
Flags: W
LayerCount: 2
Fore
SplineSet
473 112 m 1,0,-1
 473 -37 l 1,1,2
 474 -69 474 -69 505 -85 c 0,3,4
 516 -90 516 -90 529 -90 c 2,5,-1
 539 -90 l 1,6,-1
 540 -100 l 1,7,-1
 257 -100 l 1,8,-1
 257 -90 l 1,9,-1
 268 -90 l 2,10,11
 290 -90 290 -90 306 -75 c 128,-1,12
 322 -60 322 -60 323 -38 c 1,13,-1
 323 112 l 1,14,-1
 7 112 l 1,15,-1
 7 122 l 1,16,-1
 464 614 l 1,17,-1
 473 614 l 1,18,-1
 473 198 l 1,19,-1
 517 198 l 2,20,21
 543 198 543 198 555.5 205.5 c 128,-1,22
 568 213 568 213 578 230 c 1,23,-1
 588 230 l 1,24,-1
 560 112 l 1,25,-1
 473 112 l 1,0,-1
323 198 m 1,26,-1
 323 395 l 1,27,-1
 139 198 l 1,28,-1
 323 198 l 1,26,-1
EndSplineSet
EndChar

StartChar: five
Encoding: 53 53 24
Width: 555
GlyphClass: 2
Flags: W
LayerCount: 2
Fore
SplineSet
252 350 m 0,0,1
 338 350 338 350 399 311 c 1,2,3
 495 252 495 252 495 131 c 0,4,5
 495 64 495 64 467.5 12.5 c 128,-1,6
 440 -39 440 -39 400 -71 c 0,7,8
 294 -154 294 -154 151 -154 c 0,9,10
 77 -154 77 -154 26 -131 c 1,11,-1
 28 -121 l 1,12,13
 31 -121 31 -121 45 -121 c 128,-1,14
 59 -121 59 -121 93 -114 c 128,-1,15
 127 -107 127 -107 168.5 -89.5 c 128,-1,16
 210 -72 210 -72 245 -47 c 128,-1,17
 280 -22 280 -22 305 18 c 0,18,19
 333 63 333 63 333 115 c 128,-1,20
 333 167 333 167 298 203 c 0,21,22
 260 243 260 243 195.5 243 c 128,-1,23
 131 243 131 243 62 219 c 1,24,-1
 53 224 l 1,25,-1
 134 564 l 1,26,-1
 392 585 l 1,27,28
 446 585 446 585 472 635 c 1,29,-1
 482 635 l 1,30,-1
 443 468 l 1,31,-1
 164 447 l 1,32,-1
 135 335 l 1,33,34
 198 350 198 350 252 350 c 0,0,1
EndSplineSet
EndChar

StartChar: six
Encoding: 54 54 25
Width: 629
GlyphClass: 2
Flags: W
LayerCount: 2
Fore
SplineSet
327 374 m 0,0,1
 287 374 287 374 258 346 c 1,2,-1
 251 354 l 1,3,4
 279 400 279 400 334 421 c 0,5,6
 366 433 366 433 395 433 c 128,-1,7
 424 433 424 433 448.5 427.5 c 128,-1,8
 473 422 473 422 498 406 c 0,9,10
 584 350 584 350 584 223 c 0,11,12
 584 123 584 123 517 55 c 0,13,14
 447 -15 447 -15 319.5 -15 c 128,-1,15
 192 -15 192 -15 121 63.5 c 128,-1,16
 50 142 50 142 50 295 c 0,17,18
 50 494 50 494 160 617 c 0,19,20
 214 677 214 677 294 706 c 128,-1,21
 374 735 374 735 466 735 c 0,22,23
 481 735 481 735 497 734 c 1,24,-1
 501 727 l 1,25,26
 377 688 377 688 317 625 c 0,27,28
 254 560 254 560 234 478 c 1,29,30
 216 398 216 398 216 277.5 c 128,-1,31
 216 157 216 157 239 95 c 128,-1,32
 262 33 262 33 323 33 c 0,33,34
 362 33 362 33 387 59 c 0,35,36
 430 104 430 104 430 208 c 0,37,38
 430 361 430 361 347 372 c 0,39,40
 337 374 337 374 327 374 c 0,0,1
EndSplineSet
EndChar

StartChar: seven
Encoding: 55 55 26
Width: 544
GlyphClass: 2
Flags: W
LayerCount: 2
Fore
SplineSet
102 472 m 2,0,1
 73 472 73 472 55.5 457.5 c 128,-1,2
 38 443 38 443 27 412 c 1,3,-1
 17 412 l 1,4,-1
 45 598 l 1,5,-1
 523 598 l 1,6,-1
 404 306 l 2,7,8
 377 242 377 242 332 107 c 128,-1,9
 287 -28 287 -28 267 -100 c 1,10,-1
 137 -100 l 1,11,12
 183 -14 183 -14 247.5 116 c 128,-1,13
 312 246 312 246 341 314 c 2,14,-1
 407 472 l 1,15,-1
 102 472 l 2,0,1
EndSplineSet
EndChar

StartChar: eight
Encoding: 56 56 27
Width: 603
GlyphClass: 2
Flags: W
LayerCount: 2
Fore
SplineSet
116 27 m 0,0,1
 80 48 80 48 59.5 83.5 c 128,-1,2
 39 119 39 119 39 165 c 0,3,4
 39 284 39 284 183 338 c 1,5,6
 79 414 79 414 79 521 c 0,7,8
 79 608 79 608 140 661 c 0,9,10
 202 714 202 714 297.5 714 c 128,-1,11
 393 714 393 714 456.5 667.5 c 128,-1,12
 520 621 520 621 520 545 c 0,13,14
 520 508 520 508 502 477 c 0,15,16
 469 419 469 419 389 397 c 1,17,18
 461 360 461 360 478.5 346 c 128,-1,19
 496 332 496 332 510.5 319 c 128,-1,20
 525 306 525 306 533 293 c 128,-1,21
 541 280 541 280 549 264 c 0,22,23
 564 234 564 234 564 190 c 0,24,25
 564 94 564 94 489.5 40 c 128,-1,26
 415 -14 415 -14 301 -14 c 128,-1,27
 187 -14 187 -14 116 27 c 0,0,1
346 419 m 1,28,29
 390 468 390 468 390 552 c 0,30,31
 390 606 390 606 365 638 c 0,32,33
 339 671 339 671 297 671 c 128,-1,34
 255 671 255 671 231.5 643 c 128,-1,35
 208 615 208 615 208 571 c 128,-1,36
 208 527 208 527 237 495 c 0,37,38
 267 462 267 462 346 419 c 1,28,29
388.5 58.5 m 128,-1,40
 423 89 423 89 423 136 c 128,-1,41
 423 183 423 183 388.5 213.5 c 128,-1,42
 354 244 354 244 297 273.5 c 128,-1,43
 240 303 240 303 219 315 c 1,44,45
 171 264 171 264 171 188 c 128,-1,46
 171 112 171 112 203 71 c 1,47,48
 239 28 239 28 296.5 28 c 128,-1,39
 354 28 354 28 388.5 58.5 c 128,-1,40
EndSplineSet
EndChar

StartChar: nine
Encoding: 57 57 28
Width: 629
GlyphClass: 2
Flags: W
LayerCount: 2
Fore
SplineSet
302 222 m 0,0,1
 343 222 343 222 372 251 c 1,2,-1
 379 242 l 1,3,4
 361 212 361 212 329 192 c 0,5,6
 283 163 283 163 231 163 c 0,7,8
 167 163 167 163 115 203 c 0,9,10
 84 226 84 226 65 269.5 c 128,-1,11
 46 313 46 313 46 369 c 0,12,13
 46 478 46 478 114 544 c 0,14,15
 184 611 184 611 311.5 611 c 128,-1,16
 439 611 439 611 509.5 533 c 128,-1,17
 580 455 580 455 580 298 c 0,18,19
 580 103 580 103 470 -20 c 0,20,21
 416 -81 416 -81 336.5 -110 c 128,-1,22
 257 -139 257 -139 168 -139 c 0,23,24
 151 -139 151 -139 133 -138 c 1,25,-1
 129 -131 l 1,26,27
 268 -89 268 -89 336 -6 c 0,28,29
 394 65 394 65 408 188 c 0,30,31
 414 239 414 239 414 308 c 0,32,33
 414 440 414 440 391 501.5 c 128,-1,34
 368 563 368 563 307 563 c 0,35,36
 268 563 268 563 243 537 c 0,37,38
 200 493 200 493 200 389 c 0,39,40
 200 234 200 234 284 224 c 0,41,42
 293 222 293 222 302 222 c 0,0,1
EndSplineSet
EndChar

StartChar: colon
Encoding: 58 58 29
Width: 222
GlyphClass: 2
Flags: W
LayerCount: 2
Fore
SplineSet
147.5 382.5 m 128,-1,1
 131 373 131 373 106 373 c 128,-1,2
 81 373 81 373 60 394 c 128,-1,3
 39 415 39 415 39 445 c 128,-1,4
 39 475 39 475 60 496 c 128,-1,5
 81 517 81 517 111 517 c 128,-1,6
 141 517 141 517 162.5 496 c 128,-1,7
 184 475 184 475 184 450 c 128,-1,8
 184 425 184 425 174 408.5 c 128,-1,0
 164 392 164 392 147.5 382.5 c 128,-1,1
111 -10 m 128,-1,10
 81 -10 81 -10 60 11 c 128,-1,11
 39 32 39 32 39 62 c 128,-1,12
 39 92 39 92 60 113.5 c 128,-1,13
 81 135 81 135 111 135 c 128,-1,14
 141 135 141 135 162.5 113.5 c 128,-1,15
 184 92 184 92 184 62 c 128,-1,16
 184 32 184 32 162.5 11 c 128,-1,9
 141 -10 141 -10 111 -10 c 128,-1,10
EndSplineSet
EndChar

StartChar: semicolon
Encoding: 59 59 30
Width: 230
GlyphClass: 2
Flags: W
LayerCount: 2
Fore
SplineSet
111 401 m 128,-1,1
 81 401 81 401 60 422.5 c 128,-1,2
 39 444 39 444 39 473.5 c 128,-1,3
 39 503 39 503 60 524.5 c 128,-1,4
 81 546 81 546 111 546 c 128,-1,5
 141 546 141 546 162.5 524.5 c 128,-1,6
 184 503 184 503 184 473.5 c 128,-1,7
 184 444 184 444 162.5 422.5 c 128,-1,0
 141 401 141 401 111 401 c 128,-1,1
42 -102 m 1,8,9
 88 -85 88 -85 88 -41 c 0,10,11
 88 -16 88 -16 66 9.5 c 128,-1,12
 44 35 44 35 44 66 c 128,-1,13
 44 97 44 97 62.5 115.5 c 128,-1,14
 81 134 81 134 106 134 c 0,15,16
 159 134 159 134 179 87 c 1,17,18
 193 59 193 59 193 40 c 0,19,20
 193 -15 193 -15 170 -50 c 0,21,22
 128 -114 128 -114 62 -114 c 0,23,24
 54 -114 54 -114 46 -113 c 1,25,-1
 42 -102 l 1,8,9
EndSplineSet
EndChar

StartChar: less
Encoding: 60 60 31
Width: 493
GlyphClass: 2
Flags: W
LayerCount: 2
Fore
SplineSet
442 525 m 1,0,-1
 442 463 l 1,1,-1
 120 310 l 1,2,-1
 442 156 l 1,3,-1
 442 94 l 1,4,-1
 40 283 l 1,5,-1
 40 336 l 1,6,-1
 442 525 l 1,0,-1
EndSplineSet
EndChar

StartChar: equal
Encoding: 61 61 32
Width: 481
GlyphClass: 2
Flags: W
LayerCount: 2
Fore
SplineSet
40 358 m 1,0,-1
 40 415 l 1,1,-1
 442 415 l 1,2,-1
 442 358 l 1,3,-1
 40 358 l 1,0,-1
40 183 m 1,4,-1
 40 240 l 1,5,-1
 442 240 l 1,6,-1
 442 183 l 1,7,-1
 40 183 l 1,4,-1
EndSplineSet
EndChar

StartChar: greater
Encoding: 62 62 33
Width: 481
GlyphClass: 2
Flags: W
LayerCount: 2
Fore
SplineSet
40 525 m 1,0,-1
 442 337 l 1,1,-1
 442 283 l 1,2,-1
 40 94 l 1,3,-1
 40 156 l 1,4,-1
 362 310 l 1,5,-1
 40 463 l 1,6,-1
 40 525 l 1,0,-1
EndSplineSet
EndChar

StartChar: question
Encoding: 63 63 34
Width: 461
GlyphClass: 2
Flags: W
LayerCount: 2
Fore
SplineSet
200 714 m 0,0,1
 307 714 307 714 365.5 668 c 128,-1,2
 424 622 424 622 424 540 c 0,3,4
 424 504 424 504 408 471 c 128,-1,5
 392 438 392 438 373 418 c 128,-1,6
 354 398 354 398 319 364.5 c 128,-1,7
 284 331 284 331 267.5 312.5 c 128,-1,8
 251 294 251 294 244.5 286 c 128,-1,9
 238 278 238 278 231 263 c 0,10,11
 218 237 218 237 238 203 c 1,12,-1
 230 197 l 1,13,14
 152 232 152 232 152 301 c 0,15,16
 152 346 152 346 184 382 c 0,17,18
 215 417 215 417 232 441 c 0,19,20
 264 487 264 487 264 546 c 128,-1,21
 264 605 264 605 237 638.5 c 128,-1,22
 210 672 210 672 168.5 672 c 128,-1,23
 127 672 127 672 102 655 c 0,24,25
 51 620 51 620 52 518 c 1,26,-1
 42 518 l 1,27,-1
 8 625 l 1,28,29
 31 666 31 666 81.5 690 c 128,-1,30
 132 714 132 714 200 714 c 0,0,1
259 11 m 128,-1,32
 238 -10 238 -10 208 -10 c 128,-1,33
 178 -10 178 -10 156.5 11 c 128,-1,34
 135 32 135 32 135 57 c 128,-1,35
 135 82 135 82 145 99 c 0,36,37
 166 135 166 135 208 135 c 0,38,39
 238 135 238 135 259 113.5 c 128,-1,40
 280 92 280 92 280 62 c 128,-1,31
 280 32 280 32 259 11 c 128,-1,32
EndSplineSet
EndChar

StartChar: at
Encoding: 64 64 35
Width: 989
GlyphClass: 2
Flags: W
LayerCount: 2
Fore
SplineSet
90 115 m 0,0,1
 36 168 36 168 36 260 c 0,2,3
 36 321 36 321 64 395 c 1,4,5
 128 548 128 548 284 630 c 1,6,7
 403 694 403 694 540 694 c 0,8,9
 766 694 766 694 874 562 c 0,10,11
 951 469 951 469 951 340 c 256,12,13
 951 211 951 211 892.5 108 c 128,-1,14
 834 5 834 5 737 -56 c 1,15,16
 630 -125 630 -125 493 -125 c 128,-1,17
 356 -125 356 -125 203 -63 c 1,18,-1
 199 -53 l 1,19,20
 309 -98 309 -98 406 -98 c 0,21,22
 534 -98 534 -98 634 -35 c 0,23,24
 718 18 718 18 770 110 c 0,25,26
 833 222 833 222 833 360 c 0,27,28
 833 466 833 466 787 539 c 0,29,30
 714 654 714 654 554 654 c 0,31,32
 416 654 416 654 303 555 c 0,33,34
 230 491 230 491 183.5 390.5 c 128,-1,35
 137 290 137 290 137 206 c 0,36,37
 137 163 137 163 153 138 c 0,38,39
 170 112 170 112 196 112 c 128,-1,40
 222 112 222 112 242.5 122.5 c 128,-1,41
 263 133 263 133 284.5 156 c 128,-1,42
 306 179 306 179 321 197.5 c 128,-1,43
 336 216 336 216 358 247.5 c 128,-1,44
 380 279 380 279 389 291 c 2,45,-1
 516 464 l 1,46,47
 563 521 563 521 571 541 c 1,48,-1
 578 541 l 1,49,-1
 645 137 l 2,50,51
 653 90 653 90 685 90 c 2,52,-1
 690 90 l 1,53,-1
 689 83 l 1,54,-1
 482 83 l 1,55,-1
 483 90 l 1,56,-1
 490 90 l 2,57,58
 505 90 505 90 519.5 102.5 c 128,-1,59
 534 115 534 115 532 133 c 2,60,-1
 524 207 l 1,61,-1
 377 207 l 1,62,63
 324 136 324 136 285 105 c 0,64,65
 244 73 244 73 189 73 c 128,-1,66
 134 73 134 73 90 115 c 0,0,1
504 386 m 1,67,-1
 399 237 l 1,68,-1
 521 237 l 1,69,-1
 504 386 l 1,67,-1
EndSplineSet
EndChar

StartChar: A
Encoding: 65 65 36
Width: 705
GlyphClass: 2
Flags: W
LayerCount: 2
Fore
SplineSet
965 -183 m 1,0,1
 856 -238 856 -238 744 -201 c 1,2,3
 625 -163 625 -163 539 -39 c 0,4,5
 493 27 493 27 460 114 c 2,6,-1
 428 199 l 1,7,-1
 192 199 l 1,8,-1
 139 73 l 2,9,10
 134 60 134 60 134 52 c 128,-1,11
 134 44 134 44 137.5 34.5 c 128,-1,12
 141 25 141 25 152.5 17.5 c 128,-1,13
 164 10 164 10 178 10 c 2,14,-1
 186 10 l 1,15,-1
 186 0 l 1,16,-1
 -28 0 l 1,17,-1
 -28 10 l 1,18,-1
 -19 10 l 2,19,20
 4 10 4 10 26.5 23.5 c 128,-1,21
 49 37 49 37 64 64 c 1,22,-1
 287 573 l 1,23,24
 248 661 248 661 204 694 c 0,25,26
 167 722 167 722 133.5 722 c 128,-1,27
 100 722 100 722 71 712 c 1,28,-1
 69 722 l 1,29,30
 141 759 141 759 207 759 c 0,31,32
 289 759 289 759 354 695 c 0,33,34
 418 632 418 632 467 513 c 2,35,-1
 612 155 l 2,36,37
 694 -48 694 -48 780 -124 c 0,38,39
 815 -155 815 -155 852 -167 c 128,-1,40
 889 -179 889 -179 914.5 -179 c 128,-1,41
 940 -179 940 -179 964 -173 c 1,42,-1
 965 -183 l 1,0,1
209 242 m 1,43,-1
 413 242 l 1,44,-1
 343 427 l 2,45,46
 338 441 338 441 329 465.5 c 128,-1,47
 320 490 320 490 317 500 c 1,48,-1
 209 242 l 1,43,-1
EndSplineSet
EndChar

StartChar: B
Encoding: 66 66 37
Width: 691
GlyphClass: 2
Flags: W
LayerCount: 2
Fore
SplineSet
565 528 m 0,0,1
 565 481 565 481 541.5 444 c 128,-1,2
 518 407 518 407 481 393 c 1,3,4
 597 387 597 387 650 302 c 0,5,6
 677 259 677 259 677 196 c 128,-1,7
 677 133 677 133 628.5 81 c 128,-1,8
 580 29 580 29 505 7 c 128,-1,9
 430 -15 430 -15 347 -15 c 0,10,11
 140 -15 140 -15 51 95 c 0,12,13
 -6 165 -6 165 -6 284 c 0,14,15
 -6 304 -6 304 -4 324 c 1,16,-1
 6 325 l 1,17,18
 13 153 13 153 129 79 c 1,19,-1
 129 628 l 1,20,21
 128 665 128 665 96 682 c 0,22,23
 82 690 82 690 65 690 c 2,24,-1
 52 690 l 1,25,-1
 52 700 l 1,26,-1
 306 700 l 2,27,28
 417 700 417 700 491 655.5 c 128,-1,29
 565 611 565 611 565 528 c 0,0,1
307 32 m 0,30,31
 400 32 400 32 452.5 81 c 128,-1,32
 505 130 505 130 505 210 c 0,33,34
 505 260 505 260 486.5 294.5 c 128,-1,35
 468 329 468 329 438 346 c 0,36,37
 383 379 383 379 313 379 c 1,38,-1
 313 388 l 1,39,40
 345 388 345 388 367 411 c 0,41,42
 405 451 405 451 405 520 c 128,-1,43
 405 589 405 589 374.5 622 c 128,-1,44
 344 655 344 655 279 657 c 1,45,-1
 279 33 l 1,46,47
 293 32 293 32 307 32 c 0,30,31
EndSplineSet
EndChar

StartChar: C
Encoding: 67 67 38
Width: 826
GlyphClass: 2
Flags: W
LayerCount: 2
Fore
SplineSet
808 391 m 1,0,1
 811 361 811 361 811 315.5 c 128,-1,2
 811 270 811 270 793 204.5 c 128,-1,3
 775 139 775 139 728 89 c 0,4,5
 632 -14 632 -14 464 -14 c 0,6,7
 260 -14 260 -14 142 86.5 c 128,-1,8
 24 187 24 187 24 349.5 c 128,-1,9
 24 512 24 512 143.5 613 c 128,-1,10
 263 714 263 714 459 714 c 0,11,12
 534 714 534 714 602 699 c 128,-1,13
 670 684 670 684 715 660 c 1,14,-1
 717 488 l 1,15,-1
 709 488 l 1,16,17
 692 552 692 552 652 595 c 0,18,19
 580 672 580 672 458 672 c 128,-1,20
 336 672 336 672 261.5 585 c 128,-1,21
 187 498 187 498 187 354.5 c 128,-1,22
 187 211 187 211 264.5 121 c 128,-1,23
 342 31 342 31 478 28 c 1,24,25
 625 28 625 28 712 122 c 128,-1,26
 799 216 799 216 799 377 c 0,27,28
 799 384 799 384 799 391 c 1,29,-1
 808 391 l 1,0,1
EndSplineSet
EndChar

StartChar: D
Encoding: 68 68 39
Width: 862
GlyphClass: 2
Flags: W
LayerCount: 2
Fore
SplineSet
206 701 m 0,0,1
 223 701 223 701 268 701 c 128,-1,2
 313 701 313 701 435 700 c 0,3,4
 612 698 612 698 715 604.5 c 128,-1,5
 818 511 818 511 818 349.5 c 128,-1,6
 818 188 818 188 715 94 c 128,-1,7
 612 0 612 0 435 0 c 2,8,-1
 72 0 l 1,9,-1
 72 10 l 1,10,-1
 85 10 l 2,11,12
 110 10 110 10 128.5 27.5 c 128,-1,13
 147 45 147 45 149 70 c 1,14,-1
 149 655 l 1,15,16
 37 647 37 647 -17 603 c 0,17,18
 -44 582 -44 582 -59.5 560 c 128,-1,19
 -75 538 -75 538 -90 507 c 1,20,-1
 -100 511 l 1,21,22
 -76 611 -76 611 0.5 655.5 c 128,-1,23
 77 700 77 700 206 701 c 0,0,1
423 42 m 1,24,25
 530 42 530 42 592.5 125 c 128,-1,26
 655 208 655 208 655 350 c 128,-1,27
 655 492 655 492 592.5 574 c 128,-1,28
 530 656 530 656 425 656 c 0,29,30
 424 656 424 656 423 656 c 2,31,-1
 299 656 l 1,32,-1
 299 42 l 1,33,-1
 423 42 l 1,34,35
 423 42 423 42 423 42 c 1,24,25
EndSplineSet
EndChar

StartChar: E
Encoding: 69 69 40
Width: 670
GlyphClass: 2
Flags: W
LayerCount: 2
Fore
SplineSet
55 10 m 2,0,1
 81 10 81 10 99.5 28.5 c 128,-1,2
 118 47 118 47 119 73 c 1,3,-1
 119 630 l 1,4,5
 116 665 116 665 86 682 c 0,6,7
 71 690 71 690 55 690 c 2,8,-1
 42 690 l 1,9,-1
 42 700 l 1,10,-1
 323 700 l 2,11,12
 367 700 367 700 400 707 c 128,-1,13
 433 714 433 714 443 718 c 1,14,-1
 443 543 l 1,15,-1
 432 543 l 1,16,-1
 432 555 l 1,17,18
 433 600 433 600 406.5 627.5 c 128,-1,19
 380 655 380 655 335 657 c 1,20,-1
 269 657 l 1,21,-1
 269 366 l 1,22,-1
 428 366 l 1,23,24
 465 367 465 367 489 391.5 c 128,-1,25
 513 416 513 416 513 452 c 2,26,-1
 513 461 l 1,27,-1
 522 461 l 1,28,-1
 522 230 l 1,29,-1
 513 230 l 1,30,-1
 513 238 l 2,31,32
 513 275 513 275 489 299 c 128,-1,33
 465 323 465 323 429 324 c 1,34,-1
 269 324 l 1,35,-1
 269 43 l 1,36,-1
 464 43 l 2,37,38
 537 43 537 43 586.5 85 c 128,-1,39
 636 127 636 127 660 204 c 1,40,-1
 670 204 l 1,41,-1
 623 0 l 1,42,-1
 42 0 l 1,43,-1
 42 10 l 1,44,-1
 55 10 l 2,0,1
EndSplineSet
EndChar

StartChar: F
Encoding: 70 70 41
Width: 657
GlyphClass: 2
Flags: W
LayerCount: 2
Fore
SplineSet
269 324 m 1,0,-1
 269 73 l 2,1,2
 269 47 269 47 288 28.5 c 128,-1,3
 307 10 307 10 333 10 c 2,4,-1
 345 10 l 1,5,-1
 346 0 l 1,6,-1
 42 0 l 1,7,-1
 42 10 l 1,8,-1
 55 10 l 2,9,10
 81 10 81 10 99.5 28.5 c 128,-1,11
 118 47 118 47 119 73 c 1,12,-1
 119 630 l 1,13,14
 117 655 117 655 98.5 672.5 c 128,-1,15
 80 690 80 690 55 690 c 2,16,-1
 42 690 l 1,17,-1
 42 700 l 1,18,-1
 425 700 l 2,19,20
 469 700 469 700 502 707 c 128,-1,21
 535 714 535 714 545 718 c 1,22,-1
 545 549 l 1,23,-1
 535 549 l 1,24,-1
 535 559 l 2,25,26
 535 619 535 619 490 644 c 0,27,28
 469 656 469 656 440 657 c 1,29,-1
 269 657 l 1,30,-1
 269 366 l 1,31,-1
 557 366 l 1,32,33
 594 367 594 367 618 391.5 c 128,-1,34
 642 416 642 416 642 452 c 2,35,-1
 642 461 l 1,36,-1
 652 461 l 1,37,-1
 652 230 l 1,38,-1
 642 230 l 1,39,-1
 642 238 l 2,40,41
 642 275 642 275 618.5 299 c 128,-1,42
 595 323 595 323 559 324 c 1,43,-1
 269 324 l 1,0,-1
EndSplineSet
EndChar

StartChar: G
Encoding: 71 71 42
Width: 861
GlyphClass: 2
Flags: W
LayerCount: 2
Fore
SplineSet
955 -198 m 0,0,1
 930 -198 930 -198 906 -194 c 0,2,3
 809 -179 809 -179 741 -120.5 c 128,-1,4
 673 -62 673 -62 643 25 c 1,5,6
 549 -14 549 -14 440 -14 c 0,7,8
 260 -14 260 -14 145 88 c 128,-1,9
 30 190 30 190 30 350 c 0,10,11
 30 457 30 457 82.5 540 c 128,-1,12
 135 623 135 623 230 668.5 c 128,-1,13
 325 714 325 714 447 714 c 0,14,15
 527 714 527 714 602 698.5 c 128,-1,16
 677 683 677 683 723 660 c 1,17,-1
 725 488 l 1,18,-1
 717 488 l 1,19,20
 693 579 693 579 624.5 625.5 c 128,-1,21
 556 672 556 672 460 672 c 0,22,23
 342 672 342 672 267.5 581.5 c 128,-1,24
 193 491 193 491 193 348.5 c 128,-1,25
 193 206 193 206 266 117 c 128,-1,26
 339 28 339 28 454 28 c 0,27,28
 516 28 516 28 561.5 55 c 128,-1,29
 607 82 607 82 623 127 c 1,30,-1
 623 279 l 2,31,32
 623 301 623 301 610 313 c 128,-1,33
 597 325 597 325 573 325 c 2,34,-1
 557 325 l 1,35,-1
 557 335 l 1,36,-1
 838 335 l 1,37,-1
 838 325 l 1,38,-1
 823 325 l 2,39,40
 798 325 798 325 785 313 c 128,-1,41
 772 301 772 301 773 280 c 1,42,-1
 773 121 l 1,43,44
 774 55 774 55 798 -2 c 0,45,46
 851 -124 851 -124 974 -154 c 0,47,48
 1007 -162 1007 -162 1042.5 -162 c 128,-1,49
 1078 -162 1078 -162 1115 -154 c 1,50,-1
 1117 -164 l 1,51,52
 1031 -198 1031 -198 955 -198 c 0,0,1
EndSplineSet
EndChar

StartChar: H
Encoding: 72 72 43
Width: 861
GlyphClass: 2
Flags: W
LayerCount: 2
Fore
SplineSet
523 10 m 2,0,1
 549 10 549 10 568 28 c 128,-1,2
 587 46 587 46 588 72 c 1,3,-1
 588 327 l 1,4,-1
 273 327 l 1,5,-1
 273 70 l 2,6,7
 273 -50 273 -50 212 -121 c 0,8,9
 164 -177 164 -177 74 -177 c 0,10,11
 45 -177 45 -177 11 -170 c 1,12,-1
 9 -160 l 1,13,14
 83 -129 83 -129 104 -68 c 1,15,16
 123 -16 123 -16 123 70 c 2,17,-1
 123 628 l 1,18,19
 122 654 122 654 103.5 672 c 128,-1,20
 85 690 85 690 59 690 c 2,21,-1
 46 690 l 1,22,-1
 46 700 l 1,23,-1
 350 700 l 1,24,-1
 350 690 l 1,25,-1
 337 690 l 2,26,27
 301 690 301 690 283 660 c 0,28,29
 274 646 274 646 273 628 c 1,30,-1
 273 370 l 1,31,-1
 588 370 l 1,32,-1
 588 610 l 2,33,34
 588 727 588 727 661 796 c 1,35,36
 719 853 719 853 807 853 c 0,37,38
 827 853 827 853 849 850 c 1,39,-1
 851 840 l 1,40,41
 778 814 778 814 756 748 c 0,42,43
 738 694 738 694 737 610 c 1,44,-1
 737 73 l 1,45,46
 738 37 738 37 769 19 c 0,47,48
 784 10 784 10 802 10 c 2,49,-1
 814 10 l 1,50,-1
 814 0 l 1,51,-1
 511 0 l 1,52,-1
 511 10 l 1,53,-1
 523 10 l 2,0,1
EndSplineSet
EndChar

StartChar: I
Encoding: 73 73 44
Width: 456
GlyphClass: 2
Flags: W
LayerCount: 2
Fore
SplineSet
403 10 m 2,0,-1
 416 10 l 1,1,-1
 416 0 l 1,2,-1
 112 0 l 1,3,-1
 112 10 l 1,4,-1
 125 10 l 2,5,6
 151 10 151 10 169.5 28.5 c 128,-1,7
 188 47 188 47 189 73 c 1,8,-1
 189 659 l 1,9,-1
 94 655 l 2,10,11
 0 651 0 651 0 585 c 0,12,13
 0 558 0 558 18.5 539.5 c 128,-1,14
 37 521 37 521 70 521 c 0,15,16
 73 521 73 521 76 521 c 1,17,-1
 76 515 l 1,18,19
 56 508 56 508 42 508 c 0,20,21
 -3 508 -3 508 -27 540 c 0,22,23
 -44 562 -44 562 -44 590 c 0,24,25
 -44 634 -44 634 -9.5 662.5 c 128,-1,26
 25 691 25 691 97 696 c 0,27,28
 110 697 110 697 181 700 c 0,29,30
 343 706 343 706 416 720 c 1,31,-1
 418 710 l 1,32,33
 375 703 375 703 357.5 681 c 128,-1,34
 340 659 340 659 339 616 c 1,35,-1
 339 73 l 1,36,37
 340 47 340 47 358.5 28.5 c 128,-1,38
 377 10 377 10 403 10 c 2,0,-1
EndSplineSet
EndChar

StartChar: J
Encoding: 74 74 45
Width: 390
GlyphClass: 2
Flags: W
LayerCount: 2
Fore
SplineSet
336 690 m 2,0,1
 300 690 300 690 281 659 c 0,2,3
 272 645 272 645 272 627 c 2,4,-1
 272 80 l 2,5,6
 272 -55 272 -55 203 -130 c 0,7,8
 140 -198 140 -198 55 -198 c 0,9,10
 -11 -198 -11 -198 -79 -161 c 1,11,-1
 -76 -151 l 1,12,13
 -57 -155 -57 -155 -40 -155 c 0,14,15
 1 -155 1 -155 33 -134 c 0,16,17
 122 -78 122 -78 122 83 c 2,18,-1
 122 627 l 1,19,20
 121 664 121 664 90 682 c 0,21,22
 75 690 75 690 58 690 c 2,23,-1
 45 690 l 1,24,-1
 45 700 l 1,25,-1
 349 700 l 1,26,-1
 349 690 l 1,27,-1
 336 690 l 2,0,1
EndSplineSet
EndChar

StartChar: K
Encoding: 75 75 46
Width: 761
GlyphClass: 2
Flags: W
LayerCount: 2
Fore
SplineSet
55 10 m 2,0,1
 81 10 81 10 99.5 28.5 c 128,-1,2
 118 47 118 47 119 73 c 1,3,-1
 119 628 l 1,4,5
 118 664 118 664 86 682 c 0,6,7
 72 690 72 690 55 690 c 2,8,-1
 42 690 l 1,9,-1
 42 700 l 1,10,-1
 346 700 l 1,11,-1
 345 690 l 1,12,-1
 333 690 l 2,13,14
 307 690 307 690 288 672 c 128,-1,15
 269 654 269 654 269 628 c 2,16,-1
 269 73 l 2,17,18
 269 47 269 47 288 28.5 c 128,-1,19
 307 10 307 10 333 10 c 2,20,-1
 345 10 l 1,21,-1
 346 0 l 1,22,-1
 42 0 l 1,23,-1
 42 10 l 1,24,-1
 55 10 l 2,0,1
1048 -170 m 1,25,26
 975 -208 975 -208 915 -208 c 128,-1,27
 855 -208 855 -208 807 -191 c 0,28,29
 688 -148 688 -148 564 6 c 2,30,-1
 301 330 l 1,31,-1
 538 644 l 2,32,33
 546 654 546 654 546 662 c 128,-1,34
 546 670 546 670 543 676 c 0,35,36
 535 691 535 691 515 691 c 2,37,-1
 505 691 l 1,38,-1
 505 700 l 1,39,-1
 734 700 l 1,40,-1
 734 691 l 1,41,-1
 730 691 l 2,42,43
 663 691 663 691 621 643 c 1,44,-1
 426 411 l 1,45,-1
 698 73 l 1,46,47
 789 -47 789 -47 869 -101 c 128,-1,48
 949 -155 949 -155 1047 -160 c 1,49,-1
 1048 -170 l 1,25,26
EndSplineSet
EndChar

StartChar: L
Encoding: 76 76 47
Width: 427
GlyphClass: 2
Flags: W
LayerCount: 2
Fore
SplineSet
854 -139 m 0,0,1
 958 -139 958 -139 1022 -98 c 1,2,-1
 1029 -106 l 1,3,4
 943 -225 943 -225 815 -238 c 0,5,6
 788 -241 788 -241 768.5 -241 c 128,-1,7
 749 -241 749 -241 723.5 -239.5 c 128,-1,8
 698 -238 698 -238 652 -226 c 128,-1,9
 606 -214 606 -214 571 -201.5 c 128,-1,10
 536 -189 536 -189 490 -168.5 c 128,-1,11
 444 -148 444 -148 414 -132.5 c 128,-1,12
 384 -117 384 -117 342.5 -95.5 c 128,-1,13
 301 -74 301 -74 270 -59 c 128,-1,14
 239 -44 239 -44 210 -33 c 0,15,16
 128 0 128 0 42 0 c 1,17,-1
 42 10 l 1,18,-1
 55 10 l 2,19,20
 81 10 81 10 99.5 28 c 128,-1,21
 118 46 118 46 119 73 c 1,22,-1
 119 627 l 1,23,24
 118 654 118 654 99.5 672 c 128,-1,25
 81 690 81 690 55 690 c 2,26,-1
 42 690 l 1,27,-1
 42 700 l 1,28,-1
 346 700 l 1,29,-1
 345 690 l 1,30,-1
 335 690 l 2,31,32
 297 690 297 690 278 659 c 0,33,34
 269 645 269 645 269 627 c 2,35,-1
 269 47 l 2,36,37
 269 14 269 14 282 1.5 c 128,-1,38
 295 -11 295 -11 311 -16 c 0,39,40
 687 -139 687 -139 854 -139 c 0,0,1
EndSplineSet
EndChar

StartChar: M
Encoding: 77 77 48
Width: 968
GlyphClass: 2
Flags: W
LayerCount: 2
Fore
SplineSet
-96 766 m 1,0,1
 -39 790 -39 790 3 790 c 128,-1,2
 45 790 45 790 77 782 c 128,-1,3
 109 774 109 774 142.5 755.5 c 128,-1,4
 176 737 176 737 205 710 c 0,5,6
 261 657 261 657 300 590 c 1,7,-1
 500 215 l 1,8,-1
 790 714 l 1,9,-1
 799 714 l 1,10,-1
 903 126 l 2,11,12
 927 -10 927 -10 986 -90 c 0,13,14
 1045 -171 1045 -171 1148 -171 c 0,15,16
 1155 -171 1155 -171 1161 -171 c 1,17,-1
 1161 -181 l 1,18,19
 1106 -196 1106 -196 1053 -196 c 0,20,21
 945 -196 945 -196 856 -111 c 0,22,23
 770 -30 770 -30 739 126 c 1,24,-1
 690 417 l 1,25,-1
 502 91 l 1,26,27
 464 28 464 28 463 -20 c 1,28,-1
 454 -20 l 1,29,-1
 205 452 l 1,30,-1
 156 52 l 2,31,32
 153 29 153 29 176 15 c 0,33,34
 185 9 185 9 195 9 c 2,35,-1
 211 9 l 1,36,-1
 211 0 l 1,37,-1
 2 0 l 1,38,-1
 2 10 l 1,39,-1
 18 10 l 2,40,41
 44 10 44 10 64.5 25.5 c 128,-1,42
 85 41 85 41 90 68 c 1,43,-1
 158 545 l 1,44,45
 113 625 113 625 55 687 c 0,46,47
 -10 757 -10 757 -81 757 c 0,48,49
 -88 757 -88 757 -94 756 c 1,50,-1
 -96 766 l 1,0,1
EndSplineSet
EndChar

StartChar: N
Encoding: 78 78 49
Width: 865
GlyphClass: 2
Flags: W
LayerCount: 2
Fore
SplineSet
971 -122.5 m 128,-1,1
 992 -131 992 -131 1011.5 -134.5 c 128,-1,2
 1031 -138 1031 -138 1054.5 -138 c 128,-1,3
 1078 -138 1078 -138 1103 -132 c 1,4,-1
 1107 -142 l 1,5,6
 1051 -169 1051 -169 994 -169 c 0,7,8
 863 -169 863 -169 727 -24 c 2,9,-1
 253 479 l 1,10,-1
 253 70 l 2,11,12
 253 45 253 45 271 27.5 c 128,-1,13
 289 10 289 10 314 10 c 2,14,-1
 333 10 l 1,15,-1
 333 0 l 1,16,-1
 30 0 l 1,17,-1
 30 10 l 1,18,-1
 48 10 l 2,19,20
 74 10 74 10 92 27.5 c 128,-1,21
 110 45 110 45 110 71 c 2,22,-1
 110 632 l 1,23,24
 61 688 61 688 36 710.5 c 128,-1,25
 11 733 11 733 -8.5 748 c 128,-1,26
 -28 763 -28 763 -46 773 c 0,27,28
 -88 797 -88 797 -113.5 801 c 128,-1,29
 -139 805 -139 805 -161.5 805 c 128,-1,30
 -184 805 -184 805 -210 796 c 1,31,-1
 -214 806 l 1,32,33
 -159 838 -159 838 -101 838 c 0,34,35
 25 838 25 838 166 688 c 2,36,-1
 613 213 l 1,37,-1
 613 629 l 1,38,39
 612 655 612 655 594 672.5 c 128,-1,40
 576 690 576 690 551 690 c 2,41,-1
 533 690 l 1,42,-1
 533 700 l 1,43,-1
 836 700 l 1,44,-1
 836 690 l 1,45,-1
 817 690 l 2,46,47
 792 690 792 690 774 672.5 c 128,-1,48
 756 655 756 655 755 630 c 1,49,-1
 755 61 l 1,50,-1
 771 45 l 2,51,52
 777 39 777 39 789.5 24.5 c 128,-1,53
 802 10 802 10 812 -0.5 c 128,-1,54
 822 -11 822 -11 837.5 -27 c 128,-1,55
 853 -43 853 -43 866.5 -55 c 128,-1,56
 880 -67 880 -67 898.5 -81 c 128,-1,57
 917 -95 917 -95 933.5 -104.5 c 128,-1,0
 950 -114 950 -114 971 -122.5 c 128,-1,1
EndSplineSet
EndChar

StartChar: O
Encoding: 79 79 50
Width: 930
GlyphClass: 2
Flags: W
LayerCount: 2
Fore
SplineSet
332 447 m 1,0,1
 314 485 314 485 314 519.5 c 128,-1,2
 314 554 314 554 323 583.5 c 128,-1,3
 332 613 332 613 353 641.5 c 128,-1,4
 374 670 374 670 412 689 c 0,5,6
 464 716 464 716 537 716 c 0,7,8
 633 716 633 716 719 667 c 0,9,10
 832 603 832 603 876 490 c 0,11,12
 901 428 901 428 901 357 c 0,13,14
 901 190 901 190 780.5 88 c 128,-1,15
 660 -14 660 -14 466.5 -14 c 128,-1,16
 273 -14 273 -14 151.5 88 c 128,-1,17
 30 190 30 190 30 356 c 0,18,19
 30 480 30 480 100.5 571.5 c 128,-1,20
 171 663 171 663 291 696 c 1,21,-1
 297 687 l 1,22,23
 246 644 246 644 220 561 c 128,-1,24
 194 478 194 478 194 382 c 0,25,26
 194 220 194 220 269 124 c 128,-1,27
 344 28 344 28 465.5 28 c 128,-1,28
 587 28 587 28 661.5 118.5 c 128,-1,29
 736 209 736 209 736 358 c 0,30,31
 736 448 736 448 708.5 520.5 c 128,-1,32
 681 593 681 593 629 632.5 c 128,-1,33
 577 672 577 672 513 672 c 0,34,35
 442 672 442 672 398 635 c 0,36,37
 336 582 336 582 336 500 c 0,38,39
 336 474 336 474 343 447 c 1,40,-1
 332 447 l 1,0,1
EndSplineSet
EndChar

StartChar: P
Encoding: 80 80 51
Width: 705
GlyphClass: 2
Flags: W
LayerCount: 2
Fore
SplineSet
318 380 m 1,0,1
 335 340 335 340 388 340 c 0,2,3
 448 340 448 340 484 400 c 0,4,5
 509 441 509 441 509 504 c 0,6,7
 509 597 509 597 460 640 c 0,8,9
 423 672 423 672 366 672 c 0,10,11
 353 672 353 672 339 670 c 2,12,-1
 272 660 l 1,13,-1
 272 73 l 2,14,15
 272 46 272 46 291 28 c 128,-1,16
 310 10 310 10 336 10 c 2,17,-1
 349 10 l 1,18,-1
 349 0 l 1,19,-1
 45 0 l 1,20,-1
 45 10 l 1,21,-1
 58 10 l 2,22,23
 84 10 84 10 102.5 28 c 128,-1,24
 121 46 121 46 122 73 c 1,25,-1
 122 606 l 1,26,27
 121 632 121 632 106.5 647 c 128,-1,28
 92 662 92 662 64 662 c 0,29,30
 57 662 57 662 46 661 c 1,31,-1
 44 670 l 1,32,33
 129 677 129 677 222.5 693.5 c 128,-1,34
 316 710 316 710 345.5 714 c 128,-1,35
 375 718 375 718 405.5 718 c 128,-1,36
 436 718 436 718 479 711.5 c 128,-1,37
 522 705 522 705 567 682.5 c 128,-1,38
 612 660 612 660 640 616 c 1,39,40
 669 568 669 568 669 507.5 c 128,-1,41
 669 447 669 447 647 401 c 0,42,43
 605 313 605 313 503 289 c 0,44,45
 478 283 478 283 455.5 283 c 128,-1,46
 433 283 433 283 413 287 c 1,47,48
 372 293 372 293 344 315 c 128,-1,49
 316 337 316 337 309 376 c 1,50,-1
 318 380 l 1,0,1
EndSplineSet
EndChar

StartChar: Q
Encoding: 81 81 52
Width: 925
GlyphClass: 2
Flags: W
LayerCount: 2
Fore
SplineSet
1480 -202 m 0,0,1
 1377 -272 1377 -272 1217 -272 c 0,2,3
 1047 -272 1047 -272 877 -207 c 0,4,5
 827 -188 827 -188 730 -146 c 0,6,7
 474 -34 474 -34 411 -14 c 1,8,-1
 411 -4 l 1,9,-1
 413 -4 l 2,10,11
 414 -4 414 -4 415 -4 c 0,12,13
 534 -4 534 -4 624 71 c 0,14,15
 669 109 669 109 698 173 c 0,16,17
 731 246 731 246 731 338 c 0,18,19
 731 467 731 467 666 563 c 0,20,21
 632 612 632 612 580 643 c 0,22,23
 523 677 523 677 451 677 c 0,24,25
 339 677 339 677 261 591.5 c 128,-1,26
 183 506 183 506 183 351 c 0,27,28
 183 244 183 244 226 171 c 0,29,30
 277 85 277 85 376 85 c 0,31,32
 397 85 397 85 424.5 91.5 c 128,-1,33
 452 98 452 98 481.5 128 c 128,-1,34
 511 158 511 158 519 206 c 1,35,-1
 530 205 l 1,36,37
 529 121 529 121 481 83 c 0,38,39
 432 45 432 45 370 45 c 0,40,41
 338 45 338 45 301 50 c 1,42,43
 178 71 178 71 100.5 155 c 128,-1,44
 23 239 23 239 23 359 c 0,45,46
 23 435 23 435 54 502 c 0,47,48
 119 639 119 639 282 693 c 0,49,50
 361 719 361 719 454 719 c 0,51,52
 649 719 649 719 770 615 c 128,-1,53
 891 511 891 511 891 353 c 0,54,55
 891 275 891 275 861.5 208 c 128,-1,56
 832 141 832 141 783 96 c 0,57,58
 683 2 683 2 549 -18 c 1,59,60
 637 -31 637 -31 776.5 -61.5 c 128,-1,61
 916 -92 916 -92 971 -104 c 0,62,63
 1191 -151 1191 -151 1330 -151 c 0,64,65
 1347 -151 1347 -151 1384 -149 c 128,-1,66
 1421 -147 1421 -147 1475.5 -131 c 128,-1,67
 1530 -115 1530 -115 1564 -84 c 1,68,-1
 1570 -88 l 1,69,70
 1547 -157 1547 -157 1480 -202 c 0,0,1
EndSplineSet
EndChar

StartChar: R
Encoding: 82 82 53
Width: 731
GlyphClass: 2
Flags: W
LayerCount: 2
Fore
SplineSet
1085 -170 m 1,0,1
 1007 -209 1007 -209 919 -209 c 0,2,3
 841 -209 841 -209 777 -185 c 0,4,5
 639 -134 639 -134 542 14 c 1,6,7
 517 50 517 50 449 152 c 128,-1,8
 381 254 381 254 361 282 c 1,9,10
 326 337 326 337 305 342 c 1,11,-1
 305 352 l 1,12,13
 306 352 306 352 307.5 352 c 128,-1,14
 309 352 309 352 311 352 c 128,-1,15
 313 352 313 352 315 352 c 128,-1,16
 317 352 317 352 320 352 c 128,-1,17
 323 352 323 352 325 352 c 0,18,19
 376 352 376 352 419 375 c 0,20,21
 484 411 484 411 484 508 c 0,22,23
 484 579 484 579 444 617.5 c 128,-1,24
 404 656 404 656 348 656 c 2,25,-1
 272 656 l 1,26,-1
 272 73 l 2,27,28
 272 47 272 47 291 28.5 c 128,-1,29
 310 10 310 10 336 10 c 2,30,-1
 349 10 l 1,31,-1
 349 0 l 1,32,-1
 45 0 l 1,33,-1
 45 10 l 1,34,-1
 58 10 l 2,35,36
 83 10 83 10 102 28 c 128,-1,37
 121 46 121 46 122 72 c 1,38,-1
 122 627 l 1,39,40
 121 653 121 653 102.5 671.5 c 128,-1,41
 84 690 84 690 58 690 c 2,42,-1
 45 690 l 1,43,-1
 45 700 l 1,44,-1
 388 700 l 2,45,46
 517 700 517 700 588 641 c 0,47,48
 644 595 644 595 644 511 c 128,-1,49
 644 427 644 427 589.5 374.5 c 128,-1,50
 535 322 535 322 465 322 c 0,51,52
 459 322 459 322 452 323 c 1,53,54
 493 301 493 301 520.5 274 c 128,-1,55
 548 247 548 247 568.5 223 c 128,-1,56
 589 199 589 199 603.5 180.5 c 128,-1,57
 618 162 618 162 642 131.5 c 128,-1,58
 666 101 666 101 692 68 c 128,-1,59
 718 35 718 35 749.5 0.5 c 128,-1,60
 781 -34 781 -34 819.5 -65 c 128,-1,61
 858 -96 858 -96 898 -116 c 0,62,63
 983 -159 983 -159 1085 -160 c 1,64,-1
 1085 -170 l 1,0,1
EndSplineSet
EndChar

StartChar: S
Encoding: 83 83 54
Width: 623
GlyphClass: 2
Flags: W
LayerCount: 2
Fore
SplineSet
94 284 m 1,0,1
 54 220 54 220 54 153 c 0,2,3
 54 80 54 80 107 20 c 0,4,5
 136 -14 136 -14 180.5 -33 c 128,-1,6
 225 -52 225 -52 278 -52 c 128,-1,7
 331 -52 331 -52 373 -32 c 0,8,9
 457 9 457 9 457 102 c 0,10,11
 457 137 457 137 433.5 176 c 128,-1,12
 410 215 410 215 363 246 c 2,13,-1
 193 360 l 1,14,15
 94 422 94 422 94 520 c 0,16,17
 94 530 94 530 95 540 c 0,18,19
 101 617 101 617 156.5 665.5 c 128,-1,20
 212 714 212 714 305 714 c 0,21,22
 362 714 362 714 443 704 c 1,23,-1
 505 704 l 1,24,-1
 492 557 l 1,25,-1
 483 557 l 1,26,27
 482 609 482 609 443 640.5 c 128,-1,28
 404 672 404 672 340 672 c 0,29,30
 262 672 262 672 227 625 c 0,31,32
 210 601 210 601 210 573 c 128,-1,33
 210 545 210 545 227 525.5 c 128,-1,34
 244 506 244 506 281 483 c 2,35,-1
 468 361 l 2,36,37
 525 324 525 324 557 274 c 0,38,39
 595 215 595 215 595 153 c 0,40,41
 595 113 595 113 578.5 68.5 c 128,-1,42
 562 24 562 24 524.5 -14 c 128,-1,43
 487 -52 487 -52 428 -76 c 128,-1,44
 369 -100 369 -100 297.5 -100 c 128,-1,45
 226 -100 226 -100 168 -75 c 0,46,47
 61 -30 61 -30 32 82 c 0,48,49
 26 106 26 106 26 132 c 0,50,51
 26 216 26 216 85 291 c 1,52,-1
 94 284 l 1,0,1
EndSplineSet
EndChar

StartChar: T
Encoding: 84 84 55
Width: 698
GlyphClass: 2
Flags: W
LayerCount: 2
Fore
SplineSet
-26 467 m 1,0,1
 -75 514 -75 514 -75 568 c 0,2,3
 -75 610 -75 610 -48 641 c 0,4,5
 3 701 3 701 95 701 c 2,6,-1
 566 701 l 1,7,8
 610 702 610 702 643 708.5 c 128,-1,9
 676 715 676 715 685 719 c 1,10,-1
 685 545 l 1,11,-1
 675 545 l 1,12,-1
 675 557 l 2,13,14
 675 602 675 602 648 630 c 128,-1,15
 621 658 621 658 575 659 c 1,16,-1
 440 659 l 1,17,-1
 440 72 l 1,18,19
 442 36 442 36 473 18 c 0,20,21
 487 10 487 10 504 10 c 2,22,-1
 517 10 l 1,23,-1
 517 0 l 1,24,-1
 213 0 l 1,25,-1
 213 10 l 1,26,-1
 226 10 l 2,27,28
 252 10 252 10 270.5 28 c 128,-1,29
 289 46 289 46 290 71 c 1,30,-1
 290 659 l 1,31,-1
 95 659 l 2,32,33
 54 659 54 659 23 644 c 0,34,35
 -40 614 -40 614 -40 550 c 0,36,37
 -40 512 -40 512 -16 472 c 1,38,-1
 -26 467 l 1,0,1
EndSplineSet
EndChar

StartChar: U
Encoding: 85 85 56
Width: 824
GlyphClass: 2
Flags: W
LayerCount: 2
Fore
SplineSet
910 903 m 0,0,1
 923 903 923 903 937 902 c 1,2,-1
 937 892 l 1,3,4
 819 883 819 883 767 780 c 0,5,6
 733 713 733 713 733 610 c 2,7,-1
 733 253 l 1,8,9
 731 127 731 127 652 56.5 c 128,-1,10
 573 -14 573 -14 426.5 -14 c 128,-1,11
 280 -14 280 -14 193 58.5 c 128,-1,12
 106 131 106 131 107 252 c 1,13,-1
 107 641 l 2,14,15
 107 662 107 662 91.5 676 c 128,-1,16
 76 690 76 690 54 690 c 2,17,-1
 38 690 l 1,18,-1
 38 700 l 1,19,-1
 326 700 l 1,20,-1
 326 690 l 1,21,-1
 310 690 l 2,22,23
 279 690 279 690 264 666 c 0,24,25
 257 655 257 655 257 642 c 2,26,-1
 257 260 l 2,27,28
 257 154 257 154 312 92 c 128,-1,29
 367 30 367 30 457 30 c 0,30,31
 458 30 458 30 458 30 c 129,-1,32
 458 30 458 30 459 30 c 0,33,34
 548 30 548 30 605 88 c 128,-1,35
 662 146 662 146 662 247 c 2,36,-1
 662 610 l 2,37,38
 662 745 662 745 733.5 824 c 128,-1,39
 805 903 805 903 910 903 c 0,0,1
EndSplineSet
EndChar

StartChar: V
Encoding: 86 86 57
Width: 719
GlyphClass: 2
Flags: W
LayerCount: 2
Fore
SplineSet
925 948 m 0,0,1
 950 948 950 948 967 946 c 1,2,-1
 967 936 l 1,3,4
 905 933 905 933 860 906 c 0,5,6
 809 875 809 875 787.5 848.5 c 128,-1,7
 766 822 766 822 753.5 805.5 c 128,-1,8
 741 789 741 789 729 766 c 0,9,10
 710 731 710 731 694 697 c 2,11,-1
 426 111 l 2,12,13
 380 12 380 12 377 -20 c 1,14,-1
 368 -20 l 1,15,-1
 65 633 l 1,16,17
 50 661 50 661 27 675.5 c 128,-1,18
 4 690 4 690 -20 690 c 2,19,-1
 -28 690 l 1,20,-1
 -28 700 l 1,21,-1
 290 700 l 1,22,-1
 290 690 l 1,23,-1
 282 690 l 2,24,25
 260 690 260 690 249.5 676.5 c 128,-1,26
 239 663 239 663 239 651 c 128,-1,27
 239 639 239 639 243 627 c 2,28,-1
 413 214 l 1,29,-1
 620 697 l 2,30,31
 667 808 667 808 730 864 c 0,32,33
 823 948 823 948 925 948 c 0,0,1
EndSplineSet
EndChar

StartChar: W
Encoding: 87 87 58
Width: 960
GlyphClass: 2
Flags: W
LayerCount: 2
Fore
SplineSet
1079 934 m 0,0,1
 1125 946 1125 946 1154 946 c 128,-1,2
 1183 946 1183 946 1200 944 c 1,3,-1
 1200 934 l 1,4,5
 1069 927 1069 927 990 814 c 0,6,7
 949 756 949 756 924 679 c 2,8,-1
 736 93 l 2,9,10
 719 38 719 38 719 -9 c 0,11,12
 719 -14 719 -14 719 -18 c 1,13,-1
 709 -18 l 1,14,-1
 492 464 l 1,15,-1
 314 41 l 2,16,17
 287 -25 287 -25 235 -87 c 0,18,19
 179 -153 179 -153 99 -174 c 0,20,21
 80 -180 80 -180 59 -180 c 128,-1,22
 38 -180 38 -180 14 -173 c 1,23,-1
 15 -163 l 1,24,25
 52 -161 52 -161 86.5 -143 c 128,-1,26
 121 -125 121 -125 147 -99.5 c 128,-1,27
 173 -74 173 -74 197 -40 c 0,28,29
 236 15 236 15 263 80 c 1,30,-1
 60 632 l 1,31,32
 47 661 47 661 23 675.5 c 128,-1,33
 -1 690 -1 690 -26 690 c 2,34,-1
 -34 690 l 1,35,-1
 -34 700 l 1,36,-1
 271 700 l 1,37,-1
 271 690 l 1,38,-1
 262 690 l 2,39,40
 241 690 241 690 230.5 676.5 c 128,-1,41
 220 663 220 663 220 651 c 128,-1,42
 220 639 220 639 224 628 c 2,43,-1
 347 281 l 1,44,-1
 528 716 l 1,45,-1
 537 715 l 1,46,-1
 736 276 l 1,47,-1
 851 679 l 2,48,49
 876 766 876 766 930 833 c 0,50,51
 993 912 993 912 1079 934 c 0,0,1
EndSplineSet
EndChar

StartChar: X
Encoding: 88 88 59
Width: 729
GlyphClass: 2
Flags: W
LayerCount: 2
Fore
SplineSet
742 10 m 2,0,-1
 756 10 l 1,1,-1
 756 0 l 1,2,-1
 415 0 l 1,3,-1
 415 10 l 1,4,-1
 428 10 l 2,5,6
 449 10 449 10 462 30 c 0,7,8
 468 41 468 41 468 51 c 128,-1,9
 468 61 468 61 462 71 c 2,10,-1
 323 288 l 1,11,-1
 129 12 l 1,12,13
 11 -154 11 -154 -130 -154 c 0,14,15
 -151 -154 -151 -154 -173 -150 c 1,16,-1
 -173 -140 l 1,17,18
 -85 -132 -85 -132 -22 -65 c 0,19,20
 8 -33 8 -33 50 24 c 2,21,-1
 284 348 l 1,22,-1
 101 631 l 2,23,24
 78 666 78 666 40 682 c 0,25,26
 20 690 20 690 0 690 c 2,27,-1
 -14 690 l 1,28,-1
 -14 700 l 1,29,-1
 326 700 l 1,30,-1
 326 690 l 1,31,-1
 313 690 l 2,32,33
 292 690 292 690 279 670 c 0,34,35
 273 659 273 659 273 648.5 c 128,-1,36
 273 638 273 638 278 629 c 2,37,-1
 401 440 l 1,38,-1
 575 696 l 2,39,40
 689 863 689 863 831 863 c 0,41,42
 843 863 843 863 856 862 c 1,43,-1
 856 852 l 1,44,45
 774 850 774 850 692 739 c 0,46,47
 680 724 680 724 668.5 707 c 128,-1,48
 657 690 657 690 654 687 c 2,49,-1
 441 378 l 1,50,-1
 641 68 l 2,51,52
 658 43 658 43 685.5 26.5 c 128,-1,53
 713 10 713 10 742 10 c 2,0,-1
EndSplineSet
EndChar

StartChar: Y
Encoding: 89 89 60
Width: 667
GlyphClass: 2
Flags: W
LayerCount: 2
Fore
SplineSet
-67 758 m 1,0,1
 -51 759 -51 759 -16.5 759 c 128,-1,2
 18 759 18 759 74.5 744.5 c 128,-1,3
 131 730 131 730 179 699 c 128,-1,4
 227 668 227 668 267 624 c 0,5,6
 341 542 341 542 383 427 c 1,7,8
 443 598 443 598 539 689 c 0,9,10
 612 758 612 758 700 758 c 0,11,12
 704 758 704 758 708 758 c 1,13,-1
 708 748 l 1,14,15
 658 747 658 747 604.5 695.5 c 128,-1,16
 551 644 551 644 511 571 c 128,-1,17
 471 498 471 498 443.5 419 c 128,-1,18
 416 340 416 340 411 282 c 1,19,-1
 411 73 l 2,20,21
 411 48 411 48 429.5 29 c 128,-1,22
 448 10 448 10 475 10 c 2,23,-1
 488 10 l 1,24,-1
 488 0 l 1,25,-1
 184 0 l 1,26,-1
 184 10 l 1,27,-1
 197 10 l 2,28,29
 223 10 223 10 241.5 28.5 c 128,-1,30
 260 47 260 47 261 73 c 1,31,-1
 261 283 l 1,32,33
 249 391 249 391 189 512 c 0,34,35
 120 652 120 652 34 711 c 0,36,37
 -16 746 -16 746 -67 748 c 1,38,-1
 -67 758 l 1,0,1
EndSplineSet
EndChar

StartChar: Z
Encoding: 90 90 61
Width: 649
GlyphClass: 2
Flags: W
LayerCount: 2
Fore
SplineSet
969.5 -187 m 128,-1,1
 922 -215 922 -215 879 -223 c 128,-1,2
 836 -231 836 -231 809 -231 c 128,-1,3
 782 -231 782 -231 747.5 -229 c 128,-1,4
 713 -227 713 -227 659 -212.5 c 128,-1,5
 605 -198 605 -198 547 -178 c 128,-1,6
 489 -158 489 -158 436 -134 c 128,-1,7
 383 -110 383 -110 328 -86.5 c 128,-1,8
 273 -63 273 -63 226 -44 c 0,9,10
 122 -1 122 -1 52 0 c 1,11,-1
 45 0 l 1,12,-1
 45 9 l 1,13,-1
 412 659 l 1,14,-1
 170 659 l 1,15,16
 124 658 124 658 96.5 630.5 c 128,-1,17
 69 603 69 603 69 557 c 2,18,-1
 69 545 l 1,19,-1
 59 545 l 1,20,-1
 59 719 l 1,21,22
 74 713 74 713 111.5 707 c 128,-1,23
 149 701 149 701 164.5 701 c 128,-1,24
 180 701 180 701 180 701 c 1,25,-1
 499 701 l 2,26,27
 541 701 541 701 570 706 c 128,-1,28
 599 711 599 711 604 714 c 1,29,-1
 604 705 l 1,30,-1
 214 8 l 1,31,-1
 244 1 l 1,32,33
 279 -9 279 -9 351.5 -28 c 128,-1,34
 424 -47 424 -47 455.5 -55.5 c 128,-1,35
 487 -64 487 -64 547.5 -79 c 128,-1,36
 608 -94 608 -94 637.5 -100 c 128,-1,37
 667 -106 667 -106 717.5 -116 c 128,-1,38
 768 -126 768 -126 796 -128 c 0,39,40
 874 -133 874 -133 895.5 -133 c 128,-1,41
 917 -133 917 -133 938 -131 c 0,42,43
 1004 -123 1004 -123 1049 -105 c 1,44,-1
 1056 -112 l 1,45,0
 1017 -159 1017 -159 969.5 -187 c 128,-1,1
EndSplineSet
EndChar

StartChar: bracketleft
Encoding: 91 91 62
Width: 417
GlyphClass: 2
Flags: W
LayerCount: 2
Fore
SplineSet
120 -90 m 1,0,-1
 120 722 l 1,1,-1
 374 722 l 1,2,-1
 374 712 l 1,3,-1
 270 674 l 1,4,-1
 270 -42 l 1,5,-1
 377 -80 l 1,6,-1
 377 -90 l 1,7,-1
 120 -90 l 1,0,-1
EndSplineSet
EndChar

StartChar: backslash
Encoding: 92 92 63
Width: 426
GlyphClass: 2
Flags: W
LayerCount: 2
Fore
SplineSet
9 696 m 1,0,-1
 57 719 l 1,1,-1
 417 11 l 1,2,-1
 370 -14 l 1,3,-1
 9 696 l 1,0,-1
EndSplineSet
EndChar

StartChar: bracketright
Encoding: 93 93 64
Width: 350
GlyphClass: 2
Flags: W
LayerCount: 2
Fore
SplineSet
43 722 m 1,0,-1
 297 722 l 1,1,-1
 297 -90 l 1,2,-1
 40 -90 l 1,3,-1
 40 -80 l 1,4,-1
 147 -42 l 1,5,-1
 147 674 l 1,6,-1
 43 712 l 1,7,-1
 43 722 l 1,0,-1
EndSplineSet
EndChar

StartChar: asciicircum
Encoding: 94 94 65
Width: 552
GlyphClass: 2
Flags: W
LayerCount: 2
Fore
SplineSet
245 377 m 1,0,-1
 310 377 l 1,1,-1
 518 176 l 1,2,-1
 440 176 l 1,3,-1
 278 329 l 1,4,-1
 114 176 l 1,5,-1
 35 176 l 1,6,-1
 245 377 l 1,0,-1
EndSplineSet
EndChar

StartChar: underscore
Encoding: 95 95 66
Width: 500
GlyphClass: 2
Flags: W
LayerCount: 2
Fore
SplineSet
0 -102 m 1,0,-1
 0 -60 l 1,1,-1
 500 -60 l 1,2,-1
 500 -102 l 1,3,-1
 0 -102 l 1,0,-1
EndSplineSet
EndChar

StartChar: grave
Encoding: 96 96 67
Width: 536
GlyphClass: 2
Flags: W
LayerCount: 2
Fore
SplineSet
272 751 m 1,0,-1
 265 744 l 1,1,2
 165 768 165 768 61 834 c 1,3,4
 80 891 80 891 129 915 c 1,5,6
 230 824 230 824 272 751 c 1,0,-1
EndSplineSet
EndChar

StartChar: a
Encoding: 97 97 68
Width: 716
GlyphClass: 2
Flags: W
LayerCount: 2
Fore
SplineSet
737 10 m 2,0,-1
 746 10 l 1,1,-1
 746 0 l 1,2,-1
 427 0 l 1,3,-1
 427 10 l 1,4,-1
 436 10 l 2,5,6
 458 10 458 10 468.5 23.5 c 128,-1,7
 479 37 479 37 479 49 c 128,-1,8
 479 61 479 61 474 73 c 2,9,-1
 425 196 l 1,10,-1
 191 196 l 1,11,-1
 139 73 l 2,12,13
 134 60 134 60 134 48.5 c 128,-1,14
 134 37 134 37 144.5 23.5 c 128,-1,15
 155 10 155 10 178 10 c 2,16,-1
 186 10 l 1,17,-1
 186 0 l 1,18,-1
 -28 0 l 1,19,-1
 -28 10 l 1,20,-1
 -19 10 l 2,21,22
 4 10 4 10 27 24 c 128,-1,23
 50 38 50 38 65 66 c 1,24,-1
 296 589 l 1,25,26
 343 688 343 688 346 720 c 1,27,-1
 355 720 l 1,28,-1
 652 68 l 1,29,30
 667 39 667 39 690 24.5 c 128,-1,31
 713 10 713 10 737 10 c 2,0,-1
208 238 m 1,32,-1
 408 238 l 1,33,-1
 311 484 l 1,34,-1
 208 238 l 1,32,-1
EndSplineSet
EndChar

StartChar: b
Encoding: 98 98 69
Width: 673
GlyphClass: 2
Flags: W
LayerCount: 2
Fore
SplineSet
359 0 m 2,0,-1
 42 0 l 1,1,-1
 42 10 l 1,2,-1
 55 10 l 2,3,4
 81 10 81 10 99.5 28 c 128,-1,5
 118 46 118 46 119 72 c 1,6,-1
 119 628 l 1,7,8
 118 654 118 654 99.5 672 c 128,-1,9
 81 690 81 690 55 690 c 2,10,-1
 42 690 l 1,11,-1
 42 700 l 1,12,-1
 332 700 l 2,13,14
 448 700 448 700 516.5 658 c 128,-1,15
 585 616 585 616 586 529 c 1,16,17
 585 485 585 485 567 452 c 0,18,19
 534 390 534 390 463 381 c 1,20,21
 540 374 540 374 590 323.5 c 128,-1,22
 640 273 640 273 640 195 c 0,23,24
 640 101 640 101 564.5 50.5 c 128,-1,25
 489 0 489 0 359 0 c 2,0,-1
426 516 m 1,26,27
 425 657 425 657 298 657 c 2,28,-1
 269 657 l 1,29,-1
 269 46 l 1,30,-1
 315 46 l 2,31,32
 316 46 316 46 317 46 c 0,33,34
 386 46 386 46 427 86 c 128,-1,35
 468 126 468 126 468 207 c 0,36,37
 468 264 468 264 445 301 c 0,38,39
 402 370 402 370 303 370 c 1,40,41
 303 370 303 370 303 370 c 1,42,-1
 303 379 l 1,43,44
 303 379 303 379 303 379 c 1,45,46
 355 379 355 379 390 412.5 c 128,-1,47
 425 446 425 446 426 516 c 1,26,27
EndSplineSet
EndChar

StartChar: c
Encoding: 99 99 70
Width: 780
GlyphClass: 2
Flags: W
LayerCount: 2
Fore
SplineSet
155 84 m 128,-1,1
 45 181 45 181 45 350 c 128,-1,2
 45 519 45 519 154 616.5 c 128,-1,3
 263 714 263 714 453 714 c 0,4,5
 598 714 598 714 702 660 c 1,6,-1
 704 488 l 1,7,-1
 696 488 l 1,8,9
 645 672 645 672 463 672 c 0,10,11
 345 672 345 672 276.5 586.5 c 128,-1,12
 208 501 208 501 208 353 c 128,-1,13
 208 205 208 205 273.5 118 c 128,-1,14
 339 31 339 31 451 28 c 1,15,16
 567 28 567 28 628 86 c 0,17,18
 690 146 690 146 714 292 c 1,19,-1
 722 292 l 1,20,-1
 732 120 l 1,21,22
 651 -14 651 -14 458 -13.5 c 128,-1,0
 265 -13 265 -13 155 84 c 128,-1,1
EndSplineSet
EndChar

StartChar: d
Encoding: 100 100 71
Width: 828
GlyphClass: 2
Flags: W
LayerCount: 2
Fore
SplineSet
685 606 m 128,-1,1
 788 512 788 512 788 350 c 128,-1,2
 788 188 788 188 685 94 c 128,-1,3
 582 0 582 0 405 0 c 2,4,-1
 42 0 l 1,5,-1
 42 10 l 1,6,-1
 55 10 l 2,7,8
 81 10 81 10 99.5 28.5 c 128,-1,9
 118 47 118 47 119 73 c 1,10,-1
 119 633 l 1,11,12
 116 657 116 657 98 673.5 c 128,-1,13
 80 690 80 690 55 690 c 2,14,-1
 42 690 l 1,15,-1
 42 700 l 1,16,-1
 405 700 l 2,17,0
 582 700 582 700 685 606 c 128,-1,1
392 42 m 2,18,19
 464 42 464 42 516.5 79.5 c 128,-1,20
 569 117 569 117 597 186.5 c 128,-1,21
 625 256 625 256 625 350 c 0,22,23
 625 492 625 492 562.5 575 c 128,-1,24
 500 658 500 658 392 658 c 2,25,-1
 269 658 l 1,26,-1
 269 42 l 1,27,-1
 392 42 l 2,18,19
EndSplineSet
EndChar

StartChar: e
Encoding: 101 101 72
Width: 631
GlyphClass: 2
Flags: W
LayerCount: 2
Fore
SplineSet
55 10 m 2,0,1
 81 10 81 10 99.5 28.5 c 128,-1,2
 118 47 118 47 119 73 c 1,3,-1
 119 630 l 1,4,5
 116 665 116 665 86 682 c 0,6,7
 71 690 71 690 55 690 c 2,8,-1
 42 690 l 1,9,-1
 42 700 l 1,10,-1
 425 700 l 2,11,12
 456 700 456 700 493 706 c 128,-1,13
 530 712 530 712 545 718 c 1,14,-1
 545 543 l 1,15,-1
 535 543 l 1,16,-1
 535 555 l 2,17,18
 535 600 535 600 508.5 627.5 c 128,-1,19
 482 655 482 655 437 657 c 1,20,-1
 269 657 l 1,21,-1
 269 366 l 1,22,-1
 401 366 l 1,23,24
 438 367 438 367 462 391.5 c 128,-1,25
 486 416 486 416 486 452 c 2,26,-1
 486 461 l 1,27,-1
 496 461 l 1,28,-1
 496 230 l 1,29,-1
 486 230 l 1,30,-1
 486 238 l 2,31,32
 486 288 486 288 446 312 c 0,33,34
 426 323 426 323 402 324 c 1,35,-1
 269 324 l 1,36,-1
 269 43 l 1,37,-1
 400 43 l 2,38,39
 473 43 473 43 522.5 85 c 128,-1,40
 572 127 572 127 596 204 c 1,41,-1
 606 204 l 1,42,-1
 560 0 l 1,43,-1
 42 0 l 1,44,-1
 42 10 l 1,45,-1
 55 10 l 2,0,1
EndSplineSet
EndChar

StartChar: f
Encoding: 102 102 73
Width: 595
GlyphClass: 2
Flags: W
LayerCount: 2
Fore
SplineSet
269 657 m 1,0,-1
 269 366 l 1,1,-1
 401 366 l 1,2,3
 438 367 438 367 462 391 c 128,-1,4
 486 415 486 415 486 452 c 2,5,-1
 486 461 l 1,6,-1
 496 461 l 1,7,-1
 496 230 l 1,8,-1
 486 230 l 1,9,-1
 486 238 l 2,10,11
 486 275 486 275 462.5 299 c 128,-1,12
 439 323 439 323 402 324 c 1,13,-1
 269 324 l 1,14,-1
 269 73 l 2,15,16
 269 36 269 36 301 18 c 0,17,18
 316 10 316 10 333 10 c 2,19,-1
 345 10 l 1,20,-1
 346 0 l 1,21,-1
 42 0 l 1,22,-1
 42 10 l 1,23,-1
 55 10 l 2,24,25
 81 10 81 10 99.5 28.5 c 128,-1,26
 118 47 118 47 119 73 c 1,27,-1
 119 630 l 1,28,29
 117 655 117 655 98.5 672.5 c 128,-1,30
 80 690 80 690 55 690 c 2,31,-1
 42 690 l 1,32,-1
 42 700 l 1,33,-1
 425 700 l 2,34,35
 474 700 474 700 506 707.5 c 128,-1,36
 538 715 538 715 545 718 c 1,37,-1
 545 549 l 1,38,-1
 535 549 l 1,39,-1
 535 559 l 2,40,41
 535 603 535 603 509.5 629.5 c 128,-1,42
 484 656 484 656 440 657 c 1,43,-1
 269 657 l 1,0,-1
EndSplineSet
EndChar

StartChar: g
Encoding: 103 103 74
Width: 836
GlyphClass: 2
Flags: W
LayerCount: 2
Fore
SplineSet
819 325 m 1,0,-1
 804 325 l 2,1,2
 780 325 780 325 767 313.5 c 128,-1,3
 754 302 754 302 754 280 c 2,4,-1
 754 115 l 1,5,6
 715 64 715 64 625 25 c 128,-1,7
 535 -14 535 -14 423 -14 c 0,8,9
 252 -14 252 -14 148.5 84.5 c 128,-1,10
 45 183 45 183 45 350.5 c 128,-1,11
 45 518 45 518 148.5 616 c 128,-1,12
 252 714 252 714 429 714 c 0,13,14
 509 714 509 714 584 698.5 c 128,-1,15
 659 683 659 683 705 660 c 1,16,-1
 707 488 l 1,17,-1
 698 488 l 1,18,19
 672 585 672 585 609 628.5 c 128,-1,20
 546 672 546 672 459 672 c 0,21,22
 338 672 338 672 273 585.5 c 128,-1,23
 208 499 208 499 208 348.5 c 128,-1,24
 208 198 208 198 267.5 113 c 128,-1,25
 327 28 327 28 436 28 c 0,26,27
 515 28 515 28 568 73 c 0,28,29
 594 96 594 96 606 127 c 1,30,-1
 606 280 l 2,31,32
 606 302 606 302 592.5 313.5 c 128,-1,33
 579 325 579 325 554 325 c 2,34,-1
 538 325 l 1,35,-1
 538 335 l 1,36,-1
 819 335 l 1,37,-1
 819 325 l 1,0,-1
EndSplineSet
EndChar

StartChar: h
Encoding: 104 104 75
Width: 861
GlyphClass: 2
Flags: W
LayerCount: 2
Fore
SplineSet
529 10 m 2,0,1
 555 10 555 10 569 23 c 0,2,3
 592 46 592 46 593 72 c 1,4,-1
 593 327 l 1,5,-1
 269 327 l 1,6,-1
 269 73 l 2,7,8
 269 47 269 47 288 28.5 c 128,-1,9
 307 10 307 10 333 10 c 2,10,-1
 345 10 l 1,11,-1
 346 0 l 1,12,-1
 42 0 l 1,13,-1
 42 10 l 1,14,-1
 55 10 l 2,15,16
 81 10 81 10 99.5 28.5 c 128,-1,17
 118 47 118 47 119 73 c 1,18,-1
 119 628 l 1,19,20
 118 654 118 654 99.5 672 c 128,-1,21
 81 690 81 690 55 690 c 2,22,-1
 42 690 l 1,23,-1
 42 700 l 1,24,-1
 346 700 l 1,25,-1
 345 690 l 1,26,-1
 333 690 l 2,27,28
 307 690 307 690 288 672 c 128,-1,29
 269 654 269 654 269 628 c 2,30,-1
 269 370 l 1,31,-1
 593 370 l 1,32,-1
 593 628 l 1,33,34
 592 654 592 654 573.5 672 c 128,-1,35
 555 690 555 690 529 690 c 2,36,-1
 516 690 l 1,37,-1
 516 700 l 1,38,-1
 820 700 l 1,39,-1
 820 690 l 1,40,-1
 807 690 l 2,41,42
 781 690 781 690 762 671.5 c 128,-1,43
 743 653 743 653 743 627 c 2,44,-1
 743 73 l 2,45,46
 743 47 743 47 762 28.5 c 128,-1,47
 781 10 781 10 807 10 c 2,48,-1
 820 10 l 1,49,-1
 820 0 l 1,50,-1
 516 0 l 1,51,-1
 516 10 l 1,52,-1
 529 10 l 2,0,1
EndSplineSet
EndChar

StartChar: i
Encoding: 105 105 76
Width: 386
GlyphClass: 2
Flags: W
LayerCount: 2
Fore
SplineSet
55 10 m 2,0,1
 81 10 81 10 99.5 28.5 c 128,-1,2
 118 47 118 47 119 73 c 1,3,-1
 119 628 l 1,4,5
 118 654 118 654 99.5 672 c 128,-1,6
 81 690 81 690 55 690 c 2,7,-1
 42 690 l 1,8,-1
 42 700 l 1,9,-1
 346 700 l 1,10,-1
 345 690 l 1,11,-1
 333 690 l 2,12,13
 307 690 307 690 288 672 c 128,-1,14
 269 654 269 654 269 628 c 2,15,-1
 269 73 l 2,16,17
 269 47 269 47 288 28.5 c 128,-1,18
 307 10 307 10 333 10 c 2,19,-1
 345 10 l 1,20,-1
 346 0 l 1,21,-1
 42 0 l 1,22,-1
 42 10 l 1,23,-1
 55 10 l 2,0,1
EndSplineSet
EndChar

StartChar: j
Encoding: 106 106 77
Width: 384
GlyphClass: 2
Flags: W
LayerCount: 2
Fore
SplineSet
336 690 m 2,0,1
 310 690 310 690 291.5 671.5 c 128,-1,2
 273 653 273 653 272 627 c 1,3,-1
 272 30 l 2,4,5
 272 -41 272 -41 234 -97 c 128,-1,6
 196 -153 196 -153 141 -177 c 128,-1,7
 86 -201 86 -201 31 -201 c 0,8,9
 18 -201 18 -201 5 -200 c 1,10,-1
 5 -191 l 1,11,12
 65 -166 65 -166 93.5 -104.5 c 128,-1,13
 122 -43 122 -43 122 33 c 2,14,-1
 122 627 l 1,15,16
 121 664 121 664 90 682 c 0,17,18
 75 690 75 690 58 690 c 2,19,-1
 45 690 l 1,20,-1
 45 700 l 1,21,-1
 349 700 l 1,22,-1
 349 690 l 1,23,-1
 336 690 l 2,0,1
EndSplineSet
EndChar

StartChar: k
Encoding: 107 107 78
Width: 756
GlyphClass: 2
Flags: W
LayerCount: 2
Fore
SplineSet
55 10 m 2,0,1
 81 10 81 10 99.5 28.5 c 128,-1,2
 118 47 118 47 119 73 c 1,3,-1
 119 628 l 1,4,5
 118 664 118 664 86 682 c 0,6,7
 72 690 72 690 55 690 c 2,8,-1
 42 690 l 1,9,-1
 42 700 l 1,10,-1
 346 700 l 1,11,-1
 345 690 l 1,12,-1
 333 690 l 2,13,14
 297 690 297 690 278 659 c 0,15,16
 269 645 269 645 269 628 c 2,17,-1
 269 73 l 2,18,19
 269 47 269 47 288 28.5 c 128,-1,20
 307 10 307 10 333 10 c 2,21,-1
 345 10 l 1,22,-1
 346 0 l 1,23,-1
 42 0 l 1,24,-1
 42 10 l 1,25,-1
 55 10 l 2,0,1
777 0 m 1,26,-1
 695 0 l 2,27,28
 543 0 543 0 480 83 c 1,29,30
 301 326 301 326 301 330 c 1,31,-1
 538 644 l 2,32,33
 546 654 546 654 546 662 c 128,-1,34
 546 670 546 670 543 676 c 0,35,36
 535 691 535 691 515 691 c 2,37,-1
 505 691 l 1,38,-1
 505 700 l 1,39,-1
 734 700 l 1,40,-1
 734 691 l 1,41,-1
 730 691 l 2,42,43
 663 691 663 691 621 643 c 1,44,-1
 426 412 l 1,45,-1
 675 72 l 1,46,47
 721 12 721 12 777 10 c 1,48,-1
 777 0 l 1,26,-1
EndSplineSet
EndChar

StartChar: l
Encoding: 108 108 79
Width: 616
GlyphClass: 2
Flags: W
LayerCount: 2
Fore
SplineSet
55 10 m 2,0,1
 81 10 81 10 99.5 28.5 c 128,-1,2
 118 47 118 47 119 73 c 1,3,-1
 119 627 l 1,4,5
 118 653 118 653 99.5 671.5 c 128,-1,6
 81 690 81 690 55 690 c 2,7,-1
 42 690 l 1,8,-1
 42 700 l 1,9,-1
 346 700 l 1,10,-1
 345 690 l 1,11,-1
 333 690 l 2,12,13
 307 690 307 690 288 671.5 c 128,-1,14
 269 653 269 653 269 627 c 2,15,-1
 269 43 l 1,16,-1
 400 43 l 2,17,18
 473 43 473 43 522.5 85 c 128,-1,19
 572 127 572 127 596 204 c 1,20,-1
 606 204 l 1,21,-1
 560 0 l 1,22,-1
 42 0 l 1,23,-1
 42 10 l 1,24,-1
 55 10 l 2,0,1
EndSplineSet
EndChar

StartChar: m
Encoding: 109 109 80
Width: 953
GlyphClass: 2
Flags: W
LayerCount: 2
Fore
SplineSet
947 10 m 2,0,-1
 963 10 l 1,1,-1
 963 0 l 1,2,-1
 663 0 l 1,3,-1
 663 9 l 1,4,-1
 678 9 l 2,5,6
 695 9 695 9 707 22.5 c 128,-1,7
 719 36 719 36 717 52 c 2,8,-1
 678 415 l 1,9,-1
 490 91 l 2,10,11
 453 29 453 29 452 -20 c 1,12,-1
 442 -20 l 1,13,-1
 185 412 l 1,14,-1
 146 52 l 2,15,16
 144 36 144 36 156 22.5 c 128,-1,17
 168 9 168 9 185 9 c 2,18,-1
 200 9 l 1,19,-1
 200 0 l 1,20,-1
 -9 0 l 1,21,-1
 -9 10 l 1,22,-1
 7 10 l 2,23,24
 35 10 35 10 55.5 27 c 128,-1,25
 76 44 76 44 80 73 c 2,26,-1
 163 714 l 1,27,-1
 172 714 l 1,28,-1
 482 204 l 1,29,-1
 780 714 l 1,30,-1
 789 714 l 1,31,-1
 874 73 l 1,32,33
 879 44 879 44 899.5 27 c 128,-1,34
 920 10 920 10 947 10 c 2,0,-1
EndSplineSet
EndChar

StartChar: n
Encoding: 110 110 81
Width: 865
GlyphClass: 2
Flags: W
LayerCount: 2
Fore
SplineSet
817 690 m 2,0,1
 792 690 792 690 774 672.5 c 128,-1,2
 756 655 756 655 755 630 c 1,3,-1
 755 114 l 2,4,5
 755 47 755 47 764 1 c 2,6,-1
 767 -14 l 1,7,-1
 758 -14 l 1,8,-1
 253 467 l 1,9,-1
 253 70 l 2,10,11
 253 45 253 45 271 27.5 c 128,-1,12
 289 10 289 10 314 10 c 2,13,-1
 333 10 l 1,14,-1
 333 0 l 1,15,-1
 30 0 l 1,16,-1
 30 10 l 1,17,-1
 48 10 l 2,18,19
 74 10 74 10 92 27.5 c 128,-1,20
 110 45 110 45 110 71 c 2,21,-1
 110 590 l 2,22,23
 110 656 110 656 101 700 c 1,24,-1
 99 715 l 1,25,-1
 108 715 l 1,26,-1
 613 234 l 1,27,-1
 613 629 l 1,28,29
 612 655 612 655 594 672.5 c 128,-1,30
 576 690 576 690 551 690 c 2,31,-1
 533 690 l 1,32,-1
 533 700 l 1,33,-1
 836 700 l 1,34,-1
 836 690 l 1,35,-1
 817 690 l 2,0,1
EndSplineSet
EndChar

StartChar: o
Encoding: 111 111 82
Width: 879
GlyphClass: 2
Flags: W
LayerCount: 2
Fore
SplineSet
440 714 m 0,0,1
 625 714 625 714 734 616 c 128,-1,2
 843 518 843 518 843 350 c 128,-1,3
 843 182 843 182 734 84 c 128,-1,4
 625 -14 625 -14 440 -14 c 128,-1,5
 255 -14 255 -14 146 84 c 128,-1,6
 37 182 37 182 37 350 c 0,7,8
 37 461 37 461 86.5 543.5 c 128,-1,9
 136 626 136 626 227 670 c 128,-1,10
 318 714 318 714 440 714 c 0,0,1
440 28 m 128,-1,12
 550 28 550 28 614.5 114.5 c 128,-1,13
 679 201 679 201 679 350 c 0,14,15
 679 448 679 448 650 521 c 128,-1,16
 621 594 621 594 567 633 c 128,-1,17
 513 672 513 672 440 672 c 0,18,19
 330 672 330 672 265.5 585.5 c 128,-1,20
 201 499 201 499 201 350 c 128,-1,21
 201 201 201 201 265.5 114.5 c 128,-1,11
 330 28 330 28 440 28 c 128,-1,12
EndSplineSet
EndChar

StartChar: p
Encoding: 112 112 83
Width: 655
GlyphClass: 2
Flags: W
LayerCount: 2
Fore
SplineSet
609 413 m 0,0,1
 575 335 575 335 483 305 c 0,2,3
 456 296 456 296 433 296 c 0,4,5
 362 296 362 296 306 333 c 1,6,-1
 306 343 l 1,7,8
 381 341 381 341 427 392 c 0,9,10
 468 436 468 436 468 507 c 0,11,12
 468 616 468 616 392 648 c 0,13,14
 368 658 368 658 339 658 c 2,15,-1
 272 658 l 1,16,-1
 272 73 l 2,17,18
 272 47 272 47 291 28.5 c 128,-1,19
 310 10 310 10 336 10 c 2,20,-1
 349 10 l 1,21,-1
 349 0 l 1,22,-1
 45 0 l 1,23,-1
 45 10 l 1,24,-1
 58 10 l 2,25,26
 84 10 84 10 102.5 28.5 c 128,-1,27
 121 47 121 47 122 73 c 1,28,-1
 122 632 l 1,29,30
 118 666 118 666 88 682 c 0,31,32
 74 690 74 690 58 690 c 2,33,-1
 45 690 l 1,34,-1
 45 700 l 1,35,-1
 379 700 l 2,36,37
 560 700 560 700 611 585 c 0,38,39
 627 547 627 547 627 500.5 c 128,-1,40
 627 454 627 454 609 413 c 0,0,1
EndSplineSet
EndChar

StartChar: q
Encoding: 113 113 84
Width: 894
GlyphClass: 2
Flags: W
LayerCount: 2
Fore
SplineSet
1120 -145 m 0,0,1
 1261 -145 1261 -145 1351 -72 c 1,2,-1
 1357 -76 l 1,3,4
 1352 -157 1352 -157 1281 -214 c 0,5,6
 1201 -279 1201 -279 1082.5 -279 c 128,-1,7
 964 -279 964 -279 826 -212 c 0,8,9
 764 -181 764 -181 621 -89 c 1,10,11
 581 -62 581 -62 530 -40 c 128,-1,12
 479 -18 479 -18 435 -14 c 1,13,14
 255 -10 255 -10 149.5 87.5 c 128,-1,15
 44 185 44 185 44 350 c 0,16,17
 44 461 44 461 93.5 543.5 c 128,-1,18
 143 626 143 626 234 670 c 128,-1,19
 325 714 325 714 447 714 c 0,20,21
 632 714 632 714 741 616 c 128,-1,22
 850 518 850 518 850 350 c 0,23,24
 850 217 850 217 780 126 c 128,-1,25
 710 35 710 35 585 3 c 1,26,27
 648 -10 648 -10 710.5 -31.5 c 128,-1,28
 773 -53 773 -53 890.5 -99 c 128,-1,29
 1008 -145 1008 -145 1120 -145 c 0,0,1
208 350 m 128,-1,31
 208 201 208 201 272.5 114.5 c 128,-1,32
 337 28 337 28 447 28 c 128,-1,33
 557 28 557 28 621.5 114.5 c 128,-1,34
 686 201 686 201 686 350 c 0,35,36
 686 448 686 448 657 521 c 128,-1,37
 628 594 628 594 574 633 c 128,-1,38
 520 672 520 672 447 672 c 0,39,40
 337 672 337 672 272.5 585.5 c 128,-1,30
 208 499 208 499 208 350 c 128,-1,31
EndSplineSet
EndChar

StartChar: r
Encoding: 114 114 85
Width: 746
GlyphClass: 2
Flags: W
LayerCount: 2
Fore
SplineSet
318 656 m 2,0,-1
 275 656 l 2,1,2
 273 656 273 656 272 656 c 1,3,-1
 272 73 l 1,4,5
 273 36 273 36 304 18 c 0,6,7
 319 10 319 10 336 10 c 2,8,-1
 349 10 l 1,9,-1
 349 0 l 1,10,-1
 45 0 l 1,11,-1
 45 10 l 1,12,-1
 58 10 l 2,13,14
 94 10 94 10 113 41 c 0,15,16
 121 55 121 55 122 72 c 1,17,-1
 122 627 l 1,18,19
 121 653 121 653 102.5 671.5 c 128,-1,20
 84 690 84 690 58 690 c 2,21,-1
 45 690 l 1,22,-1
 45 700 l 1,23,-1
 388 700 l 2,24,25
 485 700 485 700 552 658 c 0,26,27
 586 637 586 637 606 599.5 c 128,-1,28
 626 562 626 562 626 514.5 c 128,-1,29
 626 467 626 467 609.5 427 c 128,-1,30
 593 387 593 387 554.5 357 c 128,-1,31
 516 327 516 327 462 321 c 1,32,33
 520 302 520 302 564 233 c 0,34,35
 672 60 672 60 724 27 c 0,36,37
 750 11 750 11 789 10 c 1,38,-1
 789 0 l 1,39,-1
 691 0 l 2,40,41
 606 0 606 0 549 23.5 c 128,-1,42
 492 47 492 47 456 104 c 0,43,44
 438 133 438 133 410 191.5 c 128,-1,45
 382 250 382 250 373 275 c 1,46,47
 346 335 346 335 305 342 c 1,48,-1
 305 352 l 1,49,-1
 336 352 l 2,50,51
 381 352 381 352 415.5 379 c 128,-1,52
 450 406 450 406 462 467 c 0,53,54
 466 488 466 488 466 500 c 0,55,56
 466 582 466 582 433 618.5 c 128,-1,57
 400 655 400 655 348 656 c 0,58,59
 338 656 338 656 318 656 c 2,0,-1
EndSplineSet
EndChar

StartChar: s
Encoding: 115 115 86
Width: 578
GlyphClass: 2
Flags: W
LayerCount: 2
Fore
SplineSet
50 93 m 0,0,1
 50 165 50 165 81 216 c 1,2,-1
 90 216 l 1,3,4
 89 208 89 208 89 200 c 0,5,6
 89 131 89 131 138.5 79.5 c 128,-1,7
 188 28 188 28 274 28 c 0,8,9
 341 28 341 28 378.5 60 c 128,-1,10
 416 92 416 92 416 141 c 0,11,12
 416 200 416 200 336 244 c 1,13,-1
 162 359 l 1,14,15
 110 389 110 389 87.5 431.5 c 128,-1,16
 65 474 65 474 65 518 c 0,17,18
 65 612 65 612 124.5 663 c 128,-1,19
 184 714 184 714 277 714 c 0,20,21
 332 714 332 714 413 704 c 1,22,-1
 476 704 l 1,23,-1
 463 557 l 1,24,-1
 453 557 l 1,25,26
 453 609 453 609 414.5 640.5 c 128,-1,27
 376 672 376 672 312 672 c 0,28,29
 234 672 234 672 199 624 c 0,30,31
 181 601 181 601 181 572 c 0,32,33
 181 524 181 524 251 483 c 1,34,-1
 442 359 l 1,35,36
 532 307 532 307 532 206 c 0,37,38
 532 99 532 99 459.5 42.5 c 128,-1,39
 387 -14 387 -14 267 -14 c 0,40,41
 199 -14 199 -14 141.5 2.5 c 128,-1,42
 84 19 84 19 57 47 c 1,43,44
 50 66 50 66 50 93 c 0,0,1
EndSplineSet
EndChar

StartChar: t
Encoding: 116 116 87
Width: 666
GlyphClass: 2
Flags: W
LayerCount: 2
Fore
SplineSet
409 659 m 1,0,-1
 409 72 l 1,1,2
 410 46 410 46 428.5 28 c 128,-1,3
 447 10 447 10 473 10 c 2,4,-1
 485 10 l 1,5,-1
 486 0 l 1,6,-1
 182 0 l 1,7,-1
 182 10 l 1,8,-1
 195 10 l 2,9,10
 220 10 220 10 238.5 28 c 128,-1,11
 257 46 257 46 259 71 c 1,12,-1
 259 659 l 1,13,-1
 124 659 l 1,14,15
 78 658 78 658 51 630 c 128,-1,16
 24 602 24 602 24 557 c 2,17,-1
 24 545 l 1,18,-1
 14 545 l 1,19,-1
 14 719 l 1,20,21
 28 713 28 713 64.5 707 c 128,-1,22
 101 701 101 701 132 701 c 2,23,-1
 535 701 l 1,24,25
 584 702 584 702 615 709 c 128,-1,26
 646 716 646 716 653 719 c 1,27,-1
 653 545 l 1,28,-1
 643 545 l 1,29,-1
 643 557 l 2,30,31
 643 602 643 602 616 630 c 128,-1,32
 589 658 589 658 543 659 c 1,33,-1
 409 659 l 1,0,-1
EndSplineSet
EndChar

StartChar: u
Encoding: 117 117 88
Width: 821
GlyphClass: 2
Flags: W
LayerCount: 2
Fore
SplineSet
790 690 m 1,0,-1
 773 690 l 2,1,2
 752 690 752 690 736.5 676.5 c 128,-1,3
 721 663 721 663 721 643 c 2,4,-1
 721 253 l 2,5,6
 721 130 721 130 644 58 c 128,-1,7
 567 -14 567 -14 433 -14 c 0,8,9
 275 -14 275 -14 191 56.5 c 128,-1,10
 107 127 107 127 107 252 c 2,11,-1
 107 640 l 2,12,13
 107 662 107 662 91.5 676 c 128,-1,14
 76 690 76 690 54 690 c 2,15,-1
 38 690 l 1,16,-1
 38 700 l 1,17,-1
 326 700 l 1,18,-1
 326 690 l 1,19,-1
 310 690 l 2,20,21
 288 690 288 690 273 676.5 c 128,-1,22
 258 663 258 663 257 642 c 1,23,-1
 257 260 l 2,24,25
 257 154 257 154 309 92 c 128,-1,26
 361 30 361 30 452 30 c 128,-1,27
 543 30 543 30 596 88.5 c 128,-1,28
 649 147 649 147 650 247 c 1,29,-1
 650 642 l 2,30,31
 650 663 650 663 634.5 676.5 c 128,-1,32
 619 690 619 690 597 690 c 2,33,-1
 581 690 l 1,34,-1
 581 700 l 1,35,-1
 790 700 l 1,36,-1
 790 690 l 1,0,-1
EndSplineSet
EndChar

StartChar: v
Encoding: 118 118 89
Width: 727
GlyphClass: 2
Flags: W
LayerCount: 2
Fore
SplineSet
756 690 m 1,0,-1
 747 690 l 2,1,2
 724 690 724 690 701 676 c 128,-1,3
 678 662 678 662 663 634 c 1,4,-1
 426 111 l 1,5,6
 380 12 380 12 377 -20 c 1,7,-1
 368 -20 l 1,8,-1
 65 633 l 1,9,10
 50 661 50 661 27 675.5 c 128,-1,11
 4 690 4 690 -20 690 c 2,12,-1
 -28 690 l 1,13,-1
 -28 700 l 1,14,-1
 290 700 l 1,15,-1
 290 690 l 1,16,-1
 282 690 l 2,17,18
 260 690 260 690 249.5 676.5 c 128,-1,19
 239 663 239 663 239 651 c 128,-1,20
 239 639 239 639 243 627 c 2,21,-1
 413 214 l 1,22,-1
 589 627 l 2,23,24
 594 640 594 640 594 651.5 c 128,-1,25
 594 663 594 663 583.5 676.5 c 128,-1,26
 573 690 573 690 551 690 c 2,27,-1
 542 690 l 1,28,-1
 542 700 l 1,29,-1
 756 700 l 1,30,-1
 756 690 l 1,0,-1
EndSplineSet
EndChar

StartChar: w
Encoding: 119 119 90
Width: 971
GlyphClass: 2
Flags: W
LayerCount: 2
Fore
SplineSet
1000 690 m 1,0,-1
 991 690 l 2,1,2
 966 690 966 690 940.5 675 c 128,-1,3
 915 660 915 660 904 632 c 1,4,-1
 736 93 l 2,5,6
 719 38 719 38 719 -9 c 0,7,8
 719 -14 719 -14 719 -18 c 1,9,-1
 709 -18 l 1,10,-1
 491 465 l 1,11,-1
 333 93 l 1,12,13
 310 35 310 35 309 -18 c 1,14,-1
 299 -18 l 1,15,-1
 60 632 l 1,16,17
 47 661 47 661 23 675.5 c 128,-1,18
 -1 690 -1 690 -26 690 c 2,19,-1
 -34 690 l 1,20,-1
 -34 700 l 1,21,-1
 271 700 l 1,22,-1
 271 690 l 1,23,-1
 262 690 l 2,24,25
 241 690 241 690 230.5 676.5 c 128,-1,26
 220 663 220 663 220 651 c 128,-1,27
 220 639 220 639 224 628 c 2,28,-1
 347 280 l 1,29,-1
 528 716 l 1,30,-1
 537 715 l 1,31,-1
 736 276 l 1,32,-1
 836 628 l 2,33,34
 839 639 839 639 839 651 c 128,-1,35
 839 663 839 663 829.5 676.5 c 128,-1,36
 820 690 820 690 798 690 c 2,37,-1
 789 690 l 1,38,-1
 789 700 l 1,39,-1
 1000 700 l 1,40,-1
 1000 690 l 1,0,-1
EndSplineSet
EndChar

StartChar: x
Encoding: 120 120 91
Width: 729
GlyphClass: 2
Flags: W
LayerCount: 2
Fore
SplineSet
428 10 m 2,0,1
 449 10 449 10 462 30 c 0,2,3
 468 41 468 41 468 51 c 128,-1,4
 468 61 468 61 462 71 c 2,5,-1
 322 289 l 1,6,-1
 175 72 l 1,7,8
 158 42 158 42 185 20 c 0,9,10
 197 10 197 10 210 10 c 2,11,-1
 223 10 l 1,12,-1
 223 0 l 1,13,-1
 -24 0 l 1,14,-1
 -24 10 l 1,15,-1
 -10 10 l 2,16,17
 46 10 46 10 89 66 c 1,18,-1
 286 345 l 1,19,-1
 101 631 l 2,20,21
 84 656 84 656 57 673 c 128,-1,22
 30 690 30 690 0 690 c 2,23,-1
 -14 690 l 1,24,-1
 -14 700 l 1,25,-1
 326 700 l 1,26,-1
 326 690 l 1,27,-1
 313 690 l 2,28,29
 292 690 292 690 279 670 c 0,30,31
 273 659 273 659 273 648.5 c 128,-1,32
 273 638 273 638 278 629 c 2,33,-1
 403 436 l 1,34,-1
 526 628 l 2,35,36
 532 638 532 638 532 648.5 c 128,-1,37
 532 659 532 659 525 669 c 0,38,39
 512 690 512 690 491 690 c 2,40,-1
 478 690 l 1,41,-1
 478 700 l 1,42,-1
 724 700 l 1,43,-1
 724 690 l 1,44,-1
 710 690 l 2,45,46
 680 690 680 690 654 673.5 c 128,-1,47
 628 657 628 657 610 632 c 2,48,-1
 440 379 l 1,49,-1
 641 68 l 2,50,51
 658 43 658 43 685.5 26.5 c 128,-1,52
 713 10 713 10 742 10 c 2,53,-1
 756 10 l 1,54,-1
 756 0 l 1,55,-1
 415 0 l 1,56,-1
 415 10 l 1,57,-1
 428 10 l 2,0,1
EndSplineSet
EndChar

StartChar: y
Encoding: 121 121 92
Width: 702
GlyphClass: 2
Flags: W
LayerCount: 2
Fore
SplineSet
734 690 m 1,0,-1
 720 690 l 2,1,2
 690 690 690 690 663 673 c 128,-1,3
 636 656 636 656 620 632 c 2,4,-1
 423 318 l 1,5,-1
 423 73 l 2,6,7
 423 47 423 47 442 28.5 c 128,-1,8
 461 10 461 10 487 10 c 2,9,-1
 499 10 l 1,10,-1
 500 0 l 1,11,-1
 196 0 l 1,12,-1
 196 10 l 1,13,-1
 209 10 l 2,14,15
 235 10 235 10 253.5 28 c 128,-1,16
 272 46 272 46 273 72 c 1,17,-1
 273 319 l 1,18,-1
 82 633 l 2,19,20
 67 657 67 657 39.5 673.5 c 128,-1,21
 12 690 12 690 -17 690 c 2,22,-1
 -31 690 l 1,23,-1
 -31 700 l 1,24,-1
 300 700 l 1,25,-1
 300 690 l 1,26,-1
 287 690 l 2,27,28
 265 690 265 690 253 670 c 0,29,30
 247 659 247 659 247 648.5 c 128,-1,31
 247 638 247 638 252 628 c 2,32,-1
 395 368 l 1,33,-1
 543 628 l 2,34,35
 549 638 549 638 549 648.5 c 128,-1,36
 549 659 549 659 542 669 c 1,37,38
 530 690 530 690 508 690 c 2,39,-1
 496 690 l 1,40,-1
 496 700 l 1,41,-1
 734 700 l 1,42,-1
 734 690 l 1,0,-1
EndSplineSet
EndChar

StartChar: z
Encoding: 122 122 93
Width: 660
GlyphClass: 2
Flags: W
LayerCount: 2
Fore
SplineSet
59 719 m 1,0,1
 74 713 74 713 111.5 707 c 128,-1,2
 149 701 149 701 164.5 701 c 128,-1,3
 180 701 180 701 180 701 c 1,4,-1
 499 701 l 2,5,6
 548 701 548 701 574 706.5 c 128,-1,7
 600 712 600 712 604 714 c 1,8,-1
 604 705 l 1,9,-1
 234 42 l 1,10,-1
 444 42 l 2,11,12
 508 42 508 42 555.5 85 c 128,-1,13
 603 128 603 128 623 201 c 1,14,-1
 633 201 l 1,15,-1
 597 0 l 1,16,-1
 45 0 l 1,17,-1
 45 9 l 1,18,-1
 412 659 l 1,19,-1
 170 659 l 1,20,21
 124 658 124 658 96.5 630.5 c 128,-1,22
 69 603 69 603 69 557 c 2,23,-1
 69 545 l 1,24,-1
 59 545 l 1,25,-1
 59 719 l 1,0,1
EndSplineSet
EndChar

StartChar: braceleft
Encoding: 123 123 94
Width: 439
GlyphClass: 2
Flags: W
LayerCount: 2
Fore
SplineSet
0 443 m 1,1,2
 0 443 0 443 8 446 c 1,3,4
 17 398 17 398 49 376 c 0,5,6
 67 364 67 364 84 364 c 128,-1,7
 101 364 101 364 116 371 c 0,8,9
 144 384 144 384 156 421 c 0,10,11
 161 438 161 438 161 478 c 1,12,-1
 157 574 l 1,13,14
 157 638 157 638 176 687.5 c 128,-1,15
 195 737 195 737 228 763 c 0,16,17
 279 804 279 804 344 804 c 0,18,19
 404 804 404 804 457 768 c 1,20,21
 457 768 457 768 452 761 c 1,22,23
 424 768 424 768 401 768 c 128,-1,24
 378 768 378 768 362 763 c 0,25,26
 338 756 338 756 321 717 c 0,27,28
 309 691 309 691 306 592 c 0,29,30
 303 471 303 471 266 414 c 0,31,32
 231 360 231 360 157 342 c 0,33,34
 134 336 134 336 112 336 c 0,35,0
 17 336 17 336 0 443 c 1,1,2
161 156 m 2,36,37
 161 167 161 167 159.5 193.5 c 128,-1,38
 158 220 158 220 141 243 c 0,39,40
 131 256 131 256 116 263 c 128,-1,41
 101 270 101 270 84 270 c 128,-1,42
 67 270 67 270 49 258 c 0,43,44
 17 236 17 236 8 188 c 1,45,-1
 0 191 l 1,46,47
 7 232 7 232 24 257 c 128,-1,48
 41 282 41 282 65 290 c 0,49,50
 109 304 109 304 157 292 c 0,51,52
 232 273 232 273 267.5 217 c 128,-1,53
 303 161 303 161 306 55 c 0,54,55
 306 54 306 54 306.5 23.5 c 128,-1,56
 307 -7 307 -7 312 -41 c 0,57,58
 315 -68 315 -68 320.5 -80.5 c 128,-1,59
 326 -93 326 -93 336.5 -108.5 c 128,-1,60
 347 -124 347 -124 362 -129 c 128,-1,61
 377 -134 377 -134 389 -134 c 128,-1,62
 401 -134 401 -134 412.5 -134 c 128,-1,63
 424 -134 424 -134 452 -127 c 1,64,-1
 457 -134 l 1,65,66
 403 -170 403 -170 341 -170 c 0,67,68
 321 -170 321 -170 299 -164 c 0,69,70
 209 -142 209 -142 175 -52 c 0,71,72
 157 -3 157 -3 157 59 c 1,73,-1
 161 156 l 2,36,37
EndSplineSet
EndChar

StartChar: bar
Encoding: 124 124 95
Width: 257
GlyphClass: 2
Flags: W
LayerCount: 2
Fore
SplineSet
100 -180 m 1,0,-1
 100 700 l 1,1,-1
 157 700 l 1,2,-1
 157 -180 l 1,3,-1
 100 -180 l 1,0,-1
EndSplineSet
EndChar

StartChar: braceright
Encoding: 125 125 96
Width: 439
GlyphClass: 2
Flags: W
LayerCount: 2
Fore
SplineSet
279 478 m 2,0,1
 279 466 279 466 281 440 c 128,-1,2
 283 414 283 414 300 391 c 0,3,4
 310 378 310 378 325 371 c 128,-1,5
 340 364 340 364 356.5 364 c 128,-1,6
 373 364 373 364 392 376 c 1,7,8
 423 398 423 398 433 446 c 1,9,-1
 440 443 l 1,10,11
 432 387 432 387 403 362 c 0,12,13
 390 351 390 351 375.5 344 c 128,-1,14
 361 337 361 337 349 336.5 c 128,-1,15
 337 336 337 336 322 336 c 128,-1,16
 307 336 307 336 283 342 c 0,17,18
 210 360 210 360 175 414 c 128,-1,19
 140 468 140 468 135 571 c 0,20,21
 135 578 135 578 134 612 c 128,-1,22
 133 646 133 646 129 679 c 0,23,24
 125 705 125 705 120 717 c 128,-1,25
 115 729 115 729 104 744 c 128,-1,26
 93 759 93 759 78 763.5 c 128,-1,27
 63 768 63 768 51 768 c 128,-1,28
 39 768 39 768 27.5 768 c 128,-1,29
 16 768 16 768 -12 761 c 1,30,-1
 -17 768 l 1,31,32
 36 804 36 804 98 804 c 0,33,34
 118 804 118 804 140 799 c 0,35,36
 231 777 231 777 265 687 c 0,37,38
 284 638 284 638 284 574 c 1,39,-1
 279 478 l 2,0,1
440 191 m 1,40,-1
 433 188 l 1,41,42
 424 236 424 236 391 258 c 0,43,44
 373 270 373 270 356.5 270 c 128,-1,45
 340 270 340 270 324 263 c 0,46,47
 297 250 297 250 285 213 c 0,48,49
 279 195 279 195 279 156 c 1,50,-1
 284 59 l 1,51,52
 284 -3 284 -3 265.5 -52.5 c 128,-1,53
 247 -102 247 -102 214 -128 c 0,54,55
 162 -170 162 -170 97 -170 c 0,56,57
 37 -170 37 -170 -17 -134 c 1,58,59
 -17 -134 -17 -134 -12 -127 c 1,60,61
 16 -134 16 -134 38.5 -134 c 128,-1,62
 61 -134 61 -134 78 -129 c 0,63,64
 102 -122 102 -122 120 -81 c 0,65,66
 132 -54 132 -54 135 51 c 0,67,68
 138 161 138 161 174 219 c 0,69,70
 208 273 208 273 283 292 c 0,71,72
 307 298 307 298 329 298 c 0,73,74
 423 298 423 298 440 191 c 1,40,-1
EndSplineSet
EndChar

StartChar: asciitilde
Encoding: 126 126 97
Width: 493
GlyphClass: 2
Flags: W
LayerCount: 2
Fore
SplineSet
464 313 m 0,0,1
 464 273 464 273 441 247 c 1,2,3
 404 208 404 208 346 208 c 0,4,5
 300 208 300 208 237 256 c 0,6,7
 171 307 171 307 140.5 307 c 128,-1,8
 110 307 110 307 97 285 c 0,9,10
 88 271 88 271 88 252 c 128,-1,11
 88 233 88 233 92 213 c 1,12,-1
 35 213 l 1,13,14
 31 234 31 234 31 253 c 0,15,16
 31 295 31 295 53 323 c 0,17,18
 87 364 87 364 142 364 c 0,19,20
 188 364 188 364 252 315 c 0,21,22
 319 265 319 265 349.5 265 c 128,-1,23
 380 265 380 265 398 290 c 0,24,25
 408 303 408 303 408 320.5 c 128,-1,26
 408 338 408 338 399 359 c 1,27,-1
 458 359 l 1,28,29
 464 334 464 334 464 313 c 0,0,1
EndSplineSet
EndChar

StartChar: exclamdown
Encoding: 161 161 98
Width: 269
GlyphClass: 2
Flags: W
LayerCount: 2
Fore
SplineSet
136 712 m 128,-1,1
 166 712 166 712 187 690.5 c 128,-1,2
 208 669 208 669 208 639 c 128,-1,3
 208 609 208 609 187 588 c 128,-1,4
 166 567 166 567 136 567 c 128,-1,5
 106 567 106 567 85 588 c 128,-1,6
 64 609 64 609 64 639 c 128,-1,7
 64 669 64 669 85 690.5 c 128,-1,0
 106 712 106 712 136 712 c 128,-1,1
76 323 m 1,8,-1
 112 494 l 1,9,-1
 159 494 l 1,10,-1
 194 323 l 1,11,-1
 212 0 l 1,12,-1
 58 0 l 1,13,-1
 76 323 l 1,8,-1
EndSplineSet
EndChar

StartChar: cent
Encoding: 162 162 99
Width: 587
GlyphClass: 2
Flags: W
LayerCount: 2
Fore
SplineSet
103.5 159 m 128,-1,1
 29 230 29 230 29 352.5 c 128,-1,2
 29 475 29 475 114.5 546 c 128,-1,3
 200 617 200 617 351 617 c 1,4,-1
 358 701 l 1,5,-1
 399 700 l 1,6,-1
 392 615 l 1,7,8
 477 607 477 607 534 578 c 1,9,-1
 534 441 l 1,10,-1
 527 441 l 1,11,12
 495 562 495 562 389 577 c 1,13,-1
 351 115 l 1,14,15
 438 116 438 116 480.5 158.5 c 128,-1,16
 523 201 523 201 539 304 c 1,17,-1
 545 304 l 1,18,-1
 556 174 l 1,19,20
 530 130 530 130 477.5 103.5 c 128,-1,21
 425 77 425 77 348 77 c 1,22,-1
 341 -9 l 1,23,-1
 301 -6 l 1,24,-1
 308 78 l 1,25,0
 178 88 178 88 103.5 159 c 128,-1,1
311 118 m 1,26,-1
 348 579 l 1,27,28
 260 577 260 577 215.5 517.5 c 128,-1,29
 171 458 171 458 171 354.5 c 128,-1,30
 171 251 171 251 207 191.5 c 128,-1,31
 243 132 243 132 311 118 c 1,26,-1
EndSplineSet
EndChar

StartChar: sterling
Encoding: 163 163 100
Width: 603
GlyphClass: 2
Flags: W
LayerCount: 2
Fore
SplineSet
148 66 m 1,0,1
 171 74 171 74 195 74 c 128,-1,2
 219 74 219 74 233.5 72 c 128,-1,3
 248 70 248 70 279 66 c 0,4,5
 331 59 331 59 361.5 59 c 128,-1,6
 392 59 392 59 430 68 c 128,-1,7
 468 77 468 77 510.5 109.5 c 128,-1,8
 553 142 553 142 579 196 c 1,9,-1
 589 196 l 1,10,-1
 544 24 l 1,11,12
 469 -10 469 -10 366 -10 c 0,13,14
 325 -10 325 -10 250 7.5 c 128,-1,15
 175 25 175 25 154 25 c 128,-1,16
 133 25 133 25 122.5 24 c 128,-1,17
 112 23 112 23 85 12.5 c 128,-1,18
 58 2 58 2 51 -6 c 1,19,-1
 41 -6 l 1,20,-1
 41 4 l 1,21,22
 75 48 75 48 102 128 c 128,-1,23
 129 208 129 208 131 323 c 1,24,-1
 38 323 l 1,25,-1
 53 371 l 1,26,-1
 130 371 l 1,27,28
 130 384 130 384 130 396 c 0,29,30
 130 697 130 697 377 714 c 0,31,32
 390 715 390 715 419.5 715 c 128,-1,33
 449 715 449 715 491 700 c 128,-1,34
 533 685 533 685 556 657 c 1,35,-1
 516 535 l 1,36,-1
 506 535 l 1,37,38
 506 538 506 538 506 542 c 0,39,40
 506 672 506 672 407 672 c 0,41,42
 361 672 361 672 333.5 648.5 c 128,-1,43
 306 625 306 625 295 587 c 0,44,45
 280 533 280 533 280 447 c 0,46,47
 280 430 280 430 283 371 c 1,48,-1
 464 371 l 1,49,-1
 447 323 l 1,50,-1
 284 323 l 1,51,52
 282 194 282 194 242 138 c 0,53,54
 222 110 222 110 201 94.5 c 128,-1,55
 180 79 180 79 148 66 c 1,0,1
EndSplineSet
EndChar

StartChar: currency
Encoding: 164 164 101
Width: 541
GlyphClass: 2
Flags: W
LayerCount: 2
Fore
SplineSet
410 193 m 1,0,1
 350 139 350 139 270 139 c 128,-1,2
 190 139 190 139 130 191 c 1,3,-1
 71 132 l 1,4,-1
 50 154 l 1,5,-1
 109 212 l 1,6,7
 56 272 56 272 56 352.5 c 128,-1,8
 56 433 56 433 110 493 c 1,9,-1
 50 553 l 1,10,-1
 71 574 l 1,11,-1
 131 514 l 1,12,13
 191 565 191 565 270 565 c 128,-1,14
 349 565 349 565 409 513 c 1,15,-1
 470 574 l 1,16,-1
 492 553 l 1,17,-1
 430 492 l 1,18,19
 482 432 482 432 482 352.5 c 128,-1,20
 482 273 482 273 431 214 c 1,21,-1
 492 154 l 1,22,-1
 470 132 l 1,23,-1
 410 193 l 1,0,1
269.5 169 m 128,-1,25
 345 169 345 169 398.5 222.5 c 128,-1,26
 452 276 452 276 452 352 c 128,-1,27
 452 428 452 428 398.5 481.5 c 128,-1,28
 345 535 345 535 269.5 535 c 128,-1,29
 194 535 194 535 140 481.5 c 128,-1,30
 86 428 86 428 86 352 c 128,-1,31
 86 276 86 276 140 222.5 c 128,-1,24
 194 169 194 169 269.5 169 c 128,-1,25
EndSplineSet
EndChar

StartChar: yen
Encoding: 165 165 102
Width: 702
GlyphClass: 2
Flags: W
LayerCount: 2
Fore
SplineSet
734 690 m 1,0,-1
 720 690 l 2,1,2
 680 690 680 690 645 660 c 0,3,4
 630 648 630 648 620 632 c 2,5,-1
 487 421 l 1,6,-1
 594 421 l 1,7,-1
 594 379 l 1,8,-1
 461 379 l 1,9,-1
 423 318 l 1,10,-1
 423 307 l 1,11,-1
 594 307 l 1,12,-1
 594 265 l 1,13,-1
 423 265 l 1,14,-1
 423 73 l 2,15,16
 423 47 423 47 442 28.5 c 128,-1,17
 461 10 461 10 487 10 c 2,18,-1
 499 10 l 1,19,-1
 500 0 l 1,20,-1
 196 0 l 1,21,-1
 196 10 l 1,22,-1
 209 10 l 2,23,24
 235 10 235 10 253.5 28.5 c 128,-1,25
 272 47 272 47 273 73 c 1,26,-1
 273 265 l 1,27,-1
 100 265 l 1,28,-1
 100 307 l 1,29,-1
 273 307 l 1,30,-1
 273 319 l 1,31,-1
 236 379 l 1,32,-1
 100 379 l 1,33,-1
 100 421 l 1,34,-1
 211 421 l 1,35,-1
 82 633 l 2,36,37
 67 657 67 657 39.5 673.5 c 128,-1,38
 12 690 12 690 -17 690 c 2,39,-1
 -31 690 l 1,40,-1
 -31 700 l 1,41,-1
 300 700 l 1,42,-1
 300 690 l 1,43,-1
 287 690 l 2,44,45
 265 690 265 690 253 670 c 0,46,47
 247 659 247 659 247 648.5 c 128,-1,48
 247 638 247 638 252 628 c 2,49,-1
 395 368 l 1,50,-1
 543 628 l 1,51,52
 558 659 558 659 533 680 c 0,53,54
 522 690 522 690 508 690 c 2,55,-1
 496 690 l 1,56,-1
 496 700 l 1,57,-1
 734 700 l 1,58,-1
 734 690 l 1,0,-1
EndSplineSet
EndChar

StartChar: brokenbar
Encoding: 166 166 103
Width: 257
GlyphClass: 2
Flags: W
LayerCount: 2
Fore
SplineSet
100 350 m 1,0,-1
 100 700 l 1,1,-1
 157 700 l 1,2,-1
 157 350 l 1,3,-1
 100 350 l 1,0,-1
100 -180 m 1,4,-1
 100 170 l 1,5,-1
 157 170 l 1,6,-1
 157 -180 l 1,7,-1
 100 -180 l 1,4,-1
EndSplineSet
EndChar

StartChar: section
Encoding: 167 167 104
Width: 526
GlyphClass: 2
Flags: W
LayerCount: 2
Fore
SplineSet
82 566 m 0,0,1
 172 713 172 713 335 713 c 0,2,3
 385 713 385 713 421 691 c 1,4,5
 461 665 461 665 461 633 c 0,6,7
 461 616 461 616 447 599 c 1,8,9
 433 580 433 580 415.5 580 c 128,-1,10
 398 580 398 580 382.5 591 c 128,-1,11
 367 602 367 602 348 617 c 128,-1,12
 329 632 329 632 311 646 c 0,13,14
 290 662 290 662 270 662 c 128,-1,15
 250 662 250 662 234 651 c 0,16,17
 213 635 213 635 213 619 c 128,-1,18
 213 603 213 603 220 586 c 128,-1,19
 227 569 227 569 237 552 c 128,-1,20
 247 535 247 535 272 506 c 0,21,22
 307 466 307 466 335.5 435.5 c 128,-1,23
 364 405 364 405 366 403 c 0,24,25
 420 344 420 344 451 277 c 0,26,27
 486 199 486 199 486 126 c 0,28,29
 486 15 486 15 424 -61 c 0,30,31
 390 -102 390 -102 340 -128 c 0,32,33
 283 -157 283 -157 211 -157 c 0,34,35
 122 -157 122 -157 79 -107 c 0,36,37
 66 -92 66 -92 66 -75 c 128,-1,38
 66 -58 66 -58 79 -40 c 0,39,40
 93 -19 93 -19 111 -19 c 128,-1,41
 129 -19 129 -19 145.5 -30 c 128,-1,42
 162 -41 162 -41 183 -56.5 c 128,-1,43
 204 -72 204 -72 223 -86 c 0,44,45
 267 -118 267 -118 303 -91 c 0,46,47
 324 -75 324 -75 324 -55 c 0,48,49
 324 -18 324 -18 268 46 c 0,50,51
 229 91 229 91 169 150 c 0,52,53
 57 260 57 260 44 372 c 0,54,55
 42 392 42 392 42 418 c 0,56,57
 42 501 42 501 82 566 c 0,0,1
143 583 m 1,58,59
 115 525 115 525 115 484 c 128,-1,60
 115 443 115 443 127 408 c 0,61,62
 150 338 150 338 235.5 255.5 c 128,-1,63
 321 173 321 173 354.5 116.5 c 128,-1,64
 388 60 388 60 388 12 c 0,65,66
 388 -3 388 -3 385 -19 c 1,67,68
 412 31 412 31 412 71.5 c 128,-1,69
 412 112 412 112 399 149 c 0,70,71
 373 222 373 222 285 311.5 c 128,-1,72
 197 401 197 401 170 450.5 c 128,-1,73
 143 500 143 500 143 570 c 0,74,75
 143 576 143 576 143 583 c 1,58,59
EndSplineSet
EndChar

StartChar: dieresis
Encoding: 168 168 105
Width: 600
GlyphClass: 2
Flags: W
LayerCount: 2
Fore
SplineSet
164 679 m 128,-1,1
 139 679 139 679 121.5 696.5 c 128,-1,2
 104 714 104 714 104 739 c 128,-1,3
 104 764 104 764 121.5 781.5 c 128,-1,4
 139 799 139 799 164 799 c 128,-1,5
 189 799 189 799 206.5 781.5 c 128,-1,6
 224 764 224 764 224 739 c 128,-1,7
 224 714 224 714 206.5 696.5 c 128,-1,0
 189 679 189 679 164 679 c 128,-1,1
397 679 m 128,-1,9
 372 679 372 679 354.5 696.5 c 128,-1,10
 337 714 337 714 337 739 c 128,-1,11
 337 764 337 764 354.5 781.5 c 128,-1,12
 372 799 372 799 397 799 c 128,-1,13
 422 799 422 799 439.5 781.5 c 128,-1,14
 457 764 457 764 457 739 c 128,-1,15
 457 714 457 714 439.5 696.5 c 128,-1,8
 422 679 422 679 397 679 c 128,-1,9
EndSplineSet
EndChar

StartChar: copyright
Encoding: 169 169 106
Width: 848
GlyphClass: 2
Flags: W
LayerCount: 2
Fore
SplineSet
424 714 m 128,-1,1
 575 714 575 714 681.5 607.5 c 128,-1,2
 788 501 788 501 788 350 c 128,-1,3
 788 199 788 199 681.5 92.5 c 128,-1,4
 575 -14 575 -14 424 -14 c 128,-1,5
 273 -14 273 -14 166.5 92.5 c 128,-1,6
 60 199 60 199 60 350 c 128,-1,7
 60 501 60 501 166.5 607.5 c 128,-1,0
 273 714 273 714 424 714 c 128,-1,1
424 668 m 128,-1,9
 338 668 338 668 264.5 625.5 c 128,-1,10
 191 583 191 583 148.5 509.5 c 128,-1,11
 106 436 106 436 106 350 c 128,-1,12
 106 264 106 264 148.5 190.5 c 128,-1,13
 191 117 191 117 264.5 74.5 c 128,-1,14
 338 32 338 32 424 32 c 128,-1,15
 510 32 510 32 583.5 74.5 c 128,-1,16
 657 117 657 117 699.5 190.5 c 128,-1,17
 742 264 742 264 742 350 c 128,-1,18
 742 436 742 436 699.5 509.5 c 128,-1,19
 657 583 657 583 583.5 625.5 c 128,-1,8
 510 668 510 668 424 668 c 128,-1,9
612 322 m 1,20,-1
 618 322 l 1,21,-1
 630 219 l 1,22,23
 597 175 597 175 546 151 c 128,-1,24
 495 127 495 127 432 127 c 0,25,26
 328 128 328 128 259.5 191.5 c 128,-1,27
 191 255 191 255 191 350.5 c 128,-1,28
 191 446 191 446 260 509.5 c 128,-1,29
 329 573 329 573 434 573 c 0,30,31
 478 573 478 573 525 561.5 c 128,-1,32
 572 550 572 550 606 530 c 1,33,-1
 608 418 l 1,34,-1
 602 418 l 1,35,36
 581 475 581 475 539.5 506.5 c 128,-1,37
 498 538 498 538 436.5 538 c 128,-1,38
 375 538 375 538 337.5 486.5 c 128,-1,39
 300 435 300 435 300 350.5 c 128,-1,40
 300 266 300 266 338 214.5 c 128,-1,41
 376 163 376 163 443.5 163 c 128,-1,42
 511 163 511 163 557 203 c 128,-1,43
 603 243 603 243 612 322 c 1,20,-1
EndSplineSet
EndChar

StartChar: ordfeminine
Encoding: 170 170 107
Width: 381
GlyphClass: 2
Flags: W
LayerCount: 2
Fore
SplineSet
380 382 m 2,0,-1
 385 382 l 1,1,-1
 385 377 l 1,2,-1
 212 377 l 1,3,-1
 212 382 l 1,4,-1
 216 382 l 2,5,6
 227 382 227 382 234 390 c 128,-1,7
 241 398 241 398 236 411 c 2,8,-1
 216 457 l 1,9,-1
 107 457 l 1,10,-1
 87 413 l 2,11,12
 81 399 81 399 88 390.5 c 128,-1,13
 95 382 95 382 106 382 c 2,14,-1
 110 382 l 1,15,-1
 110 377 l 1,16,-1
 -3 377 l 1,17,-1
 -3 382 l 1,18,-1
 1 382 l 2,19,20
 27 382 27 382 43 409 c 1,21,-1
 157 643 l 1,22,23
 182 699 182 699 183 711 c 1,24,-1
 188 711 l 1,25,-1
 338 411 l 1,26,27
 355 382 355 382 380 382 c 2,0,-1
119 483 m 1,28,-1
 205 483 l 1,29,-1
 163 578 l 1,30,-1
 119 483 l 1,28,-1
EndSplineSet
EndChar

StartChar: guillemotleft
Encoding: 171 171 108
Width: 501
GlyphClass: 2
Flags: W
LayerCount: 2
Fore
SplineSet
160 292 m 1,0,-1
 260 95 l 1,1,-1
 251 88 l 1,2,3
 161 205 161 205 40 292 c 1,4,5
 106 338 106 338 156 382 c 128,-1,6
 206 426 206 426 251 490 c 1,7,-1
 259 485 l 1,8,-1
 160 292 l 1,0,-1
350 292 m 1,9,-1
 450 95 l 1,10,-1
 441 88 l 1,11,12
 351 205 351 205 230 292 c 1,13,14
 296 338 296 338 346 382 c 128,-1,15
 396 426 396 426 441 490 c 1,16,-1
 449 485 l 1,17,-1
 350 292 l 1,9,-1
EndSplineSet
EndChar

StartChar: logicalnot
Encoding: 172 172 109
Width: 600
GlyphClass: 2
Flags: W
LayerCount: 2
Fore
SplineSet
562 195 m 1,0,-1
 505 195 l 1,1,-1
 505 346 l 1,2,-1
 40 346 l 1,3,-1
 40 403 l 1,4,-1
 562 403 l 1,5,-1
 562 195 l 1,0,-1
EndSplineSet
EndChar

StartChar: softhyphen
Encoding: 173 173 110
Width: 380
GlyphClass: 2
Flags: W
LayerCount: 2
Fore
SplineSet
32 292 m 1,0,-1
 40 325 l 1,1,-1
 340 325 l 1,2,-1
 348 292 l 1,3,-1
 340 258 l 1,4,-1
 40 258 l 1,5,-1
 32 292 l 1,0,-1
EndSplineSet
EndChar

StartChar: registered
Encoding: 174 174 111
Width: 245
GlyphClass: 2
Flags: W
LayerCount: 2
Fore
SplineSet
123 701 m 128,-1,1
 170 701 170 701 203 668 c 128,-1,2
 236 635 236 635 236 588 c 128,-1,3
 236 541 236 541 203 508 c 128,-1,4
 170 475 170 475 123 475 c 128,-1,5
 76 475 76 475 43 508 c 128,-1,6
 10 541 10 541 10 588 c 128,-1,7
 10 635 10 635 43 668 c 128,-1,0
 76 701 76 701 123 701 c 128,-1,1
122.5 497 m 128,-1,9
 161 497 161 497 187.5 523.5 c 128,-1,10
 214 550 214 550 214 588 c 128,-1,11
 214 626 214 626 187.5 652.5 c 128,-1,12
 161 679 161 679 122.5 679 c 128,-1,13
 84 679 84 679 58 652.5 c 128,-1,14
 32 626 32 626 32 588 c 128,-1,15
 32 550 32 550 58 523.5 c 128,-1,8
 84 497 84 497 122.5 497 c 128,-1,9
169 618 m 0,16,17
 169 588 169 588 139 585 c 1,18,19
 148 583 148 583 163.5 559.5 c 128,-1,20
 179 536 179 536 189 533 c 1,21,-1
 189 531 l 1,22,-1
 173 531 l 2,23,24
 147 531 147 531 135 550 c 0,25,26
 130 558 130 558 126 566 c 0,27,28
 115 589 115 589 111 589 c 1,29,-1
 111 591 l 1,30,-1
 122 591 l 1,31,32
 140 592 140 592 139 616.5 c 128,-1,33
 138 641 138 641 117 641 c 2,34,-1
 106 641 l 1,35,-1
 106 543 l 2,36,37
 106 533 106 533 117 533 c 2,38,-1
 119 533 l 1,39,-1
 119 531 l 1,40,-1
 65 531 l 1,41,-1
 65 533 l 1,42,-1
 67 533 l 2,43,44
 77 533 77 533 78 543 c 1,45,-1
 78 638 l 1,46,47
 77 648 77 648 67 648 c 2,48,-1
 65 648 l 1,49,-1
 65 650 l 1,50,-1
 106 650 l 1,51,-1
 126 651 l 2,52,53
 145 651 145 651 157 642 c 128,-1,54
 169 633 169 633 169 618 c 0,16,17
EndSplineSet
EndChar

StartChar: macron
Encoding: 175 175 112
Width: 600
GlyphClass: 2
Flags: W
LayerCount: 2
Fore
SplineSet
158 703 m 1,0,-1
 158 768 l 1,1,-1
 432 768 l 1,2,-1
 432 703 l 1,3,-1
 158 703 l 1,0,-1
EndSplineSet
EndChar

StartChar: degree
Encoding: 176 176 113
Width: 244
GlyphClass: 2
Flags: W
LayerCount: 2
Fore
SplineSet
122.5 664 m 128,-1,1
 163 664 163 664 192 635.5 c 128,-1,2
 221 607 221 607 221 566 c 128,-1,3
 221 525 221 525 192 496 c 128,-1,4
 163 467 163 467 122.5 467 c 128,-1,5
 82 467 82 467 53 496 c 128,-1,6
 24 525 24 525 24 566 c 128,-1,7
 24 607 24 607 53 635.5 c 128,-1,0
 82 664 82 664 122.5 664 c 128,-1,1
122 613 m 128,-1,9
 102 613 102 613 88.5 599.5 c 128,-1,10
 75 586 75 586 75 566 c 128,-1,11
 75 546 75 546 88.5 532 c 128,-1,12
 102 518 102 518 122 518 c 128,-1,13
 142 518 142 518 156 532 c 128,-1,14
 170 546 170 546 170 566 c 128,-1,15
 170 586 170 586 156 599.5 c 128,-1,8
 142 613 142 613 122 613 c 128,-1,9
EndSplineSet
EndChar

StartChar: plusminus
Encoding: 177 177 114
Width: 481
GlyphClass: 2
Flags: W
LayerCount: 2
Fore
SplineSet
269 408 m 1,0,-1
 442 408 l 1,1,-1
 442 351 l 1,2,-1
 269 351 l 1,3,-1
 269 179 l 1,4,-1
 212 179 l 1,5,-1
 212 351 l 1,6,-1
 40 351 l 1,7,-1
 40 408 l 1,8,-1
 212 408 l 1,9,-1
 212 581 l 1,10,-1
 269 581 l 1,11,-1
 269 408 l 1,0,-1
40 54 m 1,12,-1
 40 111 l 1,13,-1
 442 111 l 1,14,-1
 442 54 l 1,15,-1
 40 54 l 1,12,-1
EndSplineSet
EndChar

StartChar: twosuperior
Encoding: 178 178 115
Width: 401
GlyphClass: 2
Flags: W
LayerCount: 2
Fore
SplineSet
177 717 m 0,0,1
 247 717 247 717 293.5 685.5 c 128,-1,2
 340 654 340 654 340 601 c 0,3,4
 340 497 340 497 173 401 c 1,5,-1
 284 401 l 2,6,7
 310 401 310 401 328.5 415 c 128,-1,8
 347 429 347 429 362 460 c 1,9,-1
 368 460 l 1,10,-1
 330 308 l 1,11,-1
 35 308 l 1,12,-1
 35 314 l 1,13,14
 50 331 50 331 85 371 c 128,-1,15
 120 411 120 411 138.5 434 c 128,-1,16
 157 457 157 457 181 491 c 0,17,18
 226 555 226 555 226 611 c 0,19,20
 226 648 226 648 206 668 c 128,-1,21
 186 688 186 688 157 688 c 0,22,23
 116 688 116 688 95 657 c 128,-1,24
 74 626 74 626 74 573 c 1,25,-1
 68 573 l 1,26,-1
 34 672 l 1,27,28
 66 701 66 701 124 712 c 0,29,30
 150 717 150 717 177 717 c 0,0,1
EndSplineSet
EndChar

StartChar: threesuperior
Encoding: 179 179 116
Width: 348
GlyphClass: 2
Flags: W
LayerCount: 2
Fore
SplineSet
282 669 m 0,0,1
 299 648 299 648 299 616.5 c 128,-1,2
 299 585 299 585 276 563.5 c 128,-1,3
 253 542 253 542 222 539 c 1,4,5
 260 532 260 532 287.5 506.5 c 128,-1,6
 315 481 315 481 315 434.5 c 128,-1,7
 315 388 315 388 288 353 c 0,8,9
 239 288 239 288 134 288 c 0,10,11
 79 288 79 288 28 309 c 1,12,-1
 29 314 l 1,13,14
 33 314 33 314 37 314 c 0,15,16
 107 314 107 314 156 347 c 128,-1,17
 205 380 205 380 205 443 c 0,18,19
 205 488 205 488 173.5 509.5 c 128,-1,20
 142 531 142 531 96 532 c 1,21,-1
 97 538 l 1,22,23
 99 538 99 538 100 538 c 0,24,25
 140 538 140 538 166.5 563 c 128,-1,26
 193 588 193 588 193 623 c 256,27,28
 193 658 193 658 174 671.5 c 128,-1,29
 155 685 155 685 132 685 c 0,30,31
 81 685 81 685 68 640 c 0,32,33
 62 621 62 621 62 604.5 c 128,-1,34
 62 588 62 588 62 584 c 1,35,-1
 56 584 l 1,36,-1
 28 676 l 1,37,38
 71 713 71 713 158.5 713 c 128,-1,39
 246 713 246 713 282 669 c 0,0,1
EndSplineSet
EndChar

StartChar: acute
Encoding: 180 180 117
Width: 536
GlyphClass: 2
Flags: W
LayerCount: 2
Fore
SplineSet
209 744 m 1,0,-1
 202 751 l 1,1,2
 246 825 246 825 346 915 c 1,3,4
 395 890 395 890 414 834 c 1,5,6
 311 769 311 769 209 744 c 1,0,-1
EndSplineSet
EndChar

StartChar: paragraph
Encoding: 182 182 118
Width: 532
GlyphClass: 2
Flags: W
LayerCount: 2
Fore
SplineSet
416 147 m 2,0,1
 416 42 416 42 356 -13 c 1,2,-1
 347 -5 l 1,3,4
 372 37 372 37 374 85 c 0,5,6
 374 100 374 100 374 145 c 2,7,-1
 374 658 l 1,8,-1
 291 658 l 1,9,-1
 291 0 l 2,10,11
 291 -154 291 -154 193 -199 c 1,12,-1
 186 -190 l 1,13,14
 227 -148 227 -148 237 -114.5 c 128,-1,15
 247 -81 247 -81 247 -47 c 128,-1,16
 247 -13 247 -13 246 0 c 1,17,-1
 246 333 l 1,18,19
 161 333 161 333 105.5 383 c 128,-1,20
 50 433 50 433 50 516 c 128,-1,21
 50 599 50 599 106.5 649.5 c 128,-1,22
 163 700 163 700 246 700 c 2,23,-1
 420 700 l 2,24,25
 421 700 421 700 427.5 700 c 128,-1,26
 434 700 434 700 436 700 c 128,-1,27
 438 700 438 700 445 700.5 c 128,-1,28
 452 701 452 701 455.5 702.5 c 128,-1,29
 459 704 459 704 465.5 705.5 c 128,-1,30
 472 707 472 707 477.5 710.5 c 128,-1,31
 483 714 483 714 489 718 c 0,32,33
 501 726 501 726 516 743 c 1,34,-1
 523 737 l 1,35,36
 514 706 514 706 486 682.5 c 128,-1,37
 458 659 458 659 416 658 c 1,38,-1
 416 147 l 2,0,1
EndSplineSet
EndChar

StartChar: periodcentered
Encoding: 183 183 119
Width: 218
GlyphClass: 2
Flags: W
LayerCount: 2
Fore
SplineSet
109.5 393 m 128,-1,1
 141 393 141 393 170 372.5 c 128,-1,2
 199 352 199 352 212 321 c 1,3,4
 199 290 199 290 170 269.5 c 128,-1,5
 141 249 141 249 109.5 249 c 128,-1,6
 78 249 78 249 48.5 269.5 c 128,-1,7
 19 290 19 290 7 321 c 1,8,9
 19 352 19 352 48.5 372.5 c 128,-1,0
 78 393 78 393 109.5 393 c 128,-1,1
109 362 m 128,-1,11
 91 362 91 362 74 350 c 128,-1,12
 57 338 57 338 50 321 c 1,13,14
 57 304 57 304 74 292 c 128,-1,15
 91 280 91 280 109 280 c 128,-1,16
 127 280 127 280 144.5 292 c 128,-1,17
 162 304 162 304 169 321 c 1,18,19
 162 338 162 338 144.5 350 c 128,-1,10
 127 362 127 362 109 362 c 128,-1,11
EndSplineSet
EndChar

StartChar: cedilla
Encoding: 184 184 120
Width: 600
GlyphClass: 2
Flags: W
LayerCount: 2
Fore
SplineSet
283 -48 m 1,0,1
 315 -37 315 -37 344 -45 c 0,2,3
 397 -59 397 -59 397 -108.5 c 128,-1,4
 397 -158 397 -158 340 -184 c 0,5,6
 309 -198 309 -198 280.5 -198 c 128,-1,7
 252 -198 252 -198 227 -189 c 1,8,-1
 228 -179 l 1,9,10
 264 -179 264 -179 295 -160.5 c 128,-1,11
 326 -142 326 -142 326 -105 c 0,12,13
 326 -87 326 -87 311 -76 c 128,-1,14
 296 -65 296 -65 275 -65 c 128,-1,15
 254 -65 254 -65 234 -72 c 1,16,-1
 229 -62 l 1,17,-1
 277 1 l 1,18,-1
 325 1 l 1,19,-1
 283 -48 l 1,0,1
EndSplineSet
EndChar

StartChar: onesuperior
Encoding: 185 185 121
Width: 260
GlyphClass: 2
Flags: W
LayerCount: 2
Fore
SplineSet
184 715 m 1,0,-1
 190 715 l 1,1,-1
 190 346 l 2,2,3
 190 333 190 333 199.5 323.5 c 128,-1,4
 209 314 209 314 222 314 c 2,5,-1
 234 314 l 1,6,-1
 234 308 l 1,7,-1
 38 308 l 1,8,-1
 38 314 l 1,9,-1
 51 314 l 2,10,11
 64 314 64 314 73.5 323.5 c 128,-1,12
 83 333 83 333 83 346 c 2,13,-1
 83 632 l 2,14,15
 83 671 83 671 46 671 c 2,16,-1
 34 671 l 1,17,-1
 34 677 l 1,18,19
 137 684 137 684 184 715 c 1,0,-1
EndSplineSet
EndChar

StartChar: ordmasculine
Encoding: 186 186 122
Width: 404
GlyphClass: 2
Flags: W
LayerCount: 2
Fore
SplineSet
72 665.5 m 128,-1,1
 120 711 120 711 202 711 c 128,-1,2
 284 711 284 711 332.5 665.5 c 128,-1,3
 381 620 381 620 381 542.5 c 128,-1,4
 381 465 381 465 332.5 419.5 c 128,-1,5
 284 374 284 374 202 374 c 128,-1,6
 120 374 120 374 72 419.5 c 128,-1,7
 24 465 24 465 24 542.5 c 128,-1,0
 24 620 24 620 72 665.5 c 128,-1,1
202 398 m 0,8,9
 242 398 242 398 264 436.5 c 128,-1,10
 286 475 286 475 286 542.5 c 128,-1,11
 286 610 286 610 264 649 c 128,-1,12
 242 688 242 688 202 688 c 128,-1,13
 162 688 162 688 140.5 649 c 128,-1,14
 119 610 119 610 119 554 c 128,-1,15
 119 498 119 498 128 466 c 0,16,17
 148 398 148 398 202 398 c 0,8,9
EndSplineSet
EndChar

StartChar: guillemotright
Encoding: 187 187 123
Width: 501
GlyphClass: 2
Flags: W
LayerCount: 2
Fore
SplineSet
343 292 m 1,0,-1
 243 485 l 1,1,-1
 251 490 l 1,2,3
 296 426 296 426 346 382 c 128,-1,4
 396 338 396 338 462 292 c 1,5,6
 341 205 341 205 251 89 c 1,7,-1
 242 95 l 1,8,-1
 343 292 l 1,0,-1
153 292 m 1,9,-1
 53 485 l 1,10,-1
 61 490 l 1,11,12
 106 426 106 426 156 382 c 128,-1,13
 206 338 206 338 272 292 c 1,14,15
 151 205 151 205 61 89 c 1,16,-1
 52 95 l 1,17,-1
 153 292 l 1,9,-1
EndSplineSet
EndChar

StartChar: onequarter
Encoding: 188 188 124
Width: 747
GlyphClass: 2
Flags: W
LayerCount: 2
Fore
SplineSet
590 719 m 1,0,-1
 628 694 l 1,1,-1
 150 -18 l 1,2,-1
 112 8 l 1,3,-1
 590 719 l 1,0,-1
36 677 m 1,4,5
 139 684 139 684 186 715 c 1,6,-1
 191 715 l 1,7,-1
 191 346 l 2,8,9
 191 333 191 333 201 323.5 c 128,-1,10
 211 314 211 314 224 314 c 2,11,-1
 236 314 l 1,12,-1
 236 308 l 1,13,-1
 40 308 l 1,14,-1
 40 314 l 1,15,-1
 53 314 l 2,16,17
 66 314 66 314 75.5 323.5 c 128,-1,18
 85 333 85 333 85 346 c 2,19,-1
 85 632 l 2,20,21
 85 671 85 671 48 671 c 2,22,-1
 36 671 l 1,23,-1
 36 677 l 1,4,5
682 6 m 2,24,-1
 689 6 l 1,25,-1
 689 0 l 1,26,-1
 501 0 l 1,27,-1
 501 6 l 1,28,-1
 508 6 l 2,29,30
 527 6 527 6 538 22 c 0,31,32
 542 29 542 29 543 38 c 1,33,-1
 543 107 l 1,34,-1
 353 107 l 1,35,-1
 353 113 l 1,36,-1
 642 407 l 1,37,-1
 647 407 l 1,38,-1
 647 164 l 1,39,-1
 675 164 l 2,40,41
 702 164 702 164 714 186 c 1,42,-1
 720 186 l 1,43,-1
 702 107 l 1,44,-1
 648 107 l 1,45,-1
 648 39 l 2,46,47
 648 26 648 26 658 16 c 128,-1,48
 668 6 668 6 682 6 c 2,24,-1
543 164 m 1,49,-1
 543 261 l 1,50,-1
 447 164 l 1,51,-1
 543 164 l 1,49,-1
EndSplineSet
EndChar

StartChar: onehalf
Encoding: 189 189 125
Width: 832
GlyphClass: 2
Flags: W
LayerCount: 2
Fore
SplineSet
576 719 m 1,0,-1
 614 694 l 1,1,-1
 136 -18 l 1,2,-1
 98 8 l 1,3,-1
 576 719 l 1,0,-1
185 715 m 1,4,-1
 191 715 l 1,5,-1
 191 346 l 2,6,7
 191 333 191 333 201 323.5 c 128,-1,8
 211 314 211 314 224 314 c 2,9,-1
 236 314 l 1,10,-1
 236 308 l 1,11,-1
 40 308 l 1,12,-1
 40 314 l 1,13,-1
 52 314 l 2,14,15
 66 314 66 314 75.5 323.5 c 128,-1,16
 85 333 85 333 85 346 c 2,17,-1
 85 632 l 2,18,19
 85 671 85 671 48 671 c 2,20,-1
 36 671 l 1,21,-1
 36 677 l 1,22,23
 139 684 139 684 185 715 c 1,4,-1
521 397.5 m 128,-1,25
 560 409 560 409 603.5 409 c 128,-1,26
 647 409 647 409 684 395.5 c 128,-1,27
 721 382 721 382 742.5 355 c 128,-1,28
 764 328 764 328 764 293 c 0,29,30
 764 189 764 189 598 93 c 1,31,-1
 708 93 l 2,32,33
 742 93 742 93 765 118 c 0,34,35
 776 131 776 131 787 153 c 1,36,-1
 793 153 l 1,37,-1
 755 0 l 1,38,-1
 459 0 l 1,39,-1
 459 6 l 1,40,41
 474 23 474 23 501 54 c 128,-1,42
 528 85 528 85 545.5 105 c 128,-1,43
 563 125 563 125 585 154 c 128,-1,44
 607 183 607 183 620 205 c 0,45,46
 651 259 651 259 651 299.5 c 128,-1,47
 651 340 651 340 631 360 c 128,-1,48
 611 380 611 380 581 380 c 0,49,50
 540 380 540 380 519 349 c 128,-1,51
 498 318 498 318 498 265 c 1,52,-1
 493 265 l 1,53,-1
 458 365 l 1,54,24
 482 386 482 386 521 397.5 c 128,-1,25
EndSplineSet
EndChar

StartChar: threequarters
Encoding: 190 190 126
Width: 789
GlyphClass: 2
Flags: W
LayerCount: 2
Fore
SplineSet
649 719 m 1,0,-1
 687 694 l 1,1,-1
 209 -18 l 1,2,-1
 170 8 l 1,3,-1
 649 719 l 1,0,-1
277 678 m 1,4,5
 301 654 301 654 301 625 c 128,-1,6
 301 596 301 596 290 578 c 0,7,8
 268 543 268 543 225 539 c 1,9,10
 263 532 263 532 290.5 506.5 c 128,-1,11
 318 481 318 481 318 434.5 c 128,-1,12
 318 388 318 388 291 353 c 0,13,14
 241 288 241 288 137 288 c 0,15,16
 82 288 82 288 31 309 c 1,17,-1
 32 314 l 1,18,19
 36 314 36 314 40 314 c 0,20,21
 110 314 110 314 159 347 c 128,-1,22
 208 380 208 380 208 443 c 0,23,24
 208 474 208 474 191 495 c 0,25,26
 162 531 162 531 99 532 c 1,27,-1
 100 538 l 2,28,29
 101 538 101 538 103 538 c 0,30,31
 143 538 143 538 169.5 563 c 128,-1,32
 196 588 196 588 196 623 c 256,33,34
 196 658 196 658 176.5 671.5 c 128,-1,35
 157 685 157 685 135 685 c 0,36,37
 95 685 95 685 80 661 c 128,-1,38
 65 637 65 637 65 592 c 0,39,40
 65 588 65 588 65 584 c 1,41,-1
 59 584 l 1,42,-1
 31 676 l 1,43,44
 73 713 73 713 156 713 c 128,-1,45
 239 713 239 713 277 678 c 1,4,5
733 6 m 2,46,-1
 739 6 l 1,47,-1
 739 0 l 1,48,-1
 552 0 l 1,49,-1
 552 6 l 1,50,-1
 558 6 l 2,51,52
 572 6 572 6 582 15.5 c 128,-1,53
 592 25 592 25 593 38 c 1,54,-1
 593 107 l 1,55,-1
 404 107 l 1,56,-1
 404 113 l 1,57,-1
 692 407 l 1,58,-1
 698 407 l 1,59,-1
 698 164 l 1,60,-1
 725 164 l 2,61,62
 752 164 752 164 764 186 c 1,63,-1
 770 186 l 1,64,-1
 752 107 l 1,65,-1
 698 107 l 1,66,-1
 698 39 l 2,67,68
 698 20 698 20 716 10 c 0,69,70
 723 6 723 6 733 6 c 2,46,-1
593 164 m 1,71,-1
 593 261 l 1,72,-1
 497 164 l 1,73,-1
 593 164 l 1,71,-1
EndSplineSet
EndChar

StartChar: questiondown
Encoding: 191 191 127
Width: 487
GlyphClass: 2
Flags: W
LayerCount: 2
Fore
SplineSet
203 689 m 128,-1,1
 224 710 224 710 248.5 710 c 128,-1,2
 273 710 273 710 290 700 c 0,3,4
 327 680 327 680 326 638 c 1,5,6
 327 608 327 608 305.5 586.5 c 128,-1,7
 284 565 284 565 254 565 c 128,-1,8
 224 565 224 565 203 586.5 c 128,-1,9
 182 608 182 608 182 638 c 256,10,0
 182 668 182 668 203 689 c 128,-1,1
262 -14 m 0,11,12
 155 -14 155 -14 96.5 32 c 128,-1,13
 38 78 38 78 38 160 c 0,14,15
 38 196 38 196 54 229 c 128,-1,16
 70 262 70 262 89 282 c 128,-1,17
 108 302 108 302 143 335.5 c 128,-1,18
 178 369 178 369 194.5 387.5 c 128,-1,19
 211 406 211 406 217.5 414 c 128,-1,20
 224 422 224 422 231 437 c 0,21,22
 244 463 244 463 224 497 c 1,23,-1
 231 503 l 1,24,25
 310 468 310 468 310 399 c 0,26,27
 310 352 310 352 268 305 c 0,28,29
 251 287 251 287 235 267 c 0,30,31
 198 221 198 221 198 158 c 128,-1,32
 198 95 198 95 225 61.5 c 128,-1,33
 252 28 252 28 302.5 28 c 128,-1,34
 353 28 353 28 381.5 67 c 128,-1,35
 410 106 410 106 410 182 c 1,36,-1
 420 182 l 1,37,-1
 454 75 l 1,38,39
 431 34 431 34 380 10 c 128,-1,40
 329 -14 329 -14 262 -14 c 0,11,12
EndSplineSet
EndChar

StartChar: Agrave
Encoding: 192 192 128
Width: 705
GlyphClass: 2
Flags: W
LayerCount: 2
Fore
SplineSet
363 787 m 1,0,-1
 356 780 l 1,1,2
 255 804 255 804 151 870 c 1,3,4
 170 927 170 927 219 951 c 1,5,6
 320 860 320 860 363 787 c 1,0,-1
965 -183 m 1,7,8
 900 -216 900 -216 844 -216 c 128,-1,9
 788 -216 788 -216 738 -199.5 c 128,-1,10
 688 -183 688 -183 637 -144 c 0,11,12
 527 -60 527 -60 460 114 c 1,13,-1
 428 199 l 1,14,-1
 192 199 l 1,15,-1
 139 73 l 2,16,17
 134 60 134 60 134 52 c 128,-1,18
 134 44 134 44 137.5 34.5 c 128,-1,19
 141 25 141 25 152.5 17.5 c 128,-1,20
 164 10 164 10 178 10 c 2,21,-1
 186 10 l 1,22,-1
 186 0 l 1,23,-1
 -28 0 l 1,24,-1
 -28 10 l 1,25,-1
 -19 10 l 2,26,27
 4 10 4 10 26.5 23.5 c 128,-1,28
 49 37 49 37 64 64 c 1,29,-1
 287 573 l 1,30,31
 248 661 248 661 204 694 c 0,32,33
 167 722 167 722 133.5 722 c 128,-1,34
 100 722 100 722 71 712 c 1,35,-1
 69 722 l 1,36,37
 141 759 141 759 207 759 c 0,38,39
 289 759 289 759 354 695 c 0,40,41
 418 632 418 632 467 513 c 2,42,-1
 612 155 l 2,43,44
 694 -48 694 -48 780 -124 c 0,45,46
 815 -155 815 -155 852 -167 c 128,-1,47
 889 -179 889 -179 914.5 -179 c 128,-1,48
 940 -179 940 -179 964 -173 c 1,49,-1
 965 -183 l 1,7,8
209 242 m 1,50,-1
 413 242 l 1,51,-1
 343 427 l 2,52,53
 338 441 338 441 329 465.5 c 128,-1,54
 320 490 320 490 317 500 c 1,55,-1
 209 242 l 1,50,-1
EndSplineSet
EndChar

StartChar: Aacute
Encoding: 193 193 129
Width: 705
GlyphClass: 2
Flags: W
LayerCount: 2
Fore
SplineSet
333 778 m 1,0,-1
 326 785 l 1,1,2
 369 859 369 859 470 949 c 1,3,4
 519 924 519 924 538 868 c 1,5,6
 435 803 435 803 333 778 c 1,0,-1
965 -183 m 1,7,8
 856 -238 856 -238 744 -201 c 1,9,10
 625 -163 625 -163 539 -39 c 0,11,12
 493 27 493 27 460 114 c 2,13,-1
 428 199 l 1,14,-1
 192 199 l 1,15,-1
 139 73 l 2,16,17
 134 60 134 60 134 48.5 c 128,-1,18
 134 37 134 37 145 23.5 c 128,-1,19
 156 10 156 10 178 10 c 2,20,-1
 186 10 l 1,21,-1
 186 0 l 1,22,-1
 -28 0 l 1,23,-1
 -28 10 l 1,24,-1
 -19 10 l 2,25,26
 4 10 4 10 26.5 23.5 c 128,-1,27
 49 37 49 37 64 64 c 1,28,-1
 287 573 l 1,29,30
 248 661 248 661 204 694 c 0,31,32
 167 722 167 722 133.5 722 c 128,-1,33
 100 722 100 722 71 712 c 1,34,-1
 69 722 l 1,35,36
 141 759 141 759 207 759 c 0,37,38
 289 759 289 759 354 695 c 0,39,40
 418 632 418 632 467 513 c 2,41,-1
 612 155 l 2,42,43
 694 -48 694 -48 780 -124 c 0,44,45
 815 -155 815 -155 852 -167 c 128,-1,46
 889 -179 889 -179 914.5 -179 c 128,-1,47
 940 -179 940 -179 964 -173 c 1,48,-1
 965 -183 l 1,7,8
209 242 m 1,49,-1
 413 242 l 1,50,-1
 343 427 l 2,51,52
 338 440 338 440 328.5 466 c 128,-1,53
 319 492 319 492 317 500 c 1,54,-1
 209 242 l 1,49,-1
EndSplineSet
EndChar

StartChar: Acircumflex
Encoding: 194 194 130
Width: 705
GlyphClass: 2
Flags: W
LayerCount: 2
Fore
SplineSet
337 931 m 1,0,-1
 348 931 l 1,1,-1
 502 778 l 1,2,-1
 495 770 l 1,3,-1
 342 835 l 1,4,-1
 200 770 l 1,5,-1
 193 778 l 1,6,-1
 337 931 l 1,0,-1
965 -183 m 1,7,8
 900 -216 900 -216 844 -216 c 128,-1,9
 788 -216 788 -216 738 -199.5 c 128,-1,10
 688 -183 688 -183 637 -144 c 0,11,12
 527 -60 527 -60 460 114 c 1,13,-1
 428 199 l 1,14,-1
 192 199 l 1,15,-1
 139 73 l 2,16,17
 134 60 134 60 134 52 c 128,-1,18
 134 44 134 44 137.5 34.5 c 128,-1,19
 141 25 141 25 152.5 17.5 c 128,-1,20
 164 10 164 10 178 10 c 2,21,-1
 186 10 l 1,22,-1
 186 0 l 1,23,-1
 -28 0 l 1,24,-1
 -28 10 l 1,25,-1
 -19 10 l 2,26,27
 4 10 4 10 26.5 23.5 c 128,-1,28
 49 37 49 37 64 64 c 1,29,-1
 287 573 l 1,30,31
 248 661 248 661 204 694 c 0,32,33
 167 722 167 722 133.5 722 c 128,-1,34
 100 722 100 722 71 712 c 1,35,-1
 69 722 l 1,36,37
 141 759 141 759 207 759 c 0,38,39
 289 759 289 759 354 695 c 0,40,41
 418 632 418 632 467 513 c 2,42,-1
 612 155 l 2,43,44
 694 -48 694 -48 780 -124 c 0,45,46
 815 -155 815 -155 852 -167 c 128,-1,47
 889 -179 889 -179 914.5 -179 c 128,-1,48
 940 -179 940 -179 964 -173 c 1,49,-1
 965 -183 l 1,7,8
209 242 m 1,50,-1
 413 242 l 1,51,-1
 343 427 l 2,52,53
 338 440 338 440 328.5 466 c 128,-1,54
 319 492 319 492 317 500 c 1,55,-1
 209 242 l 1,50,-1
EndSplineSet
EndChar

StartChar: Atilde
Encoding: 195 195 131
Width: 705
GlyphClass: 2
Flags: W
LayerCount: 2
Fore
SplineSet
511 905 m 1,0,-1
 523 905 l 1,1,2
 525 895 525 895 525 884 c 0,3,4
 525 853 525 853 505 822 c 0,5,6
 478 780 478 780 427 780 c 0,7,8
 397 780 397 780 351 803.5 c 128,-1,9
 305 827 305 827 291 829 c 128,-1,10
 277 831 277 831 264.5 831 c 128,-1,11
 252 831 252 831 232 817 c 128,-1,12
 212 803 212 803 204 783 c 1,13,-1
 193 783 l 1,14,15
 192 791 192 791 192 798 c 0,16,17
 192 836 192 836 215.5 875.5 c 128,-1,18
 239 915 239 915 289 915 c 0,19,20
 316 915 316 915 364.5 890 c 128,-1,21
 413 865 413 865 452 865 c 0,22,23
 465 865 465 865 485 877 c 128,-1,24
 505 889 505 889 511 905 c 1,0,-1
965 -183 m 1,25,26
 900 -216 900 -216 844 -216 c 128,-1,27
 788 -216 788 -216 738 -199.5 c 128,-1,28
 688 -183 688 -183 637 -144 c 0,29,30
 527 -60 527 -60 460 114 c 1,31,-1
 428 199 l 1,32,-1
 192 199 l 1,33,-1
 139 73 l 2,34,35
 134 60 134 60 134 52 c 128,-1,36
 134 44 134 44 137.5 34.5 c 128,-1,37
 141 25 141 25 152.5 17.5 c 128,-1,38
 164 10 164 10 178 10 c 2,39,-1
 186 10 l 1,40,-1
 186 0 l 1,41,-1
 -28 0 l 1,42,-1
 -28 10 l 1,43,-1
 -19 10 l 2,44,45
 4 10 4 10 26.5 23.5 c 128,-1,46
 49 37 49 37 64 64 c 1,47,-1
 287 573 l 1,48,49
 248 661 248 661 204 694 c 0,50,51
 167 722 167 722 133.5 722 c 128,-1,52
 100 722 100 722 71 712 c 1,53,-1
 69 722 l 1,54,55
 141 759 141 759 207 759 c 0,56,57
 289 759 289 759 354 695 c 0,58,59
 418 632 418 632 467 513 c 2,60,-1
 612 155 l 2,61,62
 662 31 662 31 704 -31 c 0,63,64
 754 -106 754 -106 790 -131 c 0,65,66
 856 -178 856 -178 896 -178 c 0,67,68
 921 -178 921 -178 964 -173 c 1,69,-1
 965 -183 l 1,25,26
209 242 m 1,70,-1
 413 242 l 1,71,-1
 343 427 l 2,72,73
 338 441 338 441 329 465.5 c 128,-1,74
 320 490 320 490 317 500 c 1,75,-1
 209 242 l 1,70,-1
EndSplineSet
EndChar

StartChar: Adieresis
Encoding: 196 196 132
Width: 705
GlyphClass: 2
Flags: W
LayerCount: 2
Fore
SplineSet
225 775 m 128,-1,1
 200 775 200 775 182.5 792.5 c 128,-1,2
 165 810 165 810 165 835 c 128,-1,3
 165 860 165 860 182.5 877.5 c 128,-1,4
 200 895 200 895 225 895 c 128,-1,5
 250 895 250 895 267.5 877.5 c 128,-1,6
 285 860 285 860 285 835 c 128,-1,7
 285 810 285 810 267.5 792.5 c 128,-1,0
 250 775 250 775 225 775 c 128,-1,1
458 775 m 128,-1,9
 433 775 433 775 415.5 792.5 c 128,-1,10
 398 810 398 810 398 835 c 128,-1,11
 398 860 398 860 415.5 877.5 c 128,-1,12
 433 895 433 895 458 895 c 128,-1,13
 483 895 483 895 500.5 877.5 c 128,-1,14
 518 860 518 860 518 835 c 128,-1,15
 518 810 518 810 500.5 792.5 c 128,-1,8
 483 775 483 775 458 775 c 128,-1,9
965 -183 m 1,16,17
 900 -216 900 -216 844 -216 c 128,-1,18
 788 -216 788 -216 738 -199.5 c 128,-1,19
 688 -183 688 -183 637 -144 c 0,20,21
 527 -60 527 -60 460 114 c 1,22,-1
 428 199 l 1,23,-1
 192 199 l 1,24,-1
 139 73 l 2,25,26
 134 60 134 60 134 52 c 128,-1,27
 134 44 134 44 137.5 34.5 c 128,-1,28
 141 25 141 25 152.5 17.5 c 128,-1,29
 164 10 164 10 178 10 c 2,30,-1
 186 10 l 1,31,-1
 186 0 l 1,32,-1
 -28 0 l 1,33,-1
 -28 10 l 1,34,-1
 -19 10 l 2,35,36
 4 10 4 10 26.5 23.5 c 128,-1,37
 49 37 49 37 64 64 c 1,38,-1
 287 573 l 1,39,40
 248 661 248 661 204 694 c 0,41,42
 167 722 167 722 133.5 722 c 128,-1,43
 100 722 100 722 71 712 c 1,44,-1
 69 722 l 1,45,46
 141 759 141 759 207 759 c 0,47,48
 289 759 289 759 354 695 c 0,49,50
 418 632 418 632 467 513 c 2,51,-1
 612 155 l 2,52,53
 694 -48 694 -48 780 -124 c 0,54,55
 815 -155 815 -155 852 -167 c 128,-1,56
 889 -179 889 -179 914.5 -179 c 128,-1,57
 940 -179 940 -179 964 -173 c 1,58,-1
 965 -183 l 1,16,17
209 242 m 1,59,-1
 413 242 l 1,60,-1
 343 427 l 2,61,62
 338 440 338 440 328.5 466 c 128,-1,63
 319 492 319 492 317 500 c 1,64,-1
 209 242 l 1,59,-1
EndSplineSet
EndChar

StartChar: Aring
Encoding: 197 197 133
Width: 705
GlyphClass: 2
Flags: W
LayerCount: 2
Fore
SplineSet
266 923 m 128,-1,1
 297 947 297 947 335.5 947 c 128,-1,2
 374 947 374 947 398.5 936.5 c 128,-1,3
 423 926 423 926 437 907.5 c 128,-1,4
 451 889 451 889 451 865 c 128,-1,5
 451 841 451 841 437 821 c 0,6,7
 407 780 407 780 343 780 c 0,8,9
 296 780 296 780 265.5 803.5 c 128,-1,10
 235 827 235 827 235 863 c 128,-1,0
 235 899 235 899 266 923 c 128,-1,1
379.5 905.5 m 128,-1,12
 365 922 365 922 343 922 c 128,-1,13
 321 922 321 922 307 905.5 c 128,-1,14
 293 889 293 889 293 863 c 128,-1,15
 293 837 293 837 307 821 c 128,-1,16
 321 805 321 805 343 805 c 128,-1,17
 365 805 365 805 379.5 821 c 128,-1,18
 394 837 394 837 394 863 c 128,-1,11
 394 889 394 889 379.5 905.5 c 128,-1,12
965 -183 m 1,19,20
 900 -216 900 -216 844 -216 c 128,-1,21
 788 -216 788 -216 738 -199.5 c 128,-1,22
 688 -183 688 -183 637 -144 c 0,23,24
 527 -60 527 -60 460 114 c 1,25,-1
 428 199 l 1,26,-1
 192 199 l 1,27,-1
 139 73 l 2,28,29
 134 60 134 60 134 52 c 128,-1,30
 134 44 134 44 137.5 34.5 c 128,-1,31
 141 25 141 25 152.5 17.5 c 128,-1,32
 164 10 164 10 178 10 c 2,33,-1
 186 10 l 1,34,-1
 186 0 l 1,35,-1
 -28 0 l 1,36,-1
 -28 10 l 1,37,-1
 -19 10 l 2,38,39
 4 10 4 10 26.5 23.5 c 128,-1,40
 49 37 49 37 64 64 c 1,41,-1
 287 573 l 1,42,43
 248 661 248 661 204 694 c 0,44,45
 167 722 167 722 133.5 722 c 128,-1,46
 100 722 100 722 71 712 c 1,47,-1
 69 722 l 1,48,49
 141 759 141 759 207 759 c 0,50,51
 289 759 289 759 354 695 c 0,52,53
 418 632 418 632 467 513 c 2,54,-1
 612 155 l 2,55,56
 694 -48 694 -48 780 -124 c 0,57,58
 815 -155 815 -155 852 -167 c 128,-1,59
 889 -179 889 -179 914.5 -179 c 128,-1,60
 940 -179 940 -179 964 -173 c 1,61,-1
 965 -183 l 1,19,20
209 242 m 1,62,-1
 413 242 l 1,63,-1
 343 427 l 2,64,65
 338 441 338 441 329 465.5 c 128,-1,66
 320 490 320 490 317 500 c 1,67,-1
 209 242 l 1,62,-1
EndSplineSet
EndChar

StartChar: AE
Encoding: 198 198 134
Width: 913
GlyphClass: 2
Flags: W
LayerCount: 2
Fore
SplineSet
-20 -43 m 128,-1,1
 -64 -81 -64 -81 -108 -94 c 128,-1,2
 -152 -107 -152 -107 -195.5 -107 c 128,-1,3
 -239 -107 -239 -107 -285 -91 c 1,4,-1
 -284 -81 l 1,5,6
 -280 -81 -280 -81 -276 -81 c 0,7,8
 -202 -81 -202 -81 -142 -49.5 c 128,-1,9
 -82 -18 -82 -18 -18 79 c 2,10,-1
 362 651 l 1,11,12
 368 665 368 665 360.5 677 c 128,-1,13
 353 689 353 689 338 689 c 2,14,-1
 334 689 l 1,15,-1
 334 700 l 1,16,-1
 567 700 l 2,17,18
 598 700 598 700 636 706 c 128,-1,19
 674 712 674 712 689 718 c 1,20,-1
 689 549 l 1,21,-1
 679 549 l 1,22,-1
 679 559 l 2,23,24
 679 619 679 619 633 645 c 0,25,26
 612 657 612 657 582 657 c 2,27,-1
 513 657 l 1,28,-1
 513 361 l 1,29,-1
 676 361 l 1,30,31
 725 362 725 362 748 403 c 0,32,33
 758 422 758 422 758 446 c 2,34,-1
 758 455 l 1,35,-1
 768 455 l 1,36,-1
 768 224 l 1,37,-1
 758 224 l 1,38,-1
 758 233 l 1,39,40
 759 268 759 268 736 292 c 128,-1,41
 713 316 713 316 677 318 c 1,42,-1
 513 318 l 1,43,-1
 513 43 l 1,44,-1
 717 43 l 2,45,46
 783 43 783 43 831.5 83.5 c 128,-1,47
 880 124 880 124 902 195 c 1,48,-1
 912 195 l 1,49,-1
 867 0 l 1,50,-1
 304 0 l 1,51,-1
 304 10 l 1,52,-1
 314 10 l 2,53,54
 334 10 334 10 348.5 24 c 128,-1,55
 363 38 363 38 364 58 c 1,56,-1
 364 318 l 1,57,-1
 218 318 l 1,58,-1
 60 55 l 2,59,0
 24 -5 24 -5 -20 -43 c 128,-1,1
364 361 m 1,60,-1
 364 564 l 1,61,-1
 243 361 l 1,62,-1
 364 361 l 1,60,-1
EndSplineSet
EndChar

StartChar: Ccedilla
Encoding: 199 199 135
Width: 826
GlyphClass: 2
Flags: W
LayerCount: 2
Fore
SplineSet
379 -188 m 1,0,1
 430 -188 430 -188 460 -157 c 0,2,3
 477 -140 477 -140 477 -118 c 128,-1,4
 477 -96 477 -96 462 -85 c 128,-1,5
 447 -74 447 -74 426 -74 c 128,-1,6
 405 -74 405 -74 385 -81 c 1,7,-1
 380 -71 l 1,8,-1
 425 -13 l 1,9,10
 238 -3 238 -3 131 96 c 128,-1,11
 24 195 24 195 24 353.5 c 128,-1,12
 24 512 24 512 143.5 613 c 128,-1,13
 263 714 263 714 459 714 c 0,14,15
 534 714 534 714 602 699 c 128,-1,16
 670 684 670 684 715 660 c 1,17,-1
 717 488 l 1,18,-1
 709 488 l 1,19,20
 692 552 692 552 652 595 c 0,21,22
 580 672 580 672 458 672 c 128,-1,23
 336 672 336 672 261.5 585 c 128,-1,24
 187 498 187 498 187 354.5 c 128,-1,25
 187 211 187 211 264.5 121 c 128,-1,26
 342 31 342 31 478 28 c 1,27,28
 625 28 625 28 712 122 c 128,-1,29
 799 216 799 216 799 377 c 0,30,31
 799 384 799 384 799 391 c 1,32,-1
 808 391 l 1,33,34
 811 361 811 361 811 325 c 128,-1,35
 811 289 811 289 801.5 236.5 c 128,-1,36
 792 184 792 184 763 136.5 c 128,-1,37
 734 89 734 89 690 55 c 0,38,39
 604 -12 604 -12 472 -14 c 1,40,-1
 435 -57 l 1,41,42
 466 -46 466 -46 495 -54 c 0,43,44
 548 -68 548 -68 548 -117.5 c 128,-1,45
 548 -167 548 -167 491 -193 c 0,46,47
 461 -207 461 -207 432.5 -207 c 128,-1,48
 404 -207 404 -207 378 -198 c 1,49,-1
 379 -188 l 1,0,1
EndSplineSet
EndChar

StartChar: Egrave
Encoding: 200 200 136
Width: 670
GlyphClass: 2
Flags: W
LayerCount: 2
Fore
SplineSet
286 771 m 1,0,-1
 279 764 l 1,1,2
 179 788 179 788 74 854 c 1,3,4
 94 911 94 911 142 935 c 1,5,6
 244 844 244 844 286 771 c 1,0,-1
55 10 m 2,7,8
 81 10 81 10 99.5 28.5 c 128,-1,9
 118 47 118 47 119 73 c 1,10,-1
 119 630 l 1,11,12
 116 665 116 665 86 682 c 0,13,14
 71 690 71 690 55 690 c 2,15,-1
 42 690 l 1,16,-1
 42 700 l 1,17,-1
 323 700 l 2,18,19
 354 700 354 700 391 706 c 128,-1,20
 428 712 428 712 443 718 c 1,21,-1
 443 543 l 1,22,-1
 432 543 l 1,23,-1
 432 555 l 1,24,25
 433 600 433 600 406.5 627.5 c 128,-1,26
 380 655 380 655 335 657 c 1,27,-1
 269 657 l 1,28,-1
 269 366 l 1,29,-1
 428 366 l 1,30,31
 465 367 465 367 489 391 c 128,-1,32
 513 415 513 415 513 452 c 2,33,-1
 513 461 l 1,34,-1
 522 461 l 1,35,-1
 522 230 l 1,36,-1
 513 230 l 1,37,-1
 513 238 l 2,38,39
 513 275 513 275 489 299 c 128,-1,40
 465 323 465 323 429 324 c 1,41,-1
 269 324 l 1,42,-1
 269 43 l 1,43,-1
 464 43 l 2,44,45
 537 43 537 43 586.5 85 c 128,-1,46
 636 127 636 127 660 204 c 1,47,-1
 670 204 l 1,48,-1
 623 0 l 1,49,-1
 42 0 l 1,50,-1
 42 10 l 1,51,-1
 55 10 l 2,7,8
EndSplineSet
EndChar

StartChar: Eacute
Encoding: 201 201 137
Width: 670
GlyphClass: 2
Flags: W
LayerCount: 2
Fore
SplineSet
257 762 m 1,0,-1
 250 769 l 1,1,2
 293 843 293 843 393 933 c 1,3,4
 442 908 442 908 461 852 c 1,5,6
 358 787 358 787 257 762 c 1,0,-1
55 10 m 2,7,8
 81 10 81 10 99.5 28.5 c 128,-1,9
 118 47 118 47 119 73 c 1,10,-1
 119 630 l 1,11,12
 117 655 117 655 98.5 672.5 c 128,-1,13
 80 690 80 690 55 690 c 2,14,-1
 42 690 l 1,15,-1
 42 700 l 1,16,-1
 323 700 l 2,17,18
 367 700 367 700 400 707 c 128,-1,19
 433 714 433 714 443 718 c 1,20,-1
 443 543 l 1,21,-1
 432 544 l 1,22,-1
 432 555 l 1,23,24
 433 600 433 600 406.5 627.5 c 128,-1,25
 380 655 380 655 335 657 c 1,26,-1
 269 657 l 1,27,-1
 269 366 l 1,28,-1
 428 366 l 1,29,30
 465 367 465 367 489 391.5 c 128,-1,31
 513 416 513 416 513 452 c 2,32,-1
 513 461 l 1,33,-1
 522 461 l 1,34,-1
 522 230 l 1,35,-1
 513 230 l 1,36,-1
 513 238 l 2,37,38
 513 275 513 275 489 299 c 128,-1,39
 465 323 465 323 429 324 c 1,40,-1
 269 324 l 1,41,-1
 269 43 l 1,42,-1
 464 43 l 2,43,44
 537 43 537 43 586.5 85 c 128,-1,45
 636 127 636 127 660 204 c 1,46,-1
 670 204 l 1,47,-1
 623 0 l 1,48,-1
 42 0 l 1,49,-1
 42 10 l 1,50,-1
 55 10 l 2,7,8
EndSplineSet
EndChar

StartChar: Ecircumflex
Encoding: 202 202 138
Width: 670
GlyphClass: 2
Flags: W
LayerCount: 2
Fore
SplineSet
261 915 m 1,0,-1
 272 915 l 1,1,-1
 425 762 l 1,2,-1
 418 754 l 1,3,-1
 266 819 l 1,4,-1
 123 754 l 1,5,-1
 116 762 l 1,6,-1
 261 915 l 1,0,-1
55 10 m 2,7,8
 81 10 81 10 99.5 28.5 c 128,-1,9
 118 47 118 47 119 73 c 1,10,-1
 119 630 l 1,11,12
 116 665 116 665 86 682 c 0,13,14
 71 690 71 690 55 690 c 2,15,-1
 42 690 l 1,16,-1
 42 700 l 1,17,-1
 323 700 l 2,18,19
 354 700 354 700 391 706 c 128,-1,20
 428 712 428 712 443 718 c 1,21,-1
 443 543 l 1,22,-1
 432 543 l 1,23,-1
 432 555 l 1,24,25
 433 600 433 600 406.5 627.5 c 128,-1,26
 380 655 380 655 335 657 c 1,27,-1
 269 657 l 1,28,-1
 269 366 l 1,29,-1
 428 366 l 1,30,31
 465 367 465 367 489 391 c 128,-1,32
 513 415 513 415 513 452 c 2,33,-1
 513 461 l 1,34,-1
 522 461 l 1,35,-1
 522 230 l 1,36,-1
 513 230 l 1,37,-1
 513 238 l 2,38,39
 513 275 513 275 489 299 c 128,-1,40
 465 323 465 323 429 324 c 1,41,-1
 269 324 l 1,42,-1
 269 43 l 1,43,-1
 464 43 l 2,44,45
 537 43 537 43 586.5 85 c 128,-1,46
 636 127 636 127 660 204 c 1,47,-1
 670 204 l 1,48,-1
 623 0 l 1,49,-1
 42 0 l 1,50,-1
 42 10 l 1,51,-1
 55 10 l 2,7,8
EndSplineSet
EndChar

StartChar: Edieresis
Encoding: 203 203 139
Width: 670
GlyphClass: 2
Flags: W
LayerCount: 2
Fore
SplineSet
148 759 m 128,-1,1
 123 759 123 759 105.5 776.5 c 128,-1,2
 88 794 88 794 88 819 c 128,-1,3
 88 844 88 844 105.5 861.5 c 128,-1,4
 123 879 123 879 148 879 c 128,-1,5
 173 879 173 879 190.5 861.5 c 128,-1,6
 208 844 208 844 208 819 c 128,-1,7
 208 794 208 794 190.5 776.5 c 128,-1,0
 173 759 173 759 148 759 c 128,-1,1
381.5 759 m 128,-1,9
 357 759 357 759 339 776.5 c 128,-1,10
 321 794 321 794 321 819 c 128,-1,11
 321 844 321 844 339 861.5 c 128,-1,12
 357 879 357 879 381.5 879 c 128,-1,13
 406 879 406 879 424 861.5 c 128,-1,14
 442 844 442 844 442 819 c 128,-1,15
 442 794 442 794 424 776.5 c 128,-1,8
 406 759 406 759 381.5 759 c 128,-1,9
55 10 m 2,16,17
 81 10 81 10 99.5 28.5 c 128,-1,18
 118 47 118 47 119 73 c 1,19,-1
 119 630 l 1,20,21
 116 665 116 665 86 682 c 0,22,23
 71 690 71 690 55 690 c 2,24,-1
 42 690 l 1,25,-1
 42 700 l 1,26,-1
 323 700 l 2,27,28
 367 700 367 700 400 707 c 128,-1,29
 433 714 433 714 443 718 c 1,30,-1
 443 543 l 1,31,-1
 432 543 l 1,32,-1
 432 555 l 1,33,34
 433 600 433 600 406.5 627.5 c 128,-1,35
 380 655 380 655 335 657 c 1,36,-1
 269 657 l 1,37,-1
 269 366 l 1,38,-1
 428 366 l 1,39,40
 465 367 465 367 489 391.5 c 128,-1,41
 513 416 513 416 513 452 c 2,42,-1
 513 461 l 1,43,-1
 522 461 l 1,44,-1
 522 230 l 1,45,-1
 513 230 l 1,46,-1
 513 238 l 2,47,48
 513 275 513 275 489 299 c 128,-1,49
 465 323 465 323 429 324 c 1,50,-1
 269 324 l 1,51,-1
 269 43 l 1,52,-1
 464 43 l 2,53,54
 537 43 537 43 586.5 85 c 128,-1,55
 636 127 636 127 660 204 c 1,56,-1
 670 204 l 1,57,-1
 623 0 l 1,58,-1
 42 0 l 1,59,-1
 42 10 l 1,60,-1
 55 10 l 2,16,17
EndSplineSet
EndChar

StartChar: Igrave
Encoding: 204 204 140
Width: 456
GlyphClass: 2
Flags: W
LayerCount: 2
Fore
SplineSet
282 771 m 1,0,-1
 275 764 l 1,1,2
 175 788 175 788 71 854 c 1,3,4
 90 911 90 911 138 935 c 1,5,6
 240 844 240 844 282 771 c 1,0,-1
403 10 m 2,7,-1
 416 10 l 1,8,-1
 416 0 l 1,9,-1
 112 0 l 1,10,-1
 112 10 l 1,11,-1
 125 10 l 2,12,13
 151 10 151 10 169.5 28.5 c 128,-1,14
 188 47 188 47 189 73 c 1,15,-1
 189 659 l 1,16,-1
 94 655 l 1,17,18
 0 650 0 650 0 585 c 0,19,20
 0 557 0 557 18.5 539 c 128,-1,21
 37 521 37 521 70 521 c 0,22,23
 73 521 73 521 76 521 c 1,24,-1
 76 515 l 1,25,26
 56 508 56 508 42 508 c 0,27,28
 -3 508 -3 508 -27 540 c 0,29,30
 -44 562 -44 562 -44 590 c 0,31,32
 -44 634 -44 634 -9.5 662.5 c 128,-1,33
 25 691 25 691 97 696 c 0,34,35
 110 697 110 697 181 700 c 0,36,37
 343 706 343 706 416 720 c 1,38,-1
 418 710 l 1,39,40
 375 703 375 703 357.5 681 c 128,-1,41
 340 659 340 659 339 616 c 1,42,-1
 339 73 l 1,43,44
 340 47 340 47 358.5 28.5 c 128,-1,45
 377 10 377 10 403 10 c 2,7,-1
EndSplineSet
EndChar

StartChar: Iacute
Encoding: 205 205 141
Width: 456
GlyphClass: 2
Flags: W
LayerCount: 2
Fore
SplineSet
253 762 m 1,0,-1
 246 769 l 1,1,2
 289 843 289 843 390 933 c 1,3,4
 438 908 438 908 457 852 c 1,5,6
 355 787 355 787 253 762 c 1,0,-1
403 10 m 2,7,-1
 416 10 l 1,8,-1
 416 0 l 1,9,-1
 112 0 l 1,10,-1
 112 10 l 1,11,-1
 125 10 l 2,12,13
 151 10 151 10 169.5 28.5 c 128,-1,14
 188 47 188 47 189 73 c 1,15,-1
 189 659 l 1,16,-1
 94 655 l 2,17,18
 0 651 0 651 0 585 c 0,19,20
 0 558 0 558 18.5 539.5 c 128,-1,21
 37 521 37 521 70 521 c 0,22,23
 73 521 73 521 76 521 c 1,24,-1
 76 515 l 1,25,26
 56 508 56 508 42 508 c 0,27,28
 -3 508 -3 508 -27 540 c 0,29,30
 -44 562 -44 562 -44 590 c 0,31,32
 -44 634 -44 634 -9.5 662.5 c 128,-1,33
 25 691 25 691 97 696 c 0,34,35
 110 697 110 697 181 700 c 0,36,37
 343 706 343 706 416 720 c 1,38,-1
 418 710 l 1,39,40
 375 703 375 703 357.5 681 c 128,-1,41
 340 659 340 659 339 616 c 1,42,-1
 339 73 l 1,43,44
 340 36 340 36 371 18 c 0,45,46
 386 10 386 10 403 10 c 2,7,-1
EndSplineSet
EndChar

StartChar: Icircumflex
Encoding: 206 206 142
Width: 456
GlyphClass: 2
Flags: W
LayerCount: 2
Fore
SplineSet
257 915 m 1,0,-1
 268 915 l 1,1,-1
 421 762 l 1,2,-1
 414 754 l 1,3,-1
 262 819 l 1,4,-1
 119 754 l 1,5,-1
 113 762 l 1,6,-1
 257 915 l 1,0,-1
403 10 m 2,7,-1
 416 10 l 1,8,-1
 416 0 l 1,9,-1
 112 0 l 1,10,-1
 112 10 l 1,11,-1
 125 10 l 2,12,13
 151 10 151 10 169.5 28.5 c 128,-1,14
 188 47 188 47 189 73 c 1,15,-1
 189 659 l 1,16,-1
 94 655 l 1,17,18
 0 650 0 650 0 585 c 0,19,20
 0 558 0 558 18.5 539.5 c 128,-1,21
 37 521 37 521 70 521 c 0,22,23
 73 521 73 521 76 521 c 1,24,-1
 76 515 l 1,25,26
 56 508 56 508 42 508 c 0,27,28
 -3 508 -3 508 -27 540 c 0,29,30
 -44 562 -44 562 -44 590 c 0,31,32
 -44 634 -44 634 -9.5 662.5 c 128,-1,33
 25 691 25 691 97 696 c 0,34,35
 110 697 110 697 181 700 c 0,36,37
 343 706 343 706 416 720 c 1,38,-1
 418 710 l 1,39,40
 375 703 375 703 357.5 681 c 128,-1,41
 340 659 340 659 339 616 c 1,42,-1
 339 73 l 1,43,44
 340 36 340 36 371 18 c 0,45,46
 386 10 386 10 403 10 c 2,7,-1
EndSplineSet
EndChar

StartChar: Idieresis
Encoding: 207 207 143
Width: 456
GlyphClass: 2
Flags: W
LayerCount: 2
Fore
SplineSet
144 759 m 128,-1,1
 119 759 119 759 101.5 776.5 c 128,-1,2
 84 794 84 794 84 819 c 128,-1,3
 84 844 84 844 101.5 861.5 c 128,-1,4
 119 879 119 879 144 879 c 128,-1,5
 169 879 169 879 186.5 861.5 c 128,-1,6
 204 844 204 844 204 819 c 128,-1,7
 204 794 204 794 186.5 776.5 c 128,-1,0
 169 759 169 759 144 759 c 128,-1,1
378 759 m 128,-1,9
 353 759 353 759 335.5 776.5 c 128,-1,10
 318 794 318 794 318 819 c 128,-1,11
 318 844 318 844 335.5 861.5 c 128,-1,12
 353 879 353 879 378 879 c 128,-1,13
 403 879 403 879 420.5 861.5 c 128,-1,14
 438 844 438 844 438 819 c 128,-1,15
 438 794 438 794 420.5 776.5 c 128,-1,8
 403 759 403 759 378 759 c 128,-1,9
403 10 m 2,16,-1
 416 10 l 1,17,-1
 416 0 l 1,18,-1
 112 0 l 1,19,-1
 112 10 l 1,20,-1
 125 10 l 2,21,22
 151 10 151 10 169.5 28.5 c 128,-1,23
 188 47 188 47 189 73 c 1,24,-1
 189 659 l 1,25,-1
 94 655 l 2,26,27
 0 651 0 651 0 585 c 0,28,29
 0 558 0 558 18.5 539.5 c 128,-1,30
 37 521 37 521 70 521 c 0,31,32
 73 521 73 521 76 521 c 1,33,-1
 76 515 l 1,34,35
 56 508 56 508 42 508 c 0,36,37
 -3 508 -3 508 -27 540 c 0,38,39
 -44 562 -44 562 -44 590 c 0,40,41
 -44 634 -44 634 -9.5 662.5 c 128,-1,42
 25 691 25 691 97 696 c 0,43,44
 110 697 110 697 181 700 c 0,45,46
 343 706 343 706 416 720 c 1,47,-1
 418 710 l 1,48,49
 375 703 375 703 357.5 681 c 128,-1,50
 340 659 340 659 339 616 c 1,51,-1
 339 73 l 1,52,53
 340 47 340 47 358.5 28.5 c 128,-1,54
 377 10 377 10 403 10 c 2,16,-1
EndSplineSet
EndChar

StartChar: Eth
Encoding: 208 208 144
Width: 854
GlyphClass: 2
Flags: W
LayerCount: 2
Fore
SplineSet
194 701 m 0,0,1
 214 701 214 701 261.5 701 c 128,-1,2
 309 701 309 701 426 700 c 0,3,4
 604 698 604 698 707 604.5 c 128,-1,5
 810 511 810 511 810 349.5 c 128,-1,6
 810 188 810 188 707 94 c 128,-1,7
 604 0 604 0 426 0 c 2,8,-1
 64 0 l 1,9,-1
 64 10 l 1,10,-1
 77 10 l 2,11,12
 102 10 102 10 120.5 27.5 c 128,-1,13
 139 45 139 45 141 70 c 1,14,-1
 141 329 l 1,15,-1
 64 329 l 1,16,-1
 64 371 l 1,17,-1
 141 371 l 1,18,-1
 141 654 l 1,19,20
 -16 642 -16 642 -75 550 c 0,21,22
 -87 531 -87 531 -98 507 c 1,23,-1
 -108 511 l 1,24,25
 -85 610 -85 610 -9 655 c 128,-1,26
 67 700 67 700 194 701 c 0,0,1
415 42 m 2,27,28
 522 42 522 42 584.5 125 c 128,-1,29
 647 208 647 208 647 350 c 128,-1,30
 647 492 647 492 584.5 574 c 128,-1,31
 522 656 522 656 416 656 c 0,32,33
 415 656 415 656 414 656 c 2,34,-1
 291 656 l 1,35,-1
 291 371 l 1,36,-1
 422 371 l 1,37,-1
 422 329 l 1,38,-1
 291 329 l 1,39,-1
 291 42 l 1,40,-1
 414 42 l 2,41,42
 415 42 415 42 415 42 c 2,27,28
EndSplineSet
EndChar

StartChar: Ntilde
Encoding: 209 209 145
Width: 865
GlyphClass: 2
Flags: W
LayerCount: 2
Fore
SplineSet
579 889 m 1,0,-1
 590 889 l 1,1,2
 593 878 593 878 593 868 c 0,3,4
 593 837 593 837 573 806 c 0,5,6
 546 764 546 764 494 764 c 0,7,8
 465 764 465 764 418.5 787.5 c 128,-1,9
 372 811 372 811 358 813 c 128,-1,10
 344 815 344 815 331.5 815 c 128,-1,11
 319 815 319 815 299.5 801 c 128,-1,12
 280 787 280 787 272 767 c 1,13,-1
 260 767 l 1,14,15
 259 775 259 775 259 782 c 0,16,17
 259 820 259 820 283 859.5 c 128,-1,18
 307 899 307 899 357 899 c 0,19,20
 384 899 384 899 432.5 874 c 128,-1,21
 481 849 481 849 519 849 c 0,22,23
 532 849 532 849 552 861 c 128,-1,24
 572 873 572 873 579 889 c 1,0,-1
971 -122.5 m 128,-1,26
 992 -131 992 -131 1011.5 -134.5 c 128,-1,27
 1031 -138 1031 -138 1054.5 -138 c 128,-1,28
 1078 -138 1078 -138 1103 -132 c 1,29,-1
 1107 -142 l 1,30,31
 1051 -169 1051 -169 994 -169 c 0,32,33
 863 -169 863 -169 727 -24 c 2,34,-1
 253 479 l 1,35,-1
 253 70 l 2,36,37
 253 45 253 45 271 27.5 c 128,-1,38
 289 10 289 10 314 10 c 2,39,-1
 333 10 l 1,40,-1
 333 0 l 1,41,-1
 30 0 l 1,42,-1
 30 10 l 1,43,-1
 48 10 l 2,44,45
 74 10 74 10 92 27.5 c 128,-1,46
 110 45 110 45 110 71 c 2,47,-1
 110 632 l 1,48,49
 51 700 51 700 23 722.5 c 128,-1,50
 -5 745 -5 745 -27 761 c 0,51,52
 -64 787 -64 787 -99 796.5 c 128,-1,53
 -134 806 -134 806 -158 806 c 128,-1,54
 -182 806 -182 806 -210 796 c 1,55,-1
 -214 806 l 1,56,57
 -159 838 -159 838 -101 838 c 0,58,59
 25 838 25 838 166 688 c 2,60,-1
 613 213 l 1,61,-1
 613 629 l 1,62,63
 612 655 612 655 594 672.5 c 128,-1,64
 576 690 576 690 551 690 c 2,65,-1
 533 690 l 1,66,-1
 533 700 l 1,67,-1
 836 700 l 1,68,-1
 836 690 l 1,69,-1
 817 690 l 2,70,71
 792 690 792 690 774 672.5 c 128,-1,72
 756 655 756 655 755 630 c 1,73,-1
 755 61 l 1,74,-1
 771 45 l 2,75,76
 777 39 777 39 789.5 24.5 c 128,-1,77
 802 10 802 10 812 -0.5 c 128,-1,78
 822 -11 822 -11 837.5 -27 c 128,-1,79
 853 -43 853 -43 866.5 -55 c 128,-1,80
 880 -67 880 -67 898.5 -81 c 128,-1,81
 917 -95 917 -95 933.5 -104.5 c 128,-1,25
 950 -114 950 -114 971 -122.5 c 128,-1,26
EndSplineSet
EndChar

StartChar: Ograve
Encoding: 210 210 146
Width: 930
GlyphClass: 2
Flags: W
LayerCount: 2
Fore
SplineSet
486 779 m 1,0,-1
 479 772 l 1,1,2
 379 796 379 796 274 862 c 1,3,4
 294 919 294 919 342 944 c 1,5,6
 443 853 443 853 486 779 c 1,0,-1
332 447 m 1,7,8
 314 485 314 485 314 519.5 c 128,-1,9
 314 554 314 554 323 583.5 c 128,-1,10
 332 613 332 613 353 641.5 c 128,-1,11
 374 670 374 670 412 689 c 0,12,13
 464 716 464 716 537 716 c 0,14,15
 633 716 633 716 719 667 c 0,16,17
 832 603 832 603 876 490 c 0,18,19
 901 428 901 428 901 357 c 0,20,21
 901 190 901 190 780.5 88 c 128,-1,22
 660 -14 660 -14 466.5 -14 c 128,-1,23
 273 -14 273 -14 151.5 88 c 128,-1,24
 30 190 30 190 30 356 c 0,25,26
 30 480 30 480 100.5 571.5 c 128,-1,27
 171 663 171 663 291 696 c 1,28,-1
 297 687 l 1,29,30
 246 644 246 644 220 561 c 128,-1,31
 194 478 194 478 194 382 c 0,32,33
 194 220 194 220 269 124 c 128,-1,34
 344 28 344 28 465.5 28 c 128,-1,35
 587 28 587 28 661.5 118.5 c 128,-1,36
 736 209 736 209 736 358 c 0,37,38
 736 448 736 448 708.5 520.5 c 128,-1,39
 681 593 681 593 629 632.5 c 128,-1,40
 577 672 577 672 513 672 c 0,41,42
 442 672 442 672 398 635 c 0,43,44
 336 582 336 582 336 500 c 0,45,46
 336 474 336 474 343 447 c 1,47,-1
 332 447 l 1,7,8
EndSplineSet
EndChar

StartChar: Oacute
Encoding: 211 211 147
Width: 930
GlyphClass: 2
Flags: W
LayerCount: 2
Fore
SplineSet
456 771 m 1,0,-1
 449 778 l 1,1,2
 493 852 493 852 593 942 c 1,3,4
 642 917 642 917 661 861 c 1,5,6
 558 795 558 795 456 771 c 1,0,-1
332 447 m 1,7,8
 314 485 314 485 314 519.5 c 128,-1,9
 314 554 314 554 323 583.5 c 128,-1,10
 332 613 332 613 353 641.5 c 128,-1,11
 374 670 374 670 412 689 c 0,12,13
 464 716 464 716 537 716 c 0,14,15
 633 716 633 716 719 667 c 0,16,17
 832 603 832 603 876 490 c 1,18,19
 901 429 901 429 901 357 c 0,20,21
 901 190 901 190 780.5 88 c 128,-1,22
 660 -14 660 -14 466.5 -14 c 128,-1,23
 273 -14 273 -14 151.5 88 c 128,-1,24
 30 190 30 190 30 356 c 0,25,26
 30 480 30 480 100.5 571.5 c 128,-1,27
 171 663 171 663 291 696 c 1,28,-1
 297 687 l 1,29,30
 246 644 246 644 220 561 c 128,-1,31
 194 478 194 478 194 376 c 128,-1,32
 194 274 194 274 228.5 193.5 c 128,-1,33
 263 113 263 113 324.5 70.5 c 128,-1,34
 386 28 386 28 466 28 c 0,35,36
 587 28 587 28 661.5 118.5 c 128,-1,37
 736 209 736 209 736 358 c 0,38,39
 736 448 736 448 708.5 520.5 c 128,-1,40
 681 593 681 593 629 632.5 c 128,-1,41
 577 672 577 672 513 672 c 0,42,43
 442 672 442 672 398 635 c 0,44,45
 336 582 336 582 336 500 c 0,46,47
 336 474 336 474 343 447 c 1,48,-1
 332 447 l 1,7,8
EndSplineSet
EndChar

StartChar: Ocircumflex
Encoding: 212 212 148
Width: 930
GlyphClass: 2
Flags: W
LayerCount: 2
Fore
SplineSet
460 924 m 1,0,-1
 472 924 l 1,1,-1
 625 770 l 1,2,-1
 618 762 l 1,3,-1
 465 828 l 1,4,-1
 323 763 l 1,5,-1
 316 771 l 1,6,-1
 460 924 l 1,0,-1
332 447 m 1,7,8
 314 485 314 485 314 519.5 c 128,-1,9
 314 554 314 554 323 583.5 c 128,-1,10
 332 613 332 613 353 641.5 c 128,-1,11
 374 670 374 670 412 689 c 0,12,13
 464 716 464 716 537 716 c 0,14,15
 633 716 633 716 719 667 c 0,16,17
 832 603 832 603 876 490 c 0,18,19
 901 428 901 428 901 357 c 0,20,21
 901 190 901 190 780.5 88 c 128,-1,22
 660 -14 660 -14 466.5 -14 c 128,-1,23
 273 -14 273 -14 151.5 88 c 128,-1,24
 30 190 30 190 30 356 c 0,25,26
 30 480 30 480 101 571.5 c 128,-1,27
 172 663 172 663 291 696 c 1,28,-1
 297 687 l 1,29,30
 246 644 246 644 220 561 c 128,-1,31
 194 478 194 478 194 382 c 0,32,33
 194 220 194 220 269 124 c 128,-1,34
 344 28 344 28 465.5 28 c 128,-1,35
 587 28 587 28 661.5 118.5 c 128,-1,36
 736 209 736 209 736 358 c 0,37,38
 736 448 736 448 709 520.5 c 128,-1,39
 682 593 682 593 629.5 632.5 c 128,-1,40
 577 672 577 672 513 672 c 0,41,42
 442 672 442 672 398 635 c 0,43,44
 336 582 336 582 336 500 c 0,45,46
 336 474 336 474 343 447 c 1,47,-1
 332 447 l 1,7,8
EndSplineSet
EndChar

StartChar: Otilde
Encoding: 213 213 149
Width: 930
GlyphClass: 2
Flags: W
LayerCount: 2
Fore
SplineSet
635 898 m 1,0,-1
 646 898 l 1,1,2
 648 887 648 887 648 876 c 0,3,4
 648 846 648 846 629 814 c 1,5,6
 602 773 602 773 550 773 c 0,7,8
 520 773 520 773 474 796.5 c 128,-1,9
 428 820 428 820 414 821.5 c 128,-1,10
 400 823 400 823 387.5 823 c 128,-1,11
 375 823 375 823 355 809.5 c 128,-1,12
 335 796 335 796 327 776 c 1,13,-1
 316 776 l 1,14,15
 315 783 315 783 315 791 c 0,16,17
 315 829 315 829 338.5 868 c 128,-1,18
 362 907 362 907 412 907 c 0,19,20
 440 907 440 907 488.5 882.5 c 128,-1,21
 537 858 537 858 575 858 c 0,22,23
 588 858 588 858 608 869.5 c 128,-1,24
 628 881 628 881 635 898 c 1,0,-1
332 447 m 1,25,26
 314 485 314 485 314 519.5 c 128,-1,27
 314 554 314 554 323 583.5 c 128,-1,28
 332 613 332 613 353 641.5 c 128,-1,29
 374 670 374 670 412 689 c 0,30,31
 464 716 464 716 537 716 c 0,32,33
 633 716 633 716 719 667 c 0,34,35
 832 603 832 603 876 490 c 0,36,37
 901 428 901 428 901 357 c 0,38,39
 901 190 901 190 780.5 88 c 128,-1,40
 660 -14 660 -14 466.5 -14 c 128,-1,41
 273 -14 273 -14 151.5 88 c 128,-1,42
 30 190 30 190 30 356 c 0,43,44
 30 480 30 480 101 571.5 c 128,-1,45
 172 663 172 663 291 696 c 1,46,-1
 297 687 l 1,47,48
 246 644 246 644 220 561 c 128,-1,49
 194 478 194 478 194 376 c 128,-1,50
 194 274 194 274 228.5 193.5 c 128,-1,51
 263 113 263 113 324.5 70.5 c 128,-1,52
 386 28 386 28 466 28 c 0,53,54
 587 28 587 28 661.5 118.5 c 128,-1,55
 736 209 736 209 736 358 c 0,56,57
 736 448 736 448 709 520.5 c 128,-1,58
 682 593 682 593 629.5 632.5 c 128,-1,59
 577 672 577 672 513 672 c 0,60,61
 442 672 442 672 398 635 c 0,62,63
 336 582 336 582 336 500 c 0,64,65
 336 474 336 474 343 447 c 1,66,-1
 332 447 l 1,25,26
EndSplineSet
EndChar

StartChar: Odieresis
Encoding: 214 214 150
Width: 930
GlyphClass: 2
Flags: W
LayerCount: 2
Fore
SplineSet
348 767 m 128,-1,1
 323 767 323 767 305.5 785 c 128,-1,2
 288 803 288 803 288 827.5 c 128,-1,3
 288 852 288 852 305.5 870 c 128,-1,4
 323 888 323 888 348 888 c 128,-1,5
 373 888 373 888 390.5 870 c 128,-1,6
 408 852 408 852 408 827.5 c 128,-1,7
 408 803 408 803 390.5 785 c 128,-1,0
 373 767 373 767 348 767 c 128,-1,1
581.5 767 m 128,-1,9
 557 767 557 767 539 785 c 128,-1,10
 521 803 521 803 521 827.5 c 128,-1,11
 521 852 521 852 539 870 c 128,-1,12
 557 888 557 888 581.5 888 c 128,-1,13
 606 888 606 888 623.5 870 c 128,-1,14
 641 852 641 852 641 827.5 c 128,-1,15
 641 803 641 803 623.5 785 c 128,-1,8
 606 767 606 767 581.5 767 c 128,-1,9
332 447 m 1,16,17
 314 485 314 485 314 519.5 c 128,-1,18
 314 554 314 554 323 583.5 c 128,-1,19
 332 613 332 613 353 641.5 c 128,-1,20
 374 670 374 670 412 689 c 0,21,22
 464 716 464 716 537 716 c 0,23,24
 633 716 633 716 719 667 c 0,25,26
 832 603 832 603 876 490 c 0,27,28
 901 428 901 428 901 357 c 0,29,30
 901 190 901 190 780.5 88 c 128,-1,31
 660 -14 660 -14 466.5 -14 c 128,-1,32
 273 -14 273 -14 151.5 88 c 128,-1,33
 30 190 30 190 30 356 c 0,34,35
 30 480 30 480 100.5 571.5 c 128,-1,36
 171 663 171 663 291 696 c 1,37,-1
 297 687 l 1,38,39
 246 644 246 644 220 561 c 128,-1,40
 194 478 194 478 194 382 c 0,41,42
 194 220 194 220 269 124 c 128,-1,43
 344 28 344 28 465.5 28 c 128,-1,44
 587 28 587 28 661.5 118.5 c 128,-1,45
 736 209 736 209 736 358 c 0,46,47
 736 448 736 448 708.5 520.5 c 128,-1,48
 681 593 681 593 629 632.5 c 128,-1,49
 577 672 577 672 513 672 c 0,50,51
 442 672 442 672 398 635 c 0,52,53
 336 582 336 582 336 500 c 0,54,55
 336 474 336 474 343 447 c 1,56,-1
 332 447 l 1,16,17
EndSplineSet
EndChar

StartChar: multiply
Encoding: 215 215 151
Width: 411
GlyphClass: 2
Flags: W
LayerCount: 2
Fore
SplineSet
368 432 m 1,0,-1
 247 310 l 1,1,-1
 368 188 l 1,2,-1
 328 148 l 1,3,-1
 206 269 l 1,4,-1
 84 148 l 1,5,-1
 44 188 l 1,6,-1
 166 310 l 1,7,-1
 44 432 l 1,8,-1
 84 472 l 1,9,-1
 206 350 l 1,10,-1
 328 472 l 1,11,-1
 368 432 l 1,0,-1
EndSplineSet
EndChar

StartChar: Oslash
Encoding: 216 216 152
Width: 914
GlyphClass: 2
Flags: W
LayerCount: 2
Fore
SplineSet
322 447 m 1,0,1
 305 485 305 485 305 519.5 c 128,-1,2
 305 554 305 554 314 583.5 c 128,-1,3
 323 613 323 613 344 641.5 c 128,-1,4
 365 670 365 670 403 689 c 0,5,6
 455 716 455 716 534.5 716 c 128,-1,7
 614 716 614 716 695 675 c 1,8,-1
 737 725 l 1,9,-1
 773 695 l 1,10,-1
 736 651 l 1,11,12
 807 604 807 604 849 529 c 128,-1,13
 891 454 891 454 891 357 c 0,14,15
 891 190 891 190 770 88 c 128,-1,16
 649 -14 649 -14 456 -14 c 0,17,18
 320 -14 320 -14 217 38 c 1,19,-1
 165 -23 l 1,20,-1
 128 7 l 1,21,-1
 175 63 l 1,22,23
 101 112 101 112 61 187.5 c 128,-1,24
 21 263 21 263 21 356 c 0,25,26
 21 480 21 480 91.5 571.5 c 128,-1,27
 162 663 162 663 282 696 c 1,28,-1
 288 687 l 1,29,30
 237 644 237 644 211 561 c 128,-1,31
 185 478 185 478 185 382 c 0,32,33
 185 238 185 238 245 145 c 1,34,-1
 642 613 l 1,35,36
 585 672 585 672 504 672 c 0,37,38
 433 672 433 672 389 635 c 0,39,40
 327 582 327 582 327 500 c 0,41,42
 327 474 327 474 334 447 c 1,43,-1
 322 447 l 1,0,1
274 106 m 1,44,45
 346 28 346 28 461 28 c 128,-1,46
 576 28 576 28 651.5 118.5 c 128,-1,47
 727 209 727 209 727 348.5 c 128,-1,48
 727 488 727 488 672 575 c 1,49,-1
 274 106 l 1,44,45
EndSplineSet
EndChar

StartChar: Ugrave
Encoding: 217 217 153
Width: 824
GlyphClass: 2
Flags: W
LayerCount: 2
Fore
SplineSet
488 771 m 1,0,-1
 481 764 l 1,1,2
 381 788 381 788 277 854 c 1,3,4
 296 911 296 911 344 935 c 1,5,6
 446 844 446 844 488 771 c 1,0,-1
910 903 m 0,7,8
 923 903 923 903 937 902 c 1,9,-1
 937 892 l 1,10,11
 839 884 839 884 786 811 c 128,-1,12
 733 738 733 738 733 610 c 2,13,-1
 733 253 l 1,14,15
 731 82 731 82 593 18 c 0,16,17
 525 -14 525 -14 430 -14 c 0,18,19
 280 -14 280 -14 193 58.5 c 128,-1,20
 106 131 106 131 107 252 c 1,21,-1
 107 641 l 2,22,23
 107 662 107 662 91.5 676 c 128,-1,24
 76 690 76 690 54 690 c 2,25,-1
 38 690 l 1,26,-1
 38 700 l 1,27,-1
 326 700 l 1,28,-1
 326 690 l 1,29,-1
 310 690 l 2,30,31
 288 690 288 690 273 676 c 128,-1,32
 258 662 258 662 257 642 c 1,33,-1
 257 260 l 2,34,35
 257 154 257 154 312 92 c 128,-1,36
 367 30 367 30 457 30 c 0,37,38
 458 30 458 30 458 30 c 129,-1,39
 458 30 458 30 459 30 c 0,40,41
 548 30 548 30 605 88 c 128,-1,42
 662 146 662 146 662 247 c 2,43,-1
 662 610 l 2,44,45
 662 745 662 745 733.5 824 c 128,-1,46
 805 903 805 903 910 903 c 0,7,8
EndSplineSet
EndChar

StartChar: Uacute
Encoding: 218 218 154
Width: 824
GlyphClass: 2
Flags: W
LayerCount: 2
Fore
SplineSet
459 762 m 1,0,-1
 452 769 l 1,1,2
 495 843 495 843 596 933 c 1,3,4
 644 908 644 908 663 852 c 1,5,6
 561 787 561 787 459 762 c 1,0,-1
910 903 m 0,7,8
 923 903 923 903 937 902 c 1,9,-1
 937 892 l 1,10,11
 839 885 839 885 786 811.5 c 128,-1,12
 733 738 733 738 733 610 c 2,13,-1
 733 253 l 1,14,15
 731 82 731 82 593 18 c 0,16,17
 525 -14 525 -14 430 -14 c 0,18,19
 280 -14 280 -14 193 58.5 c 128,-1,20
 106 131 106 131 107 252 c 1,21,-1
 107 641 l 2,22,23
 107 662 107 662 91.5 676 c 128,-1,24
 76 690 76 690 54 690 c 2,25,-1
 38 690 l 1,26,-1
 38 700 l 1,27,-1
 326 700 l 1,28,-1
 326 690 l 1,29,-1
 310 690 l 2,30,31
 279 690 279 690 264 666 c 0,32,33
 257 655 257 655 257 642 c 2,34,-1
 257 260 l 2,35,36
 257 154 257 154 312 92 c 128,-1,37
 367 30 367 30 457 30 c 0,38,39
 458 30 458 30 458 30 c 129,-1,40
 458 30 458 30 458 30 c 1,41,42
 548 30 548 30 604 87 c 0,43,44
 662 145 662 145 662 247 c 2,45,-1
 662 610 l 2,46,47
 662 745 662 745 733.5 824 c 128,-1,48
 805 903 805 903 910 903 c 0,7,8
EndSplineSet
EndChar

StartChar: Ucircumflex
Encoding: 219 219 155
Width: 824
GlyphClass: 2
Flags: W
LayerCount: 2
Fore
SplineSet
463 915 m 1,0,-1
 474 915 l 1,1,-1
 627 762 l 1,2,-1
 620 754 l 1,3,-1
 468 819 l 1,4,-1
 325 754 l 1,5,-1
 319 762 l 1,6,-1
 463 915 l 1,0,-1
910 903 m 0,7,8
 923 903 923 903 937 902 c 1,9,-1
 937 892 l 1,10,11
 839 884 839 884 786 811 c 128,-1,12
 733 738 733 738 733 610 c 2,13,-1
 733 253 l 1,14,15
 731 127 731 127 652 56.5 c 128,-1,16
 573 -14 573 -14 426.5 -14 c 128,-1,17
 280 -14 280 -14 193 58.5 c 128,-1,18
 106 131 106 131 107 252 c 1,19,-1
 107 641 l 2,20,21
 107 662 107 662 91.5 676 c 128,-1,22
 76 690 76 690 54 690 c 2,23,-1
 38 690 l 1,24,-1
 38 700 l 1,25,-1
 326 700 l 1,26,-1
 326 690 l 1,27,-1
 310 690 l 2,28,29
 288 690 288 690 273 676 c 128,-1,30
 258 662 258 662 257 642 c 1,31,-1
 257 260 l 2,32,33
 257 154 257 154 312 92 c 128,-1,34
 367 30 367 30 457 30 c 0,35,36
 458 30 458 30 458 30 c 129,-1,37
 458 30 458 30 459 30 c 0,38,39
 548 30 548 30 605 88 c 128,-1,40
 662 146 662 146 662 247 c 2,41,-1
 662 610 l 2,42,43
 662 745 662 745 733.5 824 c 128,-1,44
 805 903 805 903 910 903 c 0,7,8
EndSplineSet
EndChar

StartChar: Udieresis
Encoding: 220 220 156
Width: 824
GlyphClass: 2
Flags: W
LayerCount: 2
Fore
SplineSet
910 903 m 0,0,1
 923 903 923 903 937 902 c 1,2,-1
 937 892 l 1,3,4
 819 883 819 883 767 780 c 0,5,6
 733 713 733 713 733 610 c 2,7,-1
 733 253 l 1,8,9
 731 127 731 127 652 56.5 c 128,-1,10
 573 -14 573 -14 426.5 -14 c 128,-1,11
 280 -14 280 -14 193 58.5 c 128,-1,12
 106 131 106 131 107 252 c 1,13,-1
 107 641 l 2,14,15
 107 662 107 662 91.5 676 c 128,-1,16
 76 690 76 690 54 690 c 2,17,-1
 38 690 l 1,18,-1
 38 700 l 1,19,-1
 326 700 l 1,20,-1
 326 690 l 1,21,-1
 310 690 l 2,22,23
 279 690 279 690 264 666 c 0,24,25
 257 655 257 655 257 642 c 2,26,-1
 257 260 l 2,27,28
 257 154 257 154 312 92 c 128,-1,29
 367 30 367 30 457 30 c 0,30,31
 458 30 458 30 458 30 c 129,-1,32
 458 30 458 30 459 30 c 0,33,34
 548 30 548 30 605 88 c 128,-1,35
 662 146 662 146 662 247 c 2,36,-1
 662 610 l 2,37,38
 662 745 662 745 733.5 824 c 128,-1,39
 805 903 805 903 910 903 c 0,0,1
350 759 m 128,-1,41
 325 759 325 759 307.5 776.5 c 128,-1,42
 290 794 290 794 290 819 c 128,-1,43
 290 844 290 844 307.5 861.5 c 128,-1,44
 325 879 325 879 350 879 c 128,-1,45
 375 879 375 879 392.5 861.5 c 128,-1,46
 410 844 410 844 410 819 c 128,-1,47
 410 794 410 794 392.5 776.5 c 128,-1,40
 375 759 375 759 350 759 c 128,-1,41
584 759 m 128,-1,49
 559 759 559 759 541.5 776.5 c 128,-1,50
 524 794 524 794 524 819 c 128,-1,51
 524 844 524 844 541.5 861.5 c 128,-1,52
 559 879 559 879 584 879 c 128,-1,53
 609 879 609 879 626.5 861.5 c 128,-1,54
 644 844 644 844 644 819 c 128,-1,55
 644 794 644 794 626.5 776.5 c 128,-1,48
 609 759 609 759 584 759 c 128,-1,49
EndSplineSet
EndChar

StartChar: Yacute
Encoding: 221 221 157
Width: 667
GlyphClass: 2
Flags: W
LayerCount: 2
Fore
SplineSet
341 762 m 1,0,-1
 334 769 l 1,1,2
 377 843 377 843 478 933 c 1,3,4
 527 908 527 908 546 852 c 1,5,6
 443 787 443 787 341 762 c 1,0,-1
-67 758 m 1,7,8
 -51 759 -51 759 -16.5 759 c 128,-1,9
 18 759 18 759 74.5 744.5 c 128,-1,10
 131 730 131 730 179 699 c 128,-1,11
 227 668 227 668 267 624 c 0,12,13
 341 542 341 542 383 427 c 1,14,15
 443 598 443 598 539 689 c 0,16,17
 612 758 612 758 700 758 c 0,18,19
 704 758 704 758 708 758 c 1,20,-1
 708 748 l 1,21,22
 658 747 658 747 604.5 695.5 c 128,-1,23
 551 644 551 644 511 571 c 128,-1,24
 471 498 471 498 443.5 419 c 128,-1,25
 416 340 416 340 411 282 c 1,26,-1
 411 73 l 2,27,28
 411 48 411 48 429.5 29 c 128,-1,29
 448 10 448 10 475 10 c 2,30,-1
 488 10 l 1,31,-1
 488 0 l 1,32,-1
 184 0 l 1,33,-1
 184 10 l 1,34,-1
 197 10 l 2,35,36
 223 10 223 10 241.5 28.5 c 128,-1,37
 260 47 260 47 261 73 c 1,38,-1
 261 283 l 1,39,40
 249 391 249 391 189 512 c 0,41,42
 120 652 120 652 34 711 c 0,43,44
 -16 746 -16 746 -67 748 c 1,45,-1
 -67 758 l 1,7,8
EndSplineSet
EndChar

StartChar: Thorn
Encoding: 222 222 158
Width: 646
GlyphClass: 2
Flags: W
LayerCount: 2
Fore
SplineSet
619 354 m 0,0,1
 619 308 619 308 601 267 c 0,2,3
 567 189 567 189 475 159 c 0,4,5
 449 150 449 150 426 150 c 0,6,7
 356 150 356 150 299 187 c 1,8,-1
 299 197 l 1,9,10
 374 195 374 195 421 246 c 0,11,12
 461 290 461 290 461 361 c 0,13,14
 461 470 461 470 385 502 c 0,15,16
 361 512 361 512 332 512 c 2,17,-1
 270 512 l 1,18,-1
 270 73 l 2,19,20
 270 47 270 47 288.5 28.5 c 128,-1,21
 307 10 307 10 334 10 c 2,22,-1
 346 10 l 1,23,-1
 346 0 l 1,24,-1
 43 0 l 1,25,-1
 43 10 l 1,26,-1
 55 10 l 2,27,28
 82 10 82 10 100.5 28.5 c 128,-1,29
 119 47 119 47 120 73 c 1,30,-1
 120 628 l 1,31,32
 119 654 119 654 100.5 672 c 128,-1,33
 82 690 82 690 56 690 c 2,34,-1
 43 690 l 1,35,-1
 43 700 l 1,36,-1
 346 700 l 1,37,-1
 346 690 l 1,38,-1
 334 690 l 2,39,40
 308 690 308 690 289 672 c 128,-1,41
 270 654 270 654 270 628 c 2,42,-1
 270 554 l 1,43,-1
 372 554 l 2,44,45
 495 554 495 554 555 502 c 0,46,47
 619 447 619 447 619 354 c 0,0,1
EndSplineSet
EndChar

StartChar: germandbls
Encoding: 223 223 159
Width: 1156
GlyphClass: 2
Flags: W
LayerCount: 2
Fore
SplineSet
628 93 m 0,0,1
 628 165 628 165 659 216 c 1,2,-1
 668 216 l 1,3,4
 667 208 667 208 667 200 c 0,5,6
 667 131 667 131 717 79.5 c 128,-1,7
 767 28 767 28 852 28 c 0,8,9
 919 28 919 28 956.5 60 c 128,-1,10
 994 92 994 92 994 141 c 0,11,12
 994 200 994 200 914 244 c 1,13,-1
 740 359 l 1,14,15
 688 389 688 389 665.5 431.5 c 128,-1,16
 643 474 643 474 643 518 c 0,17,18
 643 612 643 612 702.5 663 c 128,-1,19
 762 714 762 714 855 714 c 0,20,21
 910 714 910 714 991 704 c 1,22,-1
 1054 704 l 1,23,-1
 1041 557 l 1,24,-1
 1031 557 l 1,25,26
 1031 609 1031 609 992.5 640.5 c 128,-1,27
 954 672 954 672 890 672 c 0,28,29
 802 672 802 672 770 613 c 0,30,31
 759 594 759 594 759 572 c 0,32,33
 759 524 759 524 829 483 c 1,34,-1
 1020 359 l 1,35,36
 1110 307 1110 307 1110 206 c 0,37,38
 1110 99 1110 99 1037.5 42.5 c 128,-1,39
 965 -14 965 -14 845 -14 c 0,40,41
 777 -14 777 -14 719.5 2.5 c 128,-1,42
 662 19 662 19 635 47 c 1,43,44
 628 66 628 66 628 93 c 0,0,1
50 93 m 0,45,46
 50 165 50 165 81 216 c 1,47,-1
 90 216 l 1,48,49
 89 208 89 208 89 200 c 0,50,51
 89 131 89 131 138.5 79.5 c 128,-1,52
 188 28 188 28 274 28 c 0,53,54
 341 28 341 28 378.5 60 c 128,-1,55
 416 92 416 92 416 141 c 0,56,57
 416 200 416 200 336 244 c 1,58,-1
 162 359 l 1,59,60
 110 389 110 389 87.5 431.5 c 128,-1,61
 65 474 65 474 65 518 c 0,62,63
 65 612 65 612 124.5 663 c 128,-1,64
 184 714 184 714 277 714 c 0,65,66
 332 714 332 714 413 704 c 1,67,-1
 476 704 l 1,68,-1
 463 557 l 1,69,-1
 453 557 l 1,70,71
 453 609 453 609 414.5 640.5 c 128,-1,72
 376 672 376 672 312 672 c 0,73,74
 234 672 234 672 199 624 c 0,75,76
 181 601 181 601 181 572 c 0,77,78
 181 524 181 524 251 483 c 1,79,-1
 442 359 l 1,80,81
 532 307 532 307 532 206 c 0,82,83
 532 99 532 99 459.5 42.5 c 128,-1,84
 387 -14 387 -14 267 -14 c 0,85,86
 199 -14 199 -14 141.5 2.5 c 128,-1,87
 84 19 84 19 57 47 c 1,88,89
 50 66 50 66 50 93 c 0,45,46
EndSplineSet
EndChar

StartChar: agrave
Encoding: 224 224 160
Width: 716
GlyphClass: 2
Flags: W
LayerCount: 2
Fore
SplineSet
372 771 m 1,0,-1
 365 764 l 1,1,2
 264 788 264 788 160 854 c 1,3,4
 179 911 179 911 228 935 c 1,5,6
 329 844 329 844 372 771 c 1,0,-1
737 10 m 2,7,-1
 746 10 l 1,8,-1
 746 0 l 1,9,-1
 427 0 l 1,10,-1
 427 10 l 1,11,-1
 436 10 l 2,12,13
 458 10 458 10 468.5 23.5 c 128,-1,14
 479 37 479 37 479 49 c 128,-1,15
 479 61 479 61 474 73 c 2,16,-1
 425 196 l 1,17,-1
 191 196 l 1,18,-1
 139 73 l 2,19,20
 134 60 134 60 134 52 c 128,-1,21
 134 44 134 44 137.5 34.5 c 128,-1,22
 141 25 141 25 152.5 17.5 c 128,-1,23
 164 10 164 10 178 10 c 2,24,-1
 186 10 l 1,25,-1
 186 0 l 1,26,-1
 -28 0 l 1,27,-1
 -28 10 l 1,28,-1
 -19 10 l 2,29,30
 4 10 4 10 27 24 c 128,-1,31
 50 38 50 38 65 66 c 1,32,-1
 296 589 l 1,33,34
 343 688 343 688 346 720 c 1,35,-1
 355 720 l 1,36,-1
 652 68 l 1,37,38
 667 39 667 39 690 24.5 c 128,-1,39
 713 10 713 10 737 10 c 2,7,-1
208 238 m 1,40,-1
 408 238 l 1,41,-1
 311 484 l 1,42,-1
 208 238 l 1,40,-1
EndSplineSet
EndChar

StartChar: aacute
Encoding: 225 225 161
Width: 716
GlyphClass: 2
Flags: W
LayerCount: 2
Fore
SplineSet
342 762 m 1,0,-1
 335 769 l 1,1,2
 378 843 378 843 479 933 c 1,3,4
 527 908 527 908 547 852 c 1,5,6
 444 787 444 787 342 762 c 1,0,-1
737 10 m 2,7,-1
 746 10 l 1,8,-1
 746 0 l 1,9,-1
 427 0 l 1,10,-1
 427 10 l 1,11,-1
 436 10 l 2,12,13
 458 10 458 10 468.5 23.5 c 128,-1,14
 479 37 479 37 479 49 c 128,-1,15
 479 61 479 61 474 73 c 2,16,-1
 425 196 l 1,17,-1
 191 196 l 1,18,-1
 139 73 l 2,19,20
 134 60 134 60 134 48.5 c 128,-1,21
 134 37 134 37 144.5 23.5 c 128,-1,22
 155 10 155 10 178 10 c 2,23,-1
 186 10 l 1,24,-1
 186 0 l 1,25,-1
 -28 0 l 1,26,-1
 -28 10 l 1,27,-1
 -19 10 l 2,28,29
 4 10 4 10 27 24 c 128,-1,30
 50 38 50 38 65 66 c 1,31,-1
 296 589 l 1,32,33
 343 688 343 688 346 720 c 1,34,-1
 355 720 l 1,35,-1
 652 68 l 1,36,37
 667 39 667 39 690 24.5 c 128,-1,38
 713 10 713 10 737 10 c 2,7,-1
208 238 m 1,39,-1
 408 238 l 1,40,-1
 311 484 l 1,41,-1
 208 238 l 1,39,-1
EndSplineSet
EndChar

StartChar: acircumflex
Encoding: 226 226 162
Width: 716
GlyphClass: 2
Flags: W
LayerCount: 2
Fore
SplineSet
346 915 m 1,0,-1
 357 915 l 1,1,-1
 510 762 l 1,2,-1
 504 754 l 1,3,-1
 351 819 l 1,4,-1
 209 754 l 1,5,-1
 202 762 l 1,6,-1
 346 915 l 1,0,-1
737 10 m 2,7,-1
 746 10 l 1,8,-1
 746 0 l 1,9,-1
 427 0 l 1,10,-1
 427 10 l 1,11,-1
 436 10 l 2,12,13
 458 10 458 10 468.5 23.5 c 128,-1,14
 479 37 479 37 479 49 c 128,-1,15
 479 61 479 61 474 73 c 2,16,-1
 425 196 l 1,17,-1
 191 196 l 1,18,-1
 139 73 l 2,19,20
 134 60 134 60 134 52 c 128,-1,21
 134 44 134 44 137.5 34.5 c 128,-1,22
 141 25 141 25 152.5 17.5 c 128,-1,23
 164 10 164 10 178 10 c 2,24,-1
 186 10 l 1,25,-1
 186 0 l 1,26,-1
 -28 0 l 1,27,-1
 -28 10 l 1,28,-1
 -19 10 l 2,29,30
 4 10 4 10 27 24 c 128,-1,31
 50 38 50 38 65 66 c 1,32,-1
 296 589 l 1,33,34
 343 688 343 688 346 720 c 1,35,-1
 355 720 l 1,36,-1
 652 68 l 1,37,38
 667 39 667 39 690 24.5 c 128,-1,39
 713 10 713 10 737 10 c 2,7,-1
208 238 m 1,40,-1
 408 238 l 1,41,-1
 311 484 l 1,42,-1
 208 238 l 1,40,-1
EndSplineSet
EndChar

StartChar: atilde
Encoding: 227 227 163
Width: 716
GlyphClass: 2
Flags: W
LayerCount: 2
Fore
SplineSet
520 889 m 1,0,-1
 532 889 l 1,1,2
 534 878 534 878 534 868 c 0,3,4
 534 837 534 837 514 806 c 0,5,6
 487 764 487 764 436 764 c 0,7,8
 406 764 406 764 360 787.5 c 128,-1,9
 314 811 314 811 300 813 c 128,-1,10
 286 815 286 815 273 815 c 128,-1,11
 260 815 260 815 240.5 801 c 128,-1,12
 221 787 221 787 213 767 c 1,13,-1
 201 767 l 1,14,15
 200 775 200 775 200 782 c 0,16,17
 200 820 200 820 224 859.5 c 128,-1,18
 248 899 248 899 298 899 c 0,19,20
 325 899 325 899 373.5 874 c 128,-1,21
 422 849 422 849 461 849 c 0,22,23
 474 849 474 849 494 861 c 128,-1,24
 514 873 514 873 520 889 c 1,0,-1
737 10 m 2,25,-1
 746 10 l 1,26,-1
 746 0 l 1,27,-1
 427 0 l 1,28,-1
 427 10 l 1,29,-1
 436 10 l 2,30,31
 458 10 458 10 468.5 23.5 c 128,-1,32
 479 37 479 37 479 49 c 128,-1,33
 479 61 479 61 474 73 c 2,34,-1
 425 196 l 1,35,-1
 191 196 l 1,36,-1
 139 73 l 2,37,38
 134 60 134 60 134 48.5 c 128,-1,39
 134 37 134 37 144.5 23.5 c 128,-1,40
 155 10 155 10 178 10 c 2,41,-1
 186 10 l 1,42,-1
 186 0 l 1,43,-1
 -28 0 l 1,44,-1
 -28 10 l 1,45,-1
 -19 10 l 2,46,47
 4 10 4 10 27 24 c 128,-1,48
 50 38 50 38 65 66 c 1,49,-1
 296 589 l 1,50,51
 343 688 343 688 346 720 c 1,52,-1
 355 720 l 1,53,-1
 652 68 l 1,54,55
 667 39 667 39 690 24.5 c 128,-1,56
 713 10 713 10 737 10 c 2,25,-1
208 238 m 1,57,-1
 408 238 l 1,58,-1
 311 484 l 1,59,-1
 208 238 l 1,57,-1
EndSplineSet
EndChar

StartChar: adieresis
Encoding: 228 228 164
Width: 716
GlyphClass: 2
Flags: W
LayerCount: 2
Fore
SplineSet
234 759 m 128,-1,1
 209 759 209 759 191.5 776.5 c 128,-1,2
 174 794 174 794 174 819 c 128,-1,3
 174 844 174 844 191.5 861.5 c 128,-1,4
 209 879 209 879 234 879 c 128,-1,5
 259 879 259 879 276.5 861.5 c 128,-1,6
 294 844 294 844 294 819 c 128,-1,7
 294 794 294 794 276.5 776.5 c 128,-1,0
 259 759 259 759 234 759 c 128,-1,1
467 759 m 128,-1,9
 442 759 442 759 424.5 776.5 c 128,-1,10
 407 794 407 794 407 819 c 128,-1,11
 407 844 407 844 424.5 861.5 c 128,-1,12
 442 879 442 879 467 879 c 128,-1,13
 492 879 492 879 509.5 861.5 c 128,-1,14
 527 844 527 844 527 819 c 128,-1,15
 527 794 527 794 509.5 776.5 c 128,-1,8
 492 759 492 759 467 759 c 128,-1,9
737 10 m 2,16,-1
 746 10 l 1,17,-1
 746 0 l 1,18,-1
 427 0 l 1,19,-1
 427 10 l 1,20,-1
 436 10 l 2,21,22
 458 10 458 10 468.5 23.5 c 128,-1,23
 479 37 479 37 479 49 c 128,-1,24
 479 61 479 61 474 73 c 2,25,-1
 425 196 l 1,26,-1
 191 196 l 1,27,-1
 139 73 l 2,28,29
 134 60 134 60 134 48.5 c 128,-1,30
 134 37 134 37 144.5 23.5 c 128,-1,31
 155 10 155 10 178 10 c 2,32,-1
 186 10 l 1,33,-1
 186 0 l 1,34,-1
 -28 0 l 1,35,-1
 -28 10 l 1,36,-1
 -19 10 l 2,37,38
 4 10 4 10 27 24 c 128,-1,39
 50 38 50 38 65 66 c 1,40,-1
 296 589 l 1,41,42
 343 688 343 688 346 720 c 1,43,-1
 355 720 l 1,44,-1
 652 68 l 1,45,46
 667 39 667 39 690 24.5 c 128,-1,47
 713 10 713 10 737 10 c 2,16,-1
208 238 m 1,48,-1
 408 238 l 1,49,-1
 311 484 l 1,50,-1
 208 238 l 1,48,-1
EndSplineSet
EndChar

StartChar: aring
Encoding: 229 229 165
Width: 716
GlyphClass: 2
Flags: W
LayerCount: 2
Fore
SplineSet
274.5 907 m 128,-1,1
 306 931 306 931 352.5 931 c 128,-1,2
 399 931 399 931 429.5 908 c 128,-1,3
 460 885 460 885 460 848.5 c 128,-1,4
 460 812 460 812 429 788 c 128,-1,5
 398 764 398 764 351.5 764 c 128,-1,6
 305 764 305 764 274 787.5 c 128,-1,7
 243 811 243 811 243 847 c 128,-1,0
 243 883 243 883 274.5 907 c 128,-1,1
388.5 889.5 m 128,-1,9
 374 906 374 906 352 906 c 128,-1,10
 330 906 330 906 316 889.5 c 128,-1,11
 302 873 302 873 302 851.5 c 128,-1,12
 302 830 302 830 308 817 c 0,13,14
 322 789 322 789 348 789 c 128,-1,15
 374 789 374 789 388.5 805 c 128,-1,16
 403 821 403 821 403 847 c 128,-1,8
 403 873 403 873 388.5 889.5 c 128,-1,9
737 10 m 2,17,-1
 746 10 l 1,18,-1
 746 0 l 1,19,-1
 427 0 l 1,20,-1
 427 10 l 1,21,-1
 436 10 l 2,22,23
 458 10 458 10 468.5 23.5 c 128,-1,24
 479 37 479 37 479 49 c 128,-1,25
 479 61 479 61 474 73 c 2,26,-1
 425 196 l 1,27,-1
 191 196 l 1,28,-1
 139 73 l 2,29,30
 134 60 134 60 134 48.5 c 128,-1,31
 134 37 134 37 144.5 23.5 c 128,-1,32
 155 10 155 10 178 10 c 2,33,-1
 186 10 l 1,34,-1
 186 0 l 1,35,-1
 -28 0 l 1,36,-1
 -28 10 l 1,37,-1
 -19 10 l 2,38,39
 4 10 4 10 27 24 c 128,-1,40
 50 38 50 38 65 66 c 1,41,-1
 296 589 l 1,42,43
 343 688 343 688 346 720 c 1,44,-1
 355 720 l 1,45,-1
 652 68 l 1,46,47
 667 39 667 39 690 24.5 c 128,-1,48
 713 10 713 10 737 10 c 2,17,-1
208 238 m 1,49,-1
 408 238 l 1,50,-1
 311 484 l 1,51,-1
 208 238 l 1,49,-1
EndSplineSet
EndChar

StartChar: ae
Encoding: 230 230 166
Width: 969
GlyphClass: 2
Flags: W
LayerCount: 2
Fore
SplineSet
416 10 m 2,0,1
 436 10 436 10 450.5 24 c 128,-1,2
 465 38 465 38 466 58 c 1,3,-1
 466 318 l 1,4,-1
 306 318 l 1,5,-1
 156 71 l 2,6,7
 148 56 148 56 148 45.5 c 128,-1,8
 148 35 148 35 154 27 c 0,9,10
 166 10 166 10 188 10 c 0,11,12
 189 10 189 10 189 10 c 1,13,-1
 199 10 l 1,14,-1
 199 0 l 1,15,-1
 -24 0 l 1,16,-1
 -24 10 l 1,17,-1
 -16 10 l 2,18,19
 31 10 31 10 72 71 c 2,20,-1
 457 647 l 2,21,22
 463 657 463 657 463 664.5 c 128,-1,23
 463 672 463 672 460 677 c 0,24,25
 453 690 453 690 435 690 c 2,26,-1
 431 690 l 1,27,-1
 431 700 l 1,28,-1
 766 700 l 2,29,30
 810 700 810 700 843 707 c 128,-1,31
 876 714 876 714 885 718 c 1,32,-1
 885 549 l 1,33,-1
 875 549 l 1,34,-1
 875 559 l 1,35,36
 876 619 876 619 831 644 c 0,37,38
 809 656 809 656 780 657 c 1,39,-1
 616 657 l 1,40,-1
 616 361 l 1,41,-1
 744 361 l 1,42,43
 780 362 780 362 803.5 386 c 128,-1,44
 827 410 827 410 827 446 c 2,45,-1
 827 455 l 1,46,-1
 837 455 l 1,47,-1
 837 224 l 1,48,-1
 827 224 l 1,49,-1
 827 233 l 2,50,51
 827 282 827 282 787 306 c 0,52,53
 769 317 769 317 746 318 c 1,54,-1
 616 318 l 1,55,-1
 616 43 l 1,56,-1
 749 43 l 2,57,58
 816 43 816 43 864.5 83.5 c 128,-1,59
 913 124 913 124 935 195 c 1,60,-1
 945 195 l 1,61,-1
 900 0 l 1,62,-1
 406 0 l 1,63,-1
 407 10 l 1,64,-1
 416 10 l 2,0,1
466 361 m 1,65,-1
 466 581 l 1,66,-1
 332 361 l 1,67,-1
 466 361 l 1,65,-1
EndSplineSet
EndChar

StartChar: ccedilla
Encoding: 231 231 167
Width: 780
GlyphClass: 2
Flags: W
LayerCount: 2
Fore
SplineSet
411 -59 m 1,0,1
 426 -54 426 -54 445 -54 c 0,2,3
 493 -54 493 -54 514 -80 c 0,4,5
 525 -94 525 -94 525 -116 c 0,6,7
 525 -169 525 -169 468 -195 c 0,8,9
 437 -209 437 -209 409 -209 c 128,-1,10
 381 -209 381 -209 355 -200 c 1,11,-1
 356 -190 l 1,12,13
 407 -190 407 -190 436 -160 c 0,14,15
 454 -142 454 -142 454 -120 c 128,-1,16
 454 -98 454 -98 439 -87 c 128,-1,17
 424 -76 424 -76 403 -76 c 128,-1,18
 382 -76 382 -76 362 -83 c 1,19,-1
 357 -73 l 1,20,-1
 404 -12 l 1,21,22
 238 1 238 1 141.5 96.5 c 128,-1,23
 45 192 45 192 45 355.5 c 128,-1,24
 45 519 45 519 154 616.5 c 128,-1,25
 263 714 263 714 453 714 c 0,26,27
 598 714 598 714 702 660 c 1,28,-1
 704 488 l 1,29,-1
 696 488 l 1,30,31
 645 672 645 672 463 672 c 0,32,33
 345 672 345 672 276.5 586.5 c 128,-1,34
 208 501 208 501 208 353 c 128,-1,35
 208 205 208 205 273.5 118 c 128,-1,36
 339 31 339 31 451 28 c 1,37,38
 567 28 567 28 628 86 c 0,39,40
 690 146 690 146 714 292 c 1,41,-1
 722 292 l 1,42,-1
 732 120 l 1,43,44
 651 -14 651 -14 450 -14 c 1,45,-1
 411 -59 l 1,0,1
EndSplineSet
EndChar

StartChar: egrave
Encoding: 232 232 168
Width: 631
GlyphClass: 2
Flags: W
LayerCount: 2
Fore
SplineSet
342 771 m 1,0,-1
 335 764 l 1,1,2
 234 788 234 788 130 854 c 1,3,4
 149 911 149 911 198 935 c 1,5,6
 299 844 299 844 342 771 c 1,0,-1
55 10 m 2,7,8
 81 10 81 10 99.5 28.5 c 128,-1,9
 118 47 118 47 119 73 c 1,10,-1
 119 630 l 1,11,12
 116 665 116 665 86 682 c 0,13,14
 71 690 71 690 55 690 c 2,15,-1
 42 690 l 1,16,-1
 42 700 l 1,17,-1
 425 700 l 2,18,19
 469 700 469 700 502 707 c 128,-1,20
 535 714 535 714 545 718 c 1,21,-1
 545 543 l 1,22,-1
 535 543 l 1,23,-1
 535 555 l 2,24,25
 535 600 535 600 508.5 627.5 c 128,-1,26
 482 655 482 655 437 657 c 1,27,-1
 269 657 l 1,28,-1
 269 366 l 1,29,-1
 401 366 l 1,30,31
 438 367 438 367 462 391 c 128,-1,32
 486 415 486 415 486 452 c 2,33,-1
 486 461 l 1,34,-1
 496 461 l 1,35,-1
 496 230 l 1,36,-1
 486 230 l 1,37,-1
 486 238 l 2,38,39
 486 275 486 275 462.5 299 c 128,-1,40
 439 323 439 323 402 324 c 1,41,-1
 269 324 l 1,42,-1
 269 43 l 1,43,-1
 400 43 l 2,44,45
 473 43 473 43 522.5 85 c 128,-1,46
 572 127 572 127 596 204 c 1,47,-1
 606 204 l 1,48,-1
 560 0 l 1,49,-1
 42 0 l 1,50,-1
 42 10 l 1,51,-1
 55 10 l 2,7,8
EndSplineSet
EndChar

StartChar: eacute
Encoding: 233 233 169
Width: 631
GlyphClass: 2
Flags: W
LayerCount: 2
Fore
SplineSet
312 762 m 1,0,-1
 305 769 l 1,1,2
 348 843 348 843 449 933 c 1,3,4
 497 908 497 908 517 852 c 1,5,6
 414 787 414 787 312 762 c 1,0,-1
55 10 m 2,7,8
 81 10 81 10 99.5 28.5 c 128,-1,9
 118 47 118 47 119 73 c 1,10,-1
 119 630 l 1,11,12
 116 665 116 665 86 682 c 0,13,14
 71 690 71 690 55 690 c 2,15,-1
 42 690 l 1,16,-1
 42 700 l 1,17,-1
 425 700 l 2,18,19
 456 700 456 700 493 706 c 128,-1,20
 530 712 530 712 545 718 c 1,21,-1
 545 543 l 1,22,-1
 535 544 l 1,23,-1
 535 555 l 2,24,25
 535 616 535 616 489 643 c 0,26,27
 467 656 467 656 437 657 c 1,28,-1
 269 657 l 1,29,-1
 269 366 l 1,30,-1
 401 366 l 1,31,32
 438 367 438 367 462 391.5 c 128,-1,33
 486 416 486 416 486 452 c 2,34,-1
 486 461 l 1,35,-1
 496 461 l 1,36,-1
 496 230 l 1,37,-1
 486 230 l 1,38,-1
 486 238 l 2,39,40
 486 288 486 288 446 312 c 0,41,42
 426 323 426 323 402 324 c 1,43,-1
 269 324 l 1,44,-1
 269 43 l 1,45,-1
 400 43 l 2,46,47
 473 43 473 43 522.5 85 c 128,-1,48
 572 127 572 127 596 204 c 1,49,-1
 606 204 l 1,50,-1
 560 0 l 1,51,-1
 42 0 l 1,52,-1
 42 10 l 1,53,-1
 55 10 l 2,7,8
EndSplineSet
EndChar

StartChar: ecircumflex
Encoding: 234 234 170
Width: 631
GlyphClass: 2
Flags: W
LayerCount: 2
Fore
SplineSet
316 915 m 1,0,-1
 327 915 l 1,1,-1
 480 762 l 1,2,-1
 474 754 l 1,3,-1
 321 819 l 1,4,-1
 179 754 l 1,5,-1
 172 762 l 1,6,-1
 316 915 l 1,0,-1
55 10 m 2,7,8
 81 10 81 10 99.5 28.5 c 128,-1,9
 118 47 118 47 119 73 c 1,10,-1
 119 630 l 1,11,12
 116 665 116 665 86 682 c 0,13,14
 71 690 71 690 55 690 c 2,15,-1
 42 690 l 1,16,-1
 42 700 l 1,17,-1
 425 700 l 2,18,19
 456 700 456 700 493 706 c 128,-1,20
 530 712 530 712 545 718 c 1,21,-1
 545 543 l 1,22,-1
 535 543 l 1,23,-1
 535 555 l 2,24,25
 535 600 535 600 508.5 627.5 c 128,-1,26
 482 655 482 655 437 657 c 1,27,-1
 269 657 l 1,28,-1
 269 366 l 1,29,-1
 401 366 l 1,30,31
 438 367 438 367 462 391 c 128,-1,32
 486 415 486 415 486 452 c 2,33,-1
 486 461 l 1,34,-1
 496 461 l 1,35,-1
 496 230 l 1,36,-1
 486 230 l 1,37,-1
 486 238 l 2,38,39
 486 275 486 275 462.5 299 c 128,-1,40
 439 323 439 323 403 324 c 1,41,-1
 269 324 l 1,42,-1
 269 43 l 1,43,-1
 400 43 l 2,44,45
 473 43 473 43 522.5 85 c 128,-1,46
 572 127 572 127 596 204 c 1,47,-1
 606 204 l 1,48,-1
 560 0 l 1,49,-1
 42 0 l 1,50,-1
 42 10 l 1,51,-1
 55 10 l 2,7,8
EndSplineSet
EndChar

StartChar: edieresis
Encoding: 235 235 171
Width: 631
GlyphClass: 2
Flags: W
LayerCount: 2
Fore
SplineSet
204 759 m 128,-1,1
 179 759 179 759 161.5 776.5 c 128,-1,2
 144 794 144 794 144 819 c 128,-1,3
 144 844 144 844 161.5 861.5 c 128,-1,4
 179 879 179 879 204 879 c 128,-1,5
 229 879 229 879 246.5 861.5 c 128,-1,6
 264 844 264 844 264 819 c 128,-1,7
 264 794 264 794 246.5 776.5 c 128,-1,0
 229 759 229 759 204 759 c 128,-1,1
437 759 m 128,-1,9
 412 759 412 759 394.5 776.5 c 128,-1,10
 377 794 377 794 377 819 c 128,-1,11
 377 844 377 844 394.5 861.5 c 128,-1,12
 412 879 412 879 437 879 c 128,-1,13
 462 879 462 879 479.5 861.5 c 128,-1,14
 497 844 497 844 497 819 c 128,-1,15
 497 794 497 794 479.5 776.5 c 128,-1,8
 462 759 462 759 437 759 c 128,-1,9
55 10 m 2,16,17
 81 10 81 10 99.5 28.5 c 128,-1,18
 118 47 118 47 119 73 c 1,19,-1
 119 630 l 1,20,21
 116 665 116 665 86 682 c 0,22,23
 71 690 71 690 55 690 c 2,24,-1
 42 690 l 1,25,-1
 42 700 l 1,26,-1
 425 700 l 2,27,28
 456 700 456 700 493 706 c 128,-1,29
 530 712 530 712 545 718 c 1,30,-1
 545 543 l 1,31,-1
 535 543 l 1,32,-1
 535 555 l 2,33,34
 535 600 535 600 508.5 627.5 c 128,-1,35
 482 655 482 655 437 657 c 1,36,-1
 269 657 l 1,37,-1
 269 366 l 1,38,-1
 401 366 l 1,39,40
 438 367 438 367 462 391.5 c 128,-1,41
 486 416 486 416 486 452 c 2,42,-1
 486 461 l 1,43,-1
 496 461 l 1,44,-1
 496 230 l 1,45,-1
 486 230 l 1,46,-1
 486 238 l 2,47,48
 486 288 486 288 446 312 c 0,49,50
 426 323 426 323 402 324 c 1,51,-1
 269 324 l 1,52,-1
 269 43 l 1,53,-1
 400 43 l 2,54,55
 473 43 473 43 522.5 85 c 128,-1,56
 572 127 572 127 596 204 c 1,57,-1
 606 204 l 1,58,-1
 560 0 l 1,59,-1
 42 0 l 1,60,-1
 42 10 l 1,61,-1
 55 10 l 2,16,17
EndSplineSet
EndChar

StartChar: igrave
Encoding: 236 236 172
Width: 386
GlyphClass: 2
Flags: W
LayerCount: 2
Fore
SplineSet
212 771 m 1,0,-1
 205 764 l 1,1,2
 105 788 105 788 1 854 c 1,3,4
 20 911 20 911 68 935 c 1,5,6
 170 844 170 844 212 771 c 1,0,-1
55 10 m 2,7,8
 81 10 81 10 99.5 28.5 c 128,-1,9
 118 47 118 47 119 73 c 1,10,-1
 119 628 l 1,11,12
 118 654 118 654 99.5 672 c 128,-1,13
 81 690 81 690 55 690 c 2,14,-1
 42 690 l 1,15,-1
 42 700 l 1,16,-1
 346 700 l 1,17,-1
 345 690 l 1,18,-1
 333 690 l 2,19,20
 307 690 307 690 288 672 c 128,-1,21
 269 654 269 654 269 628 c 2,22,-1
 269 73 l 2,23,24
 269 47 269 47 288 28.5 c 128,-1,25
 307 10 307 10 333 10 c 2,26,-1
 345 10 l 1,27,-1
 346 0 l 1,28,-1
 42 0 l 1,29,-1
 42 10 l 1,30,-1
 55 10 l 2,7,8
EndSplineSet
EndChar

StartChar: iacute
Encoding: 237 237 173
Width: 386
GlyphClass: 2
Flags: W
LayerCount: 2
Fore
SplineSet
183 762 m 1,0,-1
 176 769 l 1,1,2
 219 843 219 843 320 933 c 1,3,4
 368 908 368 908 387 852 c 1,5,6
 285 787 285 787 183 762 c 1,0,-1
55 10 m 2,7,8
 81 10 81 10 99.5 28.5 c 128,-1,9
 118 47 118 47 119 73 c 1,10,-1
 119 628 l 1,11,12
 118 654 118 654 99.5 672 c 128,-1,13
 81 690 81 690 55 690 c 2,14,-1
 42 690 l 1,15,-1
 42 700 l 1,16,-1
 346 700 l 1,17,-1
 345 690 l 1,18,-1
 333 690 l 2,19,20
 307 690 307 690 288 672 c 128,-1,21
 269 654 269 654 269 628 c 2,22,-1
 269 73 l 2,23,24
 269 47 269 47 288 28.5 c 128,-1,25
 307 10 307 10 333 10 c 2,26,-1
 345 10 l 1,27,-1
 346 0 l 1,28,-1
 42 0 l 1,29,-1
 42 10 l 1,30,-1
 55 10 l 2,7,8
EndSplineSet
EndChar

StartChar: icircumflex
Encoding: 238 238 174
Width: 386
GlyphClass: 2
Flags: W
LayerCount: 2
Fore
SplineSet
187 915 m 1,0,-1
 198 915 l 1,1,-1
 351 762 l 1,2,-1
 344 754 l 1,3,-1
 192 819 l 1,4,-1
 49 754 l 1,5,-1
 42 762 l 1,6,-1
 187 915 l 1,0,-1
55 10 m 2,7,8
 81 10 81 10 99.5 28.5 c 128,-1,9
 118 47 118 47 119 73 c 1,10,-1
 119 628 l 1,11,12
 118 654 118 654 99.5 672 c 128,-1,13
 81 690 81 690 55 690 c 2,14,-1
 42 690 l 1,15,-1
 42 700 l 1,16,-1
 346 700 l 1,17,-1
 345 690 l 1,18,-1
 333 690 l 2,19,20
 307 690 307 690 288 672 c 128,-1,21
 269 654 269 654 269 628 c 2,22,-1
 269 73 l 2,23,24
 269 47 269 47 288 28.5 c 128,-1,25
 307 10 307 10 333 10 c 2,26,-1
 345 10 l 1,27,-1
 346 0 l 1,28,-1
 42 0 l 1,29,-1
 42 10 l 1,30,-1
 55 10 l 2,7,8
EndSplineSet
EndChar

StartChar: idieresis
Encoding: 239 239 175
Width: 386
GlyphClass: 2
Flags: W
LayerCount: 2
Fore
SplineSet
74 759 m 128,-1,1
 49 759 49 759 31.5 776.5 c 128,-1,2
 14 794 14 794 14 819 c 128,-1,3
 14 844 14 844 31.5 861.5 c 128,-1,4
 49 879 49 879 74 879 c 128,-1,5
 99 879 99 879 116.5 861.5 c 128,-1,6
 134 844 134 844 134 819 c 128,-1,7
 134 794 134 794 116.5 776.5 c 128,-1,0
 99 759 99 759 74 759 c 128,-1,1
308 759 m 128,-1,9
 283 759 283 759 265.5 776.5 c 128,-1,10
 248 794 248 794 248 819 c 128,-1,11
 248 844 248 844 265.5 861.5 c 128,-1,12
 283 879 283 879 308 879 c 128,-1,13
 333 879 333 879 350.5 861.5 c 128,-1,14
 368 844 368 844 368 819 c 128,-1,15
 368 794 368 794 350.5 776.5 c 128,-1,8
 333 759 333 759 308 759 c 128,-1,9
55 10 m 2,16,17
 81 10 81 10 99.5 28.5 c 128,-1,18
 118 47 118 47 119 73 c 1,19,-1
 119 628 l 1,20,21
 118 654 118 654 99.5 672 c 128,-1,22
 81 690 81 690 55 690 c 2,23,-1
 42 690 l 1,24,-1
 42 700 l 1,25,-1
 346 700 l 1,26,-1
 345 690 l 1,27,-1
 333 690 l 2,28,29
 307 690 307 690 288 672 c 128,-1,30
 269 654 269 654 269 628 c 2,31,-1
 269 73 l 2,32,33
 269 47 269 47 288 28.5 c 128,-1,34
 307 10 307 10 333 10 c 2,35,-1
 345 10 l 1,36,-1
 346 0 l 1,37,-1
 42 0 l 1,38,-1
 42 10 l 1,39,-1
 55 10 l 2,16,17
EndSplineSet
EndChar

StartChar: eth
Encoding: 240 240 176
Width: 832
GlyphClass: 2
Flags: W
LayerCount: 2
Fore
SplineSet
686 606 m 128,-1,1
 788 512 788 512 788 350 c 128,-1,2
 788 188 788 188 686 94 c 128,-1,3
 584 0 584 0 407 0 c 2,4,-1
 44 0 l 1,5,-1
 44 10 l 1,6,-1
 57 10 l 2,7,8
 83 10 83 10 101.5 28.5 c 128,-1,9
 120 47 120 47 121 73 c 1,10,-1
 121 329 l 1,11,-1
 42 329 l 1,12,-1
 42 371 l 1,13,-1
 121 371 l 1,14,-1
 121 633 l 1,15,16
 117 666 117 666 87 683 c 0,17,18
 73 690 73 690 57 690 c 2,19,-1
 44 690 l 1,20,-1
 44 700 l 1,21,-1
 407 700 l 2,22,0
 584 700 584 700 686 606 c 128,-1,1
271 329 m 1,23,-1
 271 42 l 1,24,-1
 394 42 l 2,25,26
 502 42 502 42 566 125 c 128,-1,27
 630 208 630 208 630 350 c 128,-1,28
 630 492 630 492 566 575 c 128,-1,29
 502 658 502 658 394 658 c 2,30,-1
 271 658 l 1,31,-1
 271 371 l 1,32,-1
 400 371 l 1,33,-1
 400 329 l 1,34,-1
 271 329 l 1,23,-1
EndSplineSet
EndChar

StartChar: ntilde
Encoding: 241 241 177
Width: 865
GlyphClass: 2
Flags: W
LayerCount: 2
Fore
SplineSet
585 889 m 1,0,-1
 597 889 l 1,1,2
 599 878 599 878 599 868 c 0,3,4
 599 837 599 837 579 806 c 0,5,6
 552 764 552 764 500 764 c 0,7,8
 477 764 477 764 452 775 c 128,-1,9
 427 786 427 786 401.5 799 c 128,-1,10
 376 812 376 812 363 813.5 c 128,-1,11
 350 815 350 815 337.5 815 c 128,-1,12
 325 815 325 815 305.5 801 c 128,-1,13
 286 787 286 787 278 767 c 1,14,-1
 266 767 l 1,15,16
 265 775 265 775 265 782 c 0,17,18
 265 820 265 820 289 859.5 c 128,-1,19
 313 899 313 899 363 899 c 0,20,21
 390 899 390 899 438.5 874 c 128,-1,22
 487 849 487 849 526 849 c 0,23,24
 538 849 538 849 558.5 861 c 128,-1,25
 579 873 579 873 585 889 c 1,0,-1
817 690 m 2,26,27
 782 690 782 690 764 660 c 0,28,29
 756 647 756 647 755 630 c 1,30,-1
 755 114 l 2,31,32
 755 47 755 47 764 1 c 2,33,-1
 767 -14 l 1,34,-1
 758 -14 l 1,35,-1
 253 467 l 1,36,-1
 253 70 l 2,37,38
 253 35 253 35 284 18 c 0,39,40
 298 10 298 10 314 10 c 2,41,-1
 333 10 l 1,42,-1
 333 0 l 1,43,-1
 30 0 l 1,44,-1
 30 10 l 1,45,-1
 48 10 l 2,46,47
 74 10 74 10 92 27.5 c 128,-1,48
 110 45 110 45 110 71 c 2,49,-1
 110 590 l 2,50,51
 110 656 110 656 101 700 c 1,52,-1
 99 715 l 1,53,-1
 108 715 l 1,54,-1
 613 234 l 1,55,-1
 613 629 l 1,56,57
 612 655 612 655 594 672.5 c 128,-1,58
 576 690 576 690 551 690 c 2,59,-1
 533 690 l 1,60,-1
 533 700 l 1,61,-1
 836 700 l 1,62,-1
 836 690 l 1,63,-1
 817 690 l 2,26,27
EndSplineSet
EndChar

StartChar: ograve
Encoding: 242 242 178
Width: 879
GlyphClass: 2
Flags: W
LayerCount: 2
Fore
SplineSet
460 779 m 1,0,-1
 453 772 l 1,1,2
 352 796 352 796 248 862 c 1,3,4
 267 919 267 919 316 944 c 1,5,6
 417 853 417 853 460 779 c 1,0,-1
440 714 m 0,7,8
 625 714 625 714 734 616 c 128,-1,9
 843 518 843 518 843 350 c 128,-1,10
 843 182 843 182 734 84 c 128,-1,11
 625 -14 625 -14 440 -14 c 128,-1,12
 255 -14 255 -14 146 84 c 128,-1,13
 37 182 37 182 37 350 c 0,14,15
 37 461 37 461 86.5 543.5 c 128,-1,16
 136 626 136 626 227 670 c 128,-1,17
 318 714 318 714 440 714 c 0,7,8
440 28 m 128,-1,19
 550 28 550 28 614.5 114.5 c 128,-1,20
 679 201 679 201 679 350 c 0,21,22
 679 448 679 448 650 521 c 128,-1,23
 621 594 621 594 567 633 c 128,-1,24
 513 672 513 672 440 672 c 0,25,26
 330 672 330 672 265.5 585.5 c 128,-1,27
 201 499 201 499 201 350 c 128,-1,28
 201 201 201 201 265.5 114.5 c 128,-1,18
 330 28 330 28 440 28 c 128,-1,19
EndSplineSet
EndChar

StartChar: oacute
Encoding: 243 243 179
Width: 879
GlyphClass: 2
Flags: W
LayerCount: 2
Fore
SplineSet
430 771 m 1,0,-1
 423 778 l 1,1,2
 466 852 466 852 567 942 c 1,3,4
 616 917 616 917 635 861 c 1,5,6
 532 795 532 795 430 771 c 1,0,-1
440 714 m 128,-1,8
 625 714 625 714 734 616 c 128,-1,9
 843 518 843 518 843 350 c 128,-1,10
 843 182 843 182 734 84 c 128,-1,11
 625 -14 625 -14 440 -14 c 128,-1,12
 255 -14 255 -14 146 84 c 128,-1,13
 37 182 37 182 37 350 c 128,-1,14
 37 518 37 518 146 616 c 128,-1,7
 255 714 255 714 440 714 c 128,-1,8
440 28 m 128,-1,16
 550 28 550 28 614.5 114.5 c 128,-1,17
 679 201 679 201 679 350 c 0,18,19
 679 448 679 448 650 521 c 128,-1,20
 621 594 621 594 567 633 c 128,-1,21
 513 672 513 672 440 672 c 0,22,23
 330 672 330 672 265.5 585.5 c 128,-1,24
 201 499 201 499 201 350 c 128,-1,25
 201 201 201 201 265.5 114.5 c 128,-1,15
 330 28 330 28 440 28 c 128,-1,16
EndSplineSet
EndChar

StartChar: ocircumflex
Encoding: 244 244 180
Width: 879
GlyphClass: 2
Flags: W
LayerCount: 2
Fore
SplineSet
434 924 m 1,0,-1
 445 924 l 1,1,-1
 599 770 l 1,2,-1
 592 762 l 1,3,-1
 439 828 l 1,4,-1
 297 763 l 1,5,-1
 290 771 l 1,6,-1
 434 924 l 1,0,-1
227 670 m 128,-1,8
 318 714 318 714 425 714 c 128,-1,9
 532 714 532 714 607 688.5 c 128,-1,10
 682 663 682 663 734 616.5 c 128,-1,11
 786 570 786 570 814.5 501.5 c 128,-1,12
 843 433 843 433 843 350 c 0,13,14
 843 182 843 182 734 84 c 128,-1,15
 625 -14 625 -14 440 -14 c 128,-1,16
 255 -14 255 -14 146 84 c 128,-1,17
 37 182 37 182 37 350 c 0,18,19
 37 461 37 461 86.5 543.5 c 128,-1,7
 136 626 136 626 227 670 c 128,-1,8
440 28 m 128,-1,21
 550 28 550 28 614.5 114.5 c 128,-1,22
 679 201 679 201 679 350 c 0,23,24
 679 448 679 448 650 521 c 128,-1,25
 621 594 621 594 567 633 c 128,-1,26
 513 672 513 672 440 672 c 0,27,28
 330 672 330 672 265.5 585.5 c 128,-1,29
 201 499 201 499 201 350 c 128,-1,30
 201 201 201 201 265.5 114.5 c 128,-1,20
 330 28 330 28 440 28 c 128,-1,21
EndSplineSet
EndChar

StartChar: otilde
Encoding: 245 245 181
Width: 879
GlyphClass: 2
Flags: W
LayerCount: 2
Fore
SplineSet
608 898 m 1,0,-1
 620 898 l 1,1,2
 622 887 622 887 622 876 c 0,3,4
 622 846 622 846 602 814 c 0,5,6
 575 773 575 773 524 773 c 0,7,8
 494 773 494 773 448 796.5 c 128,-1,9
 402 820 402 820 388 821.5 c 128,-1,10
 374 823 374 823 361.5 823 c 128,-1,11
 349 823 349 823 329 809.5 c 128,-1,12
 309 796 309 796 301 776 c 1,13,-1
 289 776 l 1,14,15
 289 783 289 783 289 791 c 0,16,17
 289 829 289 829 312.5 868 c 128,-1,18
 336 907 336 907 386 907 c 0,19,20
 413 907 413 907 461.5 882.5 c 128,-1,21
 510 858 510 858 549 858 c 0,22,23
 562 858 562 858 582 869.5 c 128,-1,24
 602 881 602 881 608 898 c 1,0,-1
440 714 m 0,25,26
 625 714 625 714 734 616 c 128,-1,27
 843 518 843 518 843 350 c 128,-1,28
 843 182 843 182 734 84 c 128,-1,29
 625 -14 625 -14 440 -14 c 128,-1,30
 255 -14 255 -14 146 84 c 128,-1,31
 37 182 37 182 37 350 c 0,32,33
 37 461 37 461 86.5 543.5 c 128,-1,34
 136 626 136 626 227 670 c 128,-1,35
 318 714 318 714 440 714 c 0,25,26
440 28 m 128,-1,37
 550 28 550 28 614.5 114.5 c 128,-1,38
 679 201 679 201 679 350 c 0,39,40
 679 448 679 448 650 521 c 128,-1,41
 621 594 621 594 567 633 c 128,-1,42
 513 672 513 672 440 672 c 0,43,44
 330 672 330 672 265.5 585.5 c 128,-1,45
 201 499 201 499 201 350 c 128,-1,46
 201 201 201 201 265.5 114.5 c 128,-1,36
 330 28 330 28 440 28 c 128,-1,37
EndSplineSet
EndChar

StartChar: odieresis
Encoding: 246 246 182
Width: 879
GlyphClass: 2
Flags: W
LayerCount: 2
Fore
SplineSet
322 767 m 128,-1,1
 297 767 297 767 279.5 785 c 128,-1,2
 262 803 262 803 262 827.5 c 128,-1,3
 262 852 262 852 279.5 870 c 128,-1,4
 297 888 297 888 322 888 c 128,-1,5
 347 888 347 888 364.5 870 c 128,-1,6
 382 852 382 852 382 827.5 c 128,-1,7
 382 803 382 803 364.5 785 c 128,-1,0
 347 767 347 767 322 767 c 128,-1,1
555 767 m 128,-1,9
 530 767 530 767 512.5 785 c 128,-1,10
 495 803 495 803 495 827.5 c 128,-1,11
 495 852 495 852 512.5 870 c 128,-1,12
 530 888 530 888 555 888 c 128,-1,13
 580 888 580 888 597.5 870 c 128,-1,14
 615 852 615 852 615 827.5 c 128,-1,15
 615 803 615 803 597.5 785 c 128,-1,8
 580 767 580 767 555 767 c 128,-1,9
440 714 m 0,16,17
 625 714 625 714 734 616 c 128,-1,18
 843 518 843 518 843 350 c 128,-1,19
 843 182 843 182 734 84 c 128,-1,20
 625 -14 625 -14 440 -14 c 128,-1,21
 255 -14 255 -14 146 84 c 128,-1,22
 37 182 37 182 37 350 c 0,23,24
 37 461 37 461 86.5 543.5 c 128,-1,25
 136 626 136 626 227 670 c 128,-1,26
 318 714 318 714 440 714 c 0,16,17
440 28 m 128,-1,28
 550 28 550 28 614.5 114.5 c 128,-1,29
 679 201 679 201 679 350 c 0,30,31
 679 448 679 448 650 521 c 128,-1,32
 621 594 621 594 567 633 c 128,-1,33
 513 672 513 672 440 672 c 0,34,35
 330 672 330 672 265.5 585.5 c 128,-1,36
 201 499 201 499 201 350 c 128,-1,37
 201 201 201 201 265.5 114.5 c 128,-1,27
 330 28 330 28 440 28 c 128,-1,28
EndSplineSet
EndChar

StartChar: divide
Encoding: 247 247 183
Width: 481
GlyphClass: 2
Flags: W
LayerCount: 2
Fore
SplineSet
240.5 423 m 128,-1,1
 222 423 222 423 208.5 436 c 128,-1,2
 195 449 195 449 195 468 c 128,-1,3
 195 487 195 487 208.5 500.5 c 128,-1,4
 222 514 222 514 240.5 514 c 128,-1,5
 259 514 259 514 272.5 500.5 c 128,-1,6
 286 487 286 487 286 468 c 128,-1,7
 286 449 286 449 272.5 436 c 128,-1,0
 259 423 259 423 240.5 423 c 128,-1,1
40 281 m 1,8,-1
 40 338 l 1,9,-1
 442 338 l 1,10,-1
 442 281 l 1,11,-1
 40 281 l 1,8,-1
240.5 107 m 128,-1,13
 222 107 222 107 208.5 120 c 128,-1,14
 195 133 195 133 195 152 c 128,-1,15
 195 171 195 171 208.5 184.5 c 128,-1,16
 222 198 222 198 240.5 198 c 128,-1,17
 259 198 259 198 272.5 184.5 c 128,-1,18
 286 171 286 171 286 152 c 128,-1,19
 286 133 286 133 272.5 120 c 128,-1,12
 259 107 259 107 240.5 107 c 128,-1,13
EndSplineSet
EndChar

StartChar: oslash
Encoding: 248 248 184
Width: 879
GlyphClass: 2
Flags: W
LayerCount: 2
Fore
SplineSet
843 350 m 0,0,1
 843 182 843 182 734 84 c 128,-1,2
 625 -14 625 -14 440 -14 c 0,3,4
 298 -14 298 -14 199 45 c 1,5,-1
 141 -23 l 1,6,-1
 105 8 l 1,7,-1
 160 72 l 1,8,9
 37 171 37 171 37 350 c 0,10,11
 37 461 37 461 86.5 543.5 c 128,-1,12
 136 626 136 626 227 670 c 128,-1,13
 318 714 318 714 443 714 c 128,-1,14
 568 714 568 714 663 665 c 1,15,-1
 713 725 l 1,16,-1
 750 695 l 1,17,-1
 704 640 l 1,18,19
 771 593 771 593 807 519 c 128,-1,20
 843 445 843 445 843 350 c 0,0,1
605 597 m 1,21,22
 542 672 542 672 436 672 c 128,-1,23
 330 672 330 672 265.5 585.5 c 128,-1,24
 201 499 201 499 201 350 c 0,25,26
 201 241 201 241 237 164 c 1,27,-1
 605 597 l 1,21,22
262 120 m 1,28,29
 327 28 327 28 438.5 28 c 128,-1,30
 550 28 550 28 614.5 114.5 c 128,-1,31
 679 201 679 201 679 338 c 128,-1,32
 679 475 679 475 633 557 c 1,33,-1
 262 120 l 1,28,29
EndSplineSet
EndChar

StartChar: ugrave
Encoding: 249 249 185
Width: 821
GlyphClass: 2
Flags: W
LayerCount: 2
Fore
SplineSet
470 771 m 1,0,-1
 463 764 l 1,1,2
 363 788 363 788 259 854 c 1,3,4
 278 911 278 911 326 935 c 1,5,6
 428 844 428 844 470 771 c 1,0,-1
790 690 m 1,7,-1
 773 690 l 2,8,9
 752 690 752 690 736.5 676.5 c 128,-1,10
 721 663 721 663 721 643 c 2,11,-1
 721 253 l 2,12,13
 721 130 721 130 644 58 c 128,-1,14
 567 -14 567 -14 433 -14 c 0,15,16
 275 -14 275 -14 191 56.5 c 128,-1,17
 107 127 107 127 107 252 c 2,18,-1
 107 640 l 1,19,20
 106 670 106 670 80 684 c 0,21,22
 68 690 68 690 54 690 c 2,23,-1
 38 690 l 1,24,-1
 38 700 l 1,25,-1
 326 700 l 1,26,-1
 326 690 l 1,27,-1
 310 690 l 2,28,29
 288 690 288 690 273 676.5 c 128,-1,30
 258 663 258 663 257 642 c 1,31,-1
 257 260 l 2,32,33
 257 154 257 154 309 92 c 128,-1,34
 361 30 361 30 452 30 c 128,-1,35
 543 30 543 30 596 88.5 c 128,-1,36
 649 147 649 147 650 247 c 1,37,-1
 650 642 l 2,38,39
 650 663 650 663 634.5 676.5 c 128,-1,40
 619 690 619 690 597 690 c 2,41,-1
 581 690 l 1,42,-1
 581 700 l 1,43,-1
 790 700 l 1,44,-1
 790 690 l 1,7,-1
EndSplineSet
EndChar

StartChar: uacute
Encoding: 250 250 186
Width: 821
GlyphClass: 2
Flags: W
LayerCount: 2
Fore
SplineSet
441 762 m 1,0,-1
 434 769 l 1,1,2
 477 843 477 843 578 933 c 1,3,4
 626 908 626 908 645 852 c 1,5,6
 543 787 543 787 441 762 c 1,0,-1
790 690 m 1,7,-1
 773 690 l 2,8,9
 752 690 752 690 736.5 676.5 c 128,-1,10
 721 663 721 663 721 643 c 2,11,-1
 721 253 l 2,12,13
 721 130 721 130 644 58 c 128,-1,14
 567 -14 567 -14 433 -14 c 0,15,16
 275 -14 275 -14 191 56.5 c 128,-1,17
 107 127 107 127 107 252 c 2,18,-1
 107 641 l 1,19,20
 106 670 106 670 80 684 c 0,21,22
 68 690 68 690 54 690 c 2,23,-1
 38 690 l 1,24,-1
 38 700 l 1,25,-1
 326 700 l 1,26,-1
 326 690 l 1,27,-1
 310 690 l 2,28,29
 288 690 288 690 273 676.5 c 128,-1,30
 258 663 258 663 257 642 c 1,31,-1
 257 260 l 2,32,33
 257 154 257 154 309 92 c 128,-1,34
 361 30 361 30 451 30 c 0,35,36
 543 30 543 30 596 88.5 c 128,-1,37
 649 147 649 147 650 247 c 1,38,-1
 650 642 l 2,39,40
 650 663 650 663 634.5 676.5 c 128,-1,41
 619 690 619 690 597 690 c 2,42,-1
 581 690 l 1,43,-1
 581 700 l 1,44,-1
 790 700 l 1,45,-1
 790 690 l 1,7,-1
EndSplineSet
EndChar

StartChar: ucircumflex
Encoding: 251 251 187
Width: 821
GlyphClass: 2
Flags: W
LayerCount: 2
Fore
SplineSet
445 915 m 1,0,-1
 456 915 l 1,1,-1
 609 762 l 1,2,-1
 602 754 l 1,3,-1
 450 819 l 1,4,-1
 307 754 l 1,5,-1
 300 762 l 1,6,-1
 445 915 l 1,0,-1
790 690 m 1,7,-1
 774 690 l 2,8,9
 743 690 743 690 728 667 c 0,10,11
 721 656 721 656 721 643 c 2,12,-1
 721 253 l 2,13,14
 721 130 721 130 644 58 c 128,-1,15
 567 -14 567 -14 433 -14 c 0,16,17
 275 -14 275 -14 191 56.5 c 128,-1,18
 107 127 107 127 107 252 c 2,19,-1
 107 640 l 1,20,21
 106 670 106 670 80 684 c 0,22,23
 68 690 68 690 54 690 c 2,24,-1
 38 690 l 1,25,-1
 38 700 l 1,26,-1
 326 700 l 1,27,-1
 326 690 l 1,28,-1
 310 690 l 2,29,30
 288 690 288 690 273 676.5 c 128,-1,31
 258 663 258 663 257 642 c 1,32,-1
 257 260 l 2,33,34
 257 154 257 154 309 92 c 128,-1,35
 361 30 361 30 452 30 c 128,-1,36
 543 30 543 30 596 88.5 c 128,-1,37
 649 147 649 147 650 247 c 1,38,-1
 650 642 l 2,39,40
 650 663 650 663 634.5 676.5 c 128,-1,41
 619 690 619 690 597 690 c 2,42,-1
 581 690 l 1,43,-1
 581 700 l 1,44,-1
 790 700 l 1,45,-1
 790 690 l 1,7,-1
EndSplineSet
EndChar

StartChar: udieresis
Encoding: 252 252 188
Width: 821
GlyphClass: 2
Flags: W
LayerCount: 2
Fore
SplineSet
332 759 m 128,-1,1
 307 759 307 759 289.5 776.5 c 128,-1,2
 272 794 272 794 272 819 c 128,-1,3
 272 844 272 844 289.5 861.5 c 128,-1,4
 307 879 307 879 332 879 c 128,-1,5
 357 879 357 879 374.5 861.5 c 128,-1,6
 392 844 392 844 392 819 c 128,-1,7
 392 794 392 794 374.5 776.5 c 128,-1,0
 357 759 357 759 332 759 c 128,-1,1
565.5 759 m 128,-1,9
 541 759 541 759 523.5 776.5 c 128,-1,10
 506 794 506 794 506 819 c 128,-1,11
 506 844 506 844 523.5 861.5 c 128,-1,12
 541 879 541 879 565.5 879 c 128,-1,13
 590 879 590 879 608 861.5 c 128,-1,14
 626 844 626 844 626 819 c 128,-1,15
 626 794 626 794 608 776.5 c 128,-1,8
 590 759 590 759 565.5 759 c 128,-1,9
790 690 m 1,16,-1
 773 690 l 2,17,18
 743 690 743 690 728 667 c 0,19,20
 721 656 721 656 721 643 c 2,21,-1
 721 253 l 2,22,23
 721 130 721 130 644 58 c 128,-1,24
 567 -14 567 -14 433 -14 c 0,25,26
 275 -14 275 -14 191 56.5 c 128,-1,27
 107 127 107 127 107 252 c 2,28,-1
 107 640 l 2,29,30
 107 662 107 662 91.5 676 c 128,-1,31
 76 690 76 690 54 690 c 2,32,-1
 38 690 l 1,33,-1
 38 700 l 1,34,-1
 326 700 l 1,35,-1
 326 690 l 1,36,-1
 310 690 l 2,37,38
 288 690 288 690 273 676.5 c 128,-1,39
 258 663 258 663 257 642 c 1,40,-1
 257 260 l 2,41,42
 257 154 257 154 309 92 c 128,-1,43
 361 30 361 30 452 30 c 128,-1,44
 543 30 543 30 596 88.5 c 128,-1,45
 649 147 649 147 650 247 c 1,46,-1
 650 642 l 2,47,48
 650 663 650 663 634.5 676.5 c 128,-1,49
 619 690 619 690 597 690 c 2,50,-1
 581 690 l 1,51,-1
 581 700 l 1,52,-1
 790 700 l 1,53,-1
 790 690 l 1,16,-1
EndSplineSet
EndChar

StartChar: yacute
Encoding: 253 253 189
Width: 702
GlyphClass: 2
Flags: W
LayerCount: 2
Fore
SplineSet
389 762 m 1,0,-1
 382 769 l 1,1,2
 425 843 425 843 526 933 c 1,3,4
 574 908 574 908 593 852 c 1,5,6
 491 787 491 787 389 762 c 1,0,-1
496 700 m 1,7,-1
 734 700 l 1,8,-1
 734 690 l 1,9,-1
 720 690 l 2,10,11
 690 690 690 690 663 673 c 128,-1,12
 636 656 636 656 620 632 c 2,13,-1
 423 318 l 1,14,-1
 423 73 l 2,15,16
 423 36 423 36 455 18 c 0,17,18
 470 10 470 10 487 10 c 2,19,-1
 499 10 l 1,20,-1
 500 0 l 1,21,-1
 196 0 l 1,22,-1
 196 10 l 1,23,-1
 209 10 l 2,24,25
 235 10 235 10 253.5 28 c 128,-1,26
 272 46 272 46 273 72 c 1,27,-1
 273 319 l 1,28,-1
 82 633 l 2,29,30
 61 666 61 666 22 682 c 0,31,32
 3 690 3 690 -17 690 c 2,33,-1
 -31 690 l 1,34,-1
 -31 700 l 1,35,-1
 300 700 l 1,36,-1
 300 690 l 1,37,-1
 287 690 l 2,38,39
 265 690 265 690 253 670 c 0,40,41
 247 659 247 659 247 648.5 c 128,-1,42
 247 638 247 638 252 628 c 2,43,-1
 395 368 l 1,44,-1
 543 628 l 2,45,46
 549 638 549 638 549 648.5 c 128,-1,47
 549 659 549 659 542 669 c 1,48,49
 530 690 530 690 508 690 c 2,50,-1
 496 690 l 1,51,-1
 496 700 l 1,7,-1
EndSplineSet
EndChar

StartChar: thorn
Encoding: 254 254 190
Width: 646
GlyphClass: 2
Flags: W
LayerCount: 2
Fore
SplineSet
619 354 m 0,0,1
 619 308 619 308 601 267 c 0,2,3
 567 189 567 189 475 159 c 0,4,5
 449 150 449 150 426 150 c 0,6,7
 356 150 356 150 299 187 c 1,8,-1
 299 197 l 1,9,10
 374 195 374 195 421 246 c 0,11,12
 461 290 461 290 461 361 c 0,13,14
 461 470 461 470 385 502 c 0,15,16
 361 512 361 512 332 512 c 2,17,-1
 270 512 l 1,18,-1
 270 73 l 2,19,20
 270 47 270 47 288.5 28.5 c 128,-1,21
 307 10 307 10 334 10 c 2,22,-1
 346 10 l 1,23,-1
 346 0 l 1,24,-1
 43 0 l 1,25,-1
 43 10 l 1,26,-1
 55 10 l 2,27,28
 82 10 82 10 100.5 28.5 c 128,-1,29
 119 47 119 47 120 73 c 1,30,-1
 120 628 l 1,31,32
 119 654 119 654 100.5 672 c 128,-1,33
 82 690 82 690 56 690 c 2,34,-1
 43 690 l 1,35,-1
 43 700 l 1,36,-1
 346 700 l 1,37,-1
 346 690 l 1,38,-1
 334 690 l 2,39,40
 308 690 308 690 289 672 c 128,-1,41
 270 654 270 654 270 628 c 2,42,-1
 270 554 l 1,43,-1
 372 554 l 2,44,45
 495 554 495 554 555 502 c 0,46,47
 619 447 619 447 619 354 c 0,0,1
EndSplineSet
EndChar

StartChar: ydieresis
Encoding: 255 255 191
Width: 702
GlyphClass: 2
Flags: W
LayerCount: 2
Fore
SplineSet
280 759 m 128,-1,1
 255 759 255 759 237.5 776.5 c 128,-1,2
 220 794 220 794 220 819 c 128,-1,3
 220 844 220 844 237.5 861.5 c 128,-1,4
 255 879 255 879 280 879 c 128,-1,5
 305 879 305 879 322.5 861.5 c 128,-1,6
 340 844 340 844 340 819 c 128,-1,7
 340 794 340 794 322.5 776.5 c 128,-1,0
 305 759 305 759 280 759 c 128,-1,1
514 759 m 128,-1,9
 489 759 489 759 471.5 776.5 c 128,-1,10
 454 794 454 794 454 819 c 128,-1,11
 454 844 454 844 471.5 861.5 c 128,-1,12
 489 879 489 879 514 879 c 128,-1,13
 539 879 539 879 556.5 861.5 c 128,-1,14
 574 844 574 844 574 819 c 128,-1,15
 574 794 574 794 556.5 776.5 c 128,-1,8
 539 759 539 759 514 759 c 128,-1,9
496 700 m 1,16,-1
 734 700 l 1,17,-1
 734 690 l 1,18,-1
 720 690 l 2,19,20
 690 690 690 690 663 673 c 128,-1,21
 636 656 636 656 620 632 c 2,22,-1
 423 318 l 1,23,-1
 423 73 l 2,24,25
 423 47 423 47 442 28.5 c 128,-1,26
 461 10 461 10 487 10 c 2,27,-1
 499 10 l 1,28,-1
 500 0 l 1,29,-1
 196 0 l 1,30,-1
 196 10 l 1,31,-1
 209 10 l 2,32,33
 235 10 235 10 253.5 28 c 128,-1,34
 272 46 272 46 273 72 c 1,35,-1
 273 319 l 1,36,-1
 82 633 l 2,37,38
 67 657 67 657 39.5 673.5 c 128,-1,39
 12 690 12 690 -17 690 c 2,40,-1
 -31 690 l 1,41,-1
 -31 700 l 1,42,-1
 300 700 l 1,43,-1
 300 690 l 1,44,-1
 287 690 l 2,45,46
 265 690 265 690 253 670 c 0,47,48
 247 659 247 659 247 648.5 c 128,-1,49
 247 638 247 638 252 628 c 2,50,-1
 395 368 l 1,51,-1
 543 628 l 2,52,53
 549 638 549 638 549 648.5 c 128,-1,54
 549 659 549 659 542 669 c 1,55,56
 530 690 530 690 508 690 c 2,57,-1
 496 690 l 1,58,-1
 496 700 l 1,16,-1
EndSplineSet
EndChar

StartChar: Amacron
Encoding: 256 256 192
Width: 705
GlyphClass: 2
Flags: W
LayerCount: 2
Fore
SplineSet
209 811 m 1,0,-1
 209 877 l 1,1,-1
 484 877 l 1,2,-1
 484 811 l 1,3,-1
 209 811 l 1,0,-1
965 -183 m 1,4,5
 900 -216 900 -216 844 -216 c 128,-1,6
 788 -216 788 -216 738 -199.5 c 128,-1,7
 688 -183 688 -183 637 -144 c 0,8,9
 527 -60 527 -60 460 114 c 1,10,-1
 428 199 l 1,11,-1
 192 199 l 1,12,-1
 139 73 l 2,13,14
 134 60 134 60 134 52 c 128,-1,15
 134 44 134 44 137.5 34.5 c 128,-1,16
 141 25 141 25 152.5 17.5 c 128,-1,17
 164 10 164 10 178 10 c 2,18,-1
 186 10 l 1,19,-1
 186 0 l 1,20,-1
 -28 0 l 1,21,-1
 -28 10 l 1,22,-1
 -19 10 l 2,23,24
 4 10 4 10 26.5 23.5 c 128,-1,25
 49 37 49 37 64 64 c 1,26,-1
 287 573 l 1,27,28
 248 661 248 661 204 694 c 0,29,30
 167 722 167 722 133.5 722 c 128,-1,31
 100 722 100 722 71 712 c 1,32,-1
 69 722 l 1,33,34
 141 759 141 759 207 759 c 0,35,36
 289 759 289 759 354 695 c 0,37,38
 418 632 418 632 467 513 c 2,39,-1
 612 155 l 2,40,41
 694 -48 694 -48 780 -124 c 0,42,43
 815 -155 815 -155 852 -167 c 128,-1,44
 889 -179 889 -179 914.5 -179 c 128,-1,45
 940 -179 940 -179 964 -173 c 1,46,-1
 965 -183 l 1,4,5
209 242 m 1,47,-1
 413 242 l 1,48,-1
 343 427 l 2,49,50
 338 440 338 440 328.5 466 c 128,-1,51
 319 492 319 492 317 500 c 1,52,-1
 209 242 l 1,47,-1
EndSplineSet
EndChar

StartChar: amacron
Encoding: 257 257 193
Width: 716
GlyphClass: 2
Flags: W
LayerCount: 2
Fore
SplineSet
218 795 m 1,0,-1
 218 861 l 1,1,-1
 492 861 l 1,2,-1
 492 795 l 1,3,-1
 218 795 l 1,0,-1
737 10 m 2,4,-1
 746 10 l 1,5,-1
 746 0 l 1,6,-1
 427 0 l 1,7,-1
 427 10 l 1,8,-1
 436 10 l 2,9,10
 458 10 458 10 468.5 23.5 c 128,-1,11
 479 37 479 37 479 49 c 128,-1,12
 479 61 479 61 474 73 c 2,13,-1
 425 196 l 1,14,-1
 191 196 l 1,15,-1
 139 73 l 2,16,17
 134 60 134 60 134 48.5 c 128,-1,18
 134 37 134 37 144.5 23.5 c 128,-1,19
 155 10 155 10 178 10 c 2,20,-1
 186 10 l 1,21,-1
 186 0 l 1,22,-1
 -28 0 l 1,23,-1
 -28 10 l 1,24,-1
 -19 10 l 2,25,26
 4 10 4 10 27 24 c 128,-1,27
 50 38 50 38 65 66 c 1,28,-1
 296 589 l 1,29,30
 343 688 343 688 346 720 c 1,31,-1
 355 720 l 1,32,-1
 652 68 l 1,33,34
 667 39 667 39 690 24.5 c 128,-1,35
 713 10 713 10 737 10 c 2,4,-1
208 238 m 1,36,-1
 408 238 l 1,37,-1
 311 484 l 1,38,-1
 208 238 l 1,36,-1
EndSplineSet
EndChar

StartChar: Abreve
Encoding: 258 258 194
Width: 705
GlyphClass: 2
Flags: W
LayerCount: 2
Fore
SplineSet
471 900 m 0,0,1
 471 857 471 857 436 818.5 c 128,-1,2
 401 780 401 780 343.5 780 c 128,-1,3
 286 780 286 780 251.5 818.5 c 128,-1,4
 217 857 217 857 217 900 c 0,5,6
 217 910 217 910 219 920 c 1,7,-1
 230 920 l 1,8,9
 241 895 241 895 272.5 877.5 c 128,-1,10
 304 860 304 860 343.5 860 c 128,-1,11
 383 860 383 860 415 877.5 c 128,-1,12
 447 895 447 895 457 920 c 1,13,-1
 469 920 l 1,14,15
 471 910 471 910 471 900 c 0,0,1
965 -183 m 1,16,17
 900 -216 900 -216 844 -216 c 128,-1,18
 788 -216 788 -216 738 -199.5 c 128,-1,19
 688 -183 688 -183 637 -144 c 0,20,21
 527 -60 527 -60 460 114 c 1,22,-1
 428 199 l 1,23,-1
 192 199 l 1,24,-1
 139 73 l 2,25,26
 134 60 134 60 134 48.5 c 128,-1,27
 134 37 134 37 145 23.5 c 128,-1,28
 156 10 156 10 178 10 c 2,29,-1
 186 10 l 1,30,-1
 186 0 l 1,31,-1
 -28 0 l 1,32,-1
 -28 10 l 1,33,-1
 -19 10 l 2,34,35
 4 10 4 10 26.5 23.5 c 128,-1,36
 49 37 49 37 64 64 c 1,37,-1
 287 573 l 1,38,39
 248 661 248 661 204 694 c 0,40,41
 167 722 167 722 133.5 722 c 128,-1,42
 100 722 100 722 71 712 c 1,43,-1
 69 722 l 1,44,45
 141 759 141 759 207 759 c 0,46,47
 289 759 289 759 354 695 c 0,48,49
 418 632 418 632 467 513 c 2,50,-1
 612 155 l 2,51,52
 662 31 662 31 704 -31 c 0,53,54
 754 -106 754 -106 790 -131 c 0,55,56
 856 -178 856 -178 896 -178 c 0,57,58
 921 -178 921 -178 964 -173 c 1,59,-1
 965 -183 l 1,16,17
209 242 m 1,60,-1
 413 242 l 1,61,-1
 343 427 l 2,62,63
 338 440 338 440 328.5 466 c 128,-1,64
 319 492 319 492 317 500 c 1,65,-1
 209 242 l 1,60,-1
EndSplineSet
EndChar

StartChar: abreve
Encoding: 259 259 195
Width: 716
GlyphClass: 2
Flags: W
LayerCount: 2
Fore
SplineSet
479 884 m 0,0,1
 479 841 479 841 444.5 802.5 c 128,-1,2
 410 764 410 764 352.5 764 c 128,-1,3
 295 764 295 764 260.5 802.5 c 128,-1,4
 226 841 226 841 226 884 c 0,5,6
 226 894 226 894 227 904 c 1,7,-1
 239 904 l 1,8,9
 249 879 249 879 281 861.5 c 128,-1,10
 313 844 313 844 352.5 844 c 128,-1,11
 392 844 392 844 424 861.5 c 128,-1,12
 456 879 456 879 466 904 c 1,13,-1
 478 904 l 1,14,15
 479 894 479 894 479 884 c 0,0,1
737 10 m 2,17,-1
 746 10 l 1,18,-1
 746 0 l 1,19,-1
 427 0 l 1,20,-1
 427 10 l 1,21,-1
 436 10 l 2,22,23
 458 10 458 10 468.5 23.5 c 128,-1,24
 479 37 479 37 479 49 c 128,-1,25
 479 61 479 61 474 73 c 2,26,-1
 425 196 l 1,27,-1
 191 196 l 1,28,-1
 139 73 l 2,29,30
 134 60 134 60 134 52 c 128,-1,31
 134 44 134 44 137.5 34.5 c 128,-1,32
 141 25 141 25 152.5 17.5 c 128,-1,33
 164 10 164 10 178 10 c 2,34,-1
 186 10 l 1,35,-1
 186 0 l 1,36,-1
 -28 0 l 1,37,-1
 -28 10 l 1,38,-1
 -19 10 l 2,39,40
 4 10 4 10 27 24 c 128,-1,41
 50 38 50 38 65 66 c 1,42,-1
 296 589 l 1,43,44
 343 688 343 688 346 720 c 1,45,-1
 355 720 l 1,46,-1
 652 68 l 1,47,48
 667 39 667 39 690 24.5 c 128,-1,16
 713 10 713 10 737 10 c 2,17,-1
208 238 m 1,49,-1
 408 238 l 1,50,-1
 311 484 l 1,51,-1
 208 238 l 1,49,-1
EndSplineSet
EndChar

